<svg width="2651.799316" height="547.001953" viewBox="0 0 2651.8 547.002" fill="none"
	xmlns="http://www.w3.org/2000/svg" xmlns:xlink="http://www.w3.org/1999/xlink">
	<desc>
		Created with Pixso.
	</desc>
	<defs />
	<g opacity="0.300000">
		<path id="Vector"
			d="M1014.67 547C1005.2 547 995.98 546.55 987.12 545.66C968.54 543.79 951.37 539.95 936.1 534.24C919.68 528.11 905.28 519.76 893.29 509.41C869.21 488.62 857.16 463.72 845.5 439.64C843.21 434.91 840.84 430.02 838.44 425.28C822.04 392.94 801.25 364.62 774.89 338.69C722.3 286.97 648.34 242.82 561 211.03C460 174.27 351.41 155.96 255.22 159.47C198.69 161.53 124 181.17 90.61 214.7C70.8 234.6 69.2 256.68 86 278.56L85.66 278.65C76.86 267.18 73.02 255.68 74.26 244.47C75.4 234.18 80.8 224.13 90.3 214.58C105.41 199.41 130.33 185.95 162.36 175.68C191.96 166.19 224.93 160.35 255.2 159.25C305.54 157.41 359.07 161.49 414.32 171.36C464.4 180.31 513.82 193.6 561.19 210.84C648.58 242.65 722.58 286.82 775.2 338.57C801.58 364.52 822.38 392.86 838.79 425.21C841.2 429.95 843.57 434.85 845.85 439.57C857.5 463.64 869.54 488.52 893.6 509.28C916.86 529.36 948.35 541.52 987.18 545.43C1040.97 550.85 1106.27 539.52 1161.88 515.14C1242.01 479.99 1297.62 428.84 1351.41 379.37C1360.84 370.7 1370.58 361.73 1380.23 353.07C1405.29 330.59 1439.22 301.46 1479.55 275.5C1520.77 248.97 1562.65 229.48 1607.6 215.91C1635.12 207.61 1664.28 202.01 1694.27 199.28C1721.97 196.76 1751.3 196.6 1781.43 198.81C1833.11 202.61 1888.78 213.32 1951.64 231.57C2075.42 267.49 2199.05 311.1 2319.12 361.18C2433.25 408.78 2545.18 462.65 2651.8 521.27L2651.55 521.43C2430.53 399.91 2194.99 302.45 1951.48 231.76C1813.91 191.83 1704.69 186.85 1607.77 216.11C1509.17 245.87 1440.29 299.58 1380.54 353.19C1370.89 361.85 1361.14 370.81 1351.72 379.49C1297.92 428.97 1242.29 480.14 1162.1 515.31C1136.18 526.68 1107.04 535.54 1077.8 540.95C1062.36 543.8 1047 545.67 1032.17 546.5C1026.25 546.83 1020.41 547 1014.67 547Z"
			fill="#FFE492" fill-opacity="1.000000" fill-rule="nonzero" />
		<path id="Vector"
			d="M1023.93 534.67C999.78 534.67 977.4 531.9 957.41 526.45C935.11 520.37 915.87 510.95 900.22 498.45C898.84 497.34 897.46 496.2 896.14 495.05C872.3 474.34 859.72 449.77 847.55 426C845.09 421.2 842.55 416.23 839.97 411.41C824.6 382.7 806.1 357.4 783.4 334.07C780.61 331.19 777.71 328.31 774.79 325.51C721.43 274.23 646.87 230.64 559.18 199.47C457.45 163.33 348.54 145.78 252.53 150.03C196.41 152.55 122.06 172.51 88.53 205.78C68.46 225.7 66.19 247.83 81.96 269.77L81.62 269.86C73.35 258.36 69.96 246.84 71.53 235.61C72.97 225.3 78.59 215.23 88.22 205.67C103.48 190.51 128.33 177.05 160.06 166.72C189.39 157.17 222.22 151.17 252.5 149.81C302.77 147.58 356.37 151.27 411.79 160.77C461.99 169.37 511.64 182.33 559.36 199.28C647.11 230.47 721.71 274.08 775.1 325.39C778.02 328.2 780.92 331.08 783.72 333.96C806.43 357.31 824.94 382.62 840.31 411.34C842.89 416.16 845.44 421.13 847.9 425.94C860.06 449.69 872.64 474.25 896.44 494.92C897.76 496.07 899.13 497.21 900.51 498.32C932.86 524.16 977.3 534.67 1024.05 534.67C1024.3 534.67 1024.56 534.67 1024.81 534.67C1024.52 534.67 1024.23 534.67 1023.93 534.67ZM1033.9 534.51C1077.36 533.17 1122.18 523.14 1160.66 508.22C1243.63 475.9 1303.26 425.97 1360.93 377.7C1363.31 375.71 1365.68 373.72 1368.06 371.73C1373.27 367.38 1379.45 362.22 1385.76 357.01C1414.06 333.69 1448.32 306.54 1487.77 282.11C1529.74 256.12 1571.68 236.83 1615.97 223.14C1643.18 214.73 1671.94 208.82 1701.44 205.54C1728.78 202.51 1757.67 201.66 1787.3 203C1838.49 205.32 1893.53 214.1 1955.57 229.86C2016.06 245.21 2065.78 259.65 2112.05 275.32C2177.59 297.53 2240.02 323.13 2292.45 345.24C2414.34 396.79 2533.93 455.32 2647.91 519.21L2647.66 519.37C2533.69 455.49 2414.11 396.96 2292.24 345.42C2239.82 323.31 2177.39 297.72 2111.87 275.51C2065.62 259.85 2015.91 245.41 1955.43 230.07C1820.29 195.73 1712.47 193.59 1616.14 223.34C1516.15 254.24 1444.95 308.61 1386.06 357.15C1379.74 362.35 1373.57 367.51 1368.35 371.87C1365.98 373.85 1363.6 375.84 1361.23 377.83C1303.54 426.12 1243.89 476.06 1160.85 508.41C1140.27 516.39 1118.36 522.74 1095.74 527.26C1074.68 531.47 1053.92 533.9 1033.9 534.51Z"
			fill="#FFE492" fill-opacity="1.000000" fill-rule="nonzero" />
		<path id="Vector"
			d="M1034.15 522.62C1031.24 522.62 1028.35 522.58 1025.49 522.51C1001.36 521.87 979.02 518.54 959.11 512.62C937.33 506.14 918.47 496.54 903.04 484.09C901.67 482.98 900.3 481.84 898.98 480.68C875.42 460.08 862.31 435.83 849.64 412.39C846.99 407.5 844.26 402.45 841.49 397.54C825.37 368.93 806.38 343.84 783.44 320.81C780.6 317.97 777.66 315.11 774.69 312.33C720.56 261.5 645.4 218.47 557.34 187.91C454.89 152.4 345.68 135.6 249.83 140.6C195.87 143.47 121.74 162.28 86.49 196.83C66.12 216.79 63.16 238.97 77.91 260.99L77.57 261.07C69.84 249.54 66.89 237.99 68.8 226.74C70.55 216.4 76.4 206.3 86.18 196.71C101.6 181.6 126.37 168.13 157.8 157.75C186.85 148.16 219.53 141.99 249.8 140.39C300.02 137.76 353.67 141.06 409.26 150.18C459.59 158.43 509.47 171.06 557.53 187.72C645.63 218.3 720.83 261.35 775 312.21C777.97 315 780.91 317.85 783.75 320.7C806.7 343.74 825.7 368.85 841.83 397.48C844.6 402.38 847.33 407.44 849.98 412.32C862.65 435.76 875.75 459.99 899.28 480.56C900.6 481.72 901.96 482.86 903.33 483.97C966.02 534.55 1077.14 529.12 1159.43 501.3C1245.87 471.83 1310.1 422.84 1372.22 375.47L1372.86 374.98C1378.87 370.39 1385.1 365.64 1391.29 360.96C1456.63 311.51 1528.45 260.7 1624.33 230.36C1651.25 221.85 1679.62 215.61 1708.63 211.8C1735.61 208.26 1764.07 206.7 1793.19 207.18C1843.97 208 1898.37 214.87 1959.51 228.16C2023.76 242.08 2072.12 254.87 2116.29 269.65C2179.23 290.74 2240.19 317.39 2293.98 340.9C2413.74 393.54 2531.51 452.84 2644.03 517.14L2643.77 517.3C2531.27 453 2413.51 393.71 2293.76 341.08C2239.98 317.57 2179.03 290.92 2116.11 269.84C2071.95 255.07 2023.62 242.28 1959.39 228.36C1826.86 199.55 1720.45 200.25 1624.5 230.55C1528.68 260.87 1456.89 311.66 1391.57 361.09C1385.38 365.77 1379.16 370.52 1373.14 375.11L1372.51 375.6C1341.55 399.21 1309.54 423.62 1274.97 445.42C1236.13 469.92 1198.39 488.26 1159.61 501.49C1119.03 515.2 1074.82 522.62 1034.15 522.62Z"
			fill="#FFE492" fill-opacity="1.000000" fill-rule="nonzero" />
		<path id="Vector"
			d="M2639.89 515.22C2528.85 450.51 2412.9 390.46 2295.29 336.74C2290.31 334.48 2285.32 332.21 2280.31 329.93C2229.37 306.77 2176.69 282.82 2120.36 264.16C2065.71 246.11 2010.32 235.07 1963.35 226.66C1833.69 203.28 1728.69 206.81 1632.88 237.76C1534.54 269.62 1458.33 322.52 1397.1 365.03C1393.43 367.58 1389.76 370.14 1386.09 372.69C1383.37 374.58 1380.66 376.47 1377.94 378.36C1343.08 402.59 1311.37 424.25 1276.32 444.01C1236.3 466.59 1197.72 483.13 1158.37 494.57C1121.5 505.29 1082.1 510.97 1045.46 510.97C1038.79 510.97 1032.21 510.78 1025.75 510.4C1002.15 509.01 980.3 505.11 960.82 498.8C939.55 491.92 921.06 482.14 905.84 469.73C904.49 468.62 903.13 467.47 901.82 466.32C878.53 445.83 864.91 421.92 851.75 398.8C848.91 393.82 845.97 388.67 843.01 383.67C826.12 355.15 806.64 330.26 783.47 307.55C780.58 304.73 777.6 301.9 774.59 299.14C719.68 248.76 643.92 206.29 555.51 176.33C452.33 141.45 342.82 125.41 247.14 131.16C181.73 135.17 114.85 158.48 84.49 187.83C63.81 207.83 60.14 230.09 73.88 252.2L73.53 252.27C66.34 240.7 63.83 229.11 66.08 217.84C68.15 207.46 74.24 197.32 84.18 187.71C99.77 172.64 124.45 159.17 155.57 148.76C184.34 139.13 216.85 132.8 247.1 130.94C297.26 127.93 350.97 130.83 406.74 139.57C457.18 147.48 507.3 159.78 555.7 176.14C644.16 206.11 719.96 248.6 774.9 299.02C777.91 301.78 780.9 304.61 783.78 307.44C806.97 330.15 826.45 355.06 843.35 383.59C846.32 388.6 849.26 393.74 852.09 398.73C865.25 421.83 878.87 445.72 902.12 466.19C903.43 467.34 904.79 468.49 906.14 469.6C971.59 522.95 1082.84 516.28 1158.21 494.37C1248.14 468.22 1316.95 420.4 1377.67 378.21C1380.38 376.32 1383.1 374.44 1385.81 372.55C1389.48 369.99 1393.15 367.44 1396.83 364.88C1431.78 340.62 1466.29 317.04 1504.24 295.32C1547.87 270.33 1589.9 251.44 1632.71 237.57C1659.35 228.96 1687.31 222.39 1715.82 218.05C1742.47 213.99 1770.48 211.73 1799.09 211.35C1849.54 210.66 1903.31 215.6 1963.46 226.45C2010.45 234.87 2065.86 245.91 2120.54 263.97C2176.88 282.64 2229.58 306.59 2280.54 329.76C2285.54 332.04 2290.54 334.31 2295.52 336.56C2413.13 390.29 2529.1 450.35 2640.15 515.07L2639.89 515.22Z"
			fill="#FFE492" fill-opacity="1.000000" fill-rule="nonzero" />
		<path id="Vector"
			d="M2636.01 513.15C2524.33 446.79 2410.22 385.97 2296.82 332.4C2290.04 329.19 2283.1 325.89 2276.37 322.69C2228.31 299.82 2178.6 276.16 2124.61 258.49C2070.69 240.9 2014.84 231.66 1967.31 224.95C1840.81 206.9 1737.2 213.27 1641.26 244.97C1549.75 275.32 1478.05 320.96 1408.72 365.09L1401.1 369.94C1395.09 373.77 1388.87 377.72 1382.74 381.6C1313.34 425.49 1243.86 466.61 1157.13 487.65C1136.09 492.75 1114.48 496.29 1092.89 498.17C1069.72 500.18 1047.21 500.21 1025.98 498.25C1002.93 496.12 981.57 491.65 962.52 484.96C941.79 477.68 923.66 467.73 908.66 455.37C907.31 454.25 905.97 453.1 904.67 451.95C881.67 431.58 867.56 408.02 853.91 385.24C850.87 380.16 847.72 374.9 844.53 369.8C826.86 341.37 806.9 316.67 783.51 294.3C780.58 291.5 777.55 288.7 774.5 285.96C718.82 236.02 642.46 194.11 553.69 164.77C449.78 130.52 339.96 115.23 244.45 121.73C179.64 126.23 113.06 149.7 82.54 178.8C61.51 198.85 57.12 221.19 69.84 243.41L69.49 243.48C62.83 231.86 60.78 220.23 63.38 208.92C65.77 198.5 72.11 188.32 82.23 178.68C97.98 163.66 122.58 150.2 153.36 139.76C181.86 130.09 214.19 123.61 244.4 121.51C294.5 118.1 348.26 120.62 404.2 128.98C454.77 136.54 505.13 148.51 553.86 164.57C642.68 193.94 719.08 235.87 774.8 285.84C777.85 288.58 780.89 291.39 783.81 294.18C807.22 316.57 827.19 341.28 844.87 369.72C848.05 374.83 851.2 380.09 854.25 385.17C867.89 407.94 881.99 431.48 904.96 451.83C906.26 452.98 907.6 454.12 908.95 455.24C972.83 507.85 1078.96 506.37 1156.99 487.45C1243.65 466.43 1313.1 425.32 1382.47 381.45C1388.6 377.57 1394.82 373.62 1400.83 369.79L1408.45 364.94C1442.48 343.28 1477.67 320.88 1515.89 300.04C1559.18 276.43 1600.13 258.36 1641.08 244.78C1667.44 236.06 1695.01 229.17 1723 224.3C1749.32 219.72 1776.9 216.76 1804.97 215.52C1855.21 213.29 1908.33 216.31 1967.39 224.73C2014.94 231.45 2070.82 240.69 2124.77 258.29C2178.8 275.97 2228.52 299.64 2276.61 322.52C2283.32 325.71 2290.26 329.02 2297.05 332.22C2410.45 385.8 2524.58 446.62 2636.26 512.99L2636.01 513.15Z"
			fill="#FFE492" fill-opacity="1.000000" fill-rule="nonzero" />
		<path id="Vector"
			d="M2632.12 511.07C2521.4 443.97 2409.11 382.4 2298.35 328.06C2290.03 323.97 2281.49 319.73 2273.24 315.62C2227.76 292.99 2180.73 269.59 2128.85 252.82C2075.19 235.53 2019.08 228.17 1971.27 223.25C1848.28 210.39 1746.07 219.58 1649.63 252.19C1565.47 280.76 1496.37 321.25 1429.54 360.41C1422.51 364.53 1415.24 368.79 1408.15 372.91C1399.83 377.76 1393.47 381.45 1387.54 384.85C1355.77 403.09 1317.94 424.1 1278.25 441.57C1236.18 460.08 1196.16 472.89 1155.89 480.73C1134.72 484.86 1113.19 487.46 1091.93 488.47C1069.09 489.54 1046.98 488.75 1026.21 486.11C1003.71 483.24 982.85 478.21 964.22 471.13C944.02 463.46 926.27 453.33 911.48 441.01C910.14 439.9 908.81 438.74 907.51 437.59C884.81 417.35 870.23 394.16 856.12 371.73C852.85 366.53 849.47 361.15 846.06 355.93C827.59 327.58 807.14 303.08 783.54 281.04C780.57 278.27 777.5 275.49 774.4 272.78C717.94 223.28 640.99 181.93 551.86 153.2C447.22 119.58 337.09 105.05 241.75 112.29C187.5 116.5 116.65 135.89 80.64 169.71C59.24 189.83 54.1 212.27 65.79 234.62L65.45 234.69C59.33 223 57.73 211.32 60.69 199.97C63.43 189.49 70.03 179.28 80.34 169.6C96.26 154.64 120.77 141.2 151.21 130.73C179.42 121.04 211.55 114.41 241.71 112.07C291.75 108.27 345.57 110.39 401.68 118.38C452.37 125.59 502.96 137.24 552.03 153C641.21 181.76 718.21 223.13 774.7 272.65C777.8 275.36 780.88 278.15 783.84 280.92C807.45 302.98 827.91 327.48 846.4 355.85C849.81 361.07 853.19 366.45 856.46 371.65C870.56 394.07 885.14 417.25 907.81 437.46C909.11 438.62 910.44 439.77 911.77 440.88C964.91 485.12 1056.13 499.93 1155.78 480.52C1246.01 462.94 1319.62 423.54 1387.29 384.69C1393.22 381.28 1399.57 377.6 1407.89 372.75C1414.98 368.62 1422.25 364.36 1429.28 360.24C1462.18 340.97 1496.2 321.03 1532.49 302.37C1573.52 281.26 1611.78 264.78 1649.46 251.99C1675.57 243.16 1702.73 235.95 1730.19 230.55C1756.2 225.44 1783.35 221.79 1810.87 219.69C1860.98 215.88 1913.47 216.97 1971.34 223.02C2019.17 227.95 2075.31 235.32 2129.02 252.62C2180.93 269.4 2227.98 292.81 2273.47 315.45C2281.72 319.55 2290.26 323.8 2298.58 327.88C2409.35 382.23 2521.65 443.81 2632.38 510.91L2632.12 511.07Z"
			fill="#FFE492" fill-opacity="1.000000" fill-rule="nonzero" />
		<path id="Vector"
			d="M2628.24 509C2518.48 441.16 2408.01 378.82 2299.87 323.72C2290.67 319.03 2281.23 314.11 2272.09 309.35C2228.56 286.69 2183.56 263.26 2133.09 247.14C2079.38 230.06 2023.16 224.61 1975.23 221.54C1857.81 213.8 1754.04 226.18 1658 259.4C1581.53 285.97 1515.98 321.51 1452.58 355.89C1439.78 362.83 1426.54 370.01 1413.67 376.86C1405.79 381.05 1398.82 384.73 1392.33 388.1C1362.17 403.79 1322.06 423.9 1279.18 440.34C1236.11 456.85 1195.37 467.81 1154.64 473.82C1110.21 480.38 1065.87 480.42 1026.42 473.96C1004.48 470.37 984.12 464.76 965.91 457.3C946.24 449.25 928.88 438.94 914.28 426.66C912.96 425.54 911.63 424.38 910.34 423.23C887.97 403.15 872.93 380.34 858.39 358.28C854.88 352.94 851.24 347.43 847.57 342.07C828.29 313.79 807.36 289.49 783.57 267.79C780.56 265.04 777.44 262.29 774.3 259.6C717.07 210.55 639.51 169.76 550.02 141.64C444.67 108.65 334.23 94.88 239.05 102.86C174.55 108.39 110.15 131.59 78.8 160.6C56.98 180.78 51.09 203.34 61.75 225.84L61.4 225.9C55.83 214.14 54.69 202.4 58.02 191C61.1 180.47 67.99 170.2 78.49 160.47C94.58 145.58 118.99 132.18 149.08 121.7C176.99 111.99 208.93 105.22 239 102.64C288.98 98.45 342.86 100.18 399.15 107.78C449.96 114.65 500.78 125.97 550.19 141.44C639.73 169.58 717.33 210.39 774.6 259.47C777.74 262.16 780.86 264.92 783.87 267.67C807.67 289.38 828.62 313.69 847.91 341.98C851.58 347.34 855.21 352.86 858.73 358.19C873.26 380.24 888.29 403.04 910.64 423.1C911.93 424.26 913.26 425.41 914.58 426.53C966.81 470.48 1056.52 488.07 1154.55 473.6C1243.92 460.41 1321.54 424.63 1392.09 387.94C1398.57 384.56 1405.55 380.88 1413.42 376.69C1426.29 369.85 1439.53 362.67 1452.33 355.73C1515.74 321.35 1581.31 285.79 1657.82 259.21C1683.7 250.26 1710.46 242.72 1737.37 236.81C1763.1 231.16 1789.81 226.81 1816.75 223.88C1866.84 218.43 1918.7 217.59 1975.27 221.32C2023.22 224.4 2079.5 229.85 2133.26 246.95C2183.76 263.08 2228.78 286.52 2272.33 309.19C2281.47 313.95 2290.9 318.87 2300.11 323.55C2408.25 378.66 2518.74 441 2628.5 508.85L2628.24 509Z"
			fill="#FFE492" fill-opacity="1.000000" fill-rule="nonzero" />
		<path id="Vector"
			d="M2624.35 506.93C2515.58 438.34 2406.92 375.24 2301.39 319.38C2291.71 314.24 2281.73 308.81 2272.09 303.55C2230.14 280.7 2186.78 257.07 2137.33 241.47C2083.4 224.54 2027.13 221.03 1979.19 219.83C1866.21 216.8 1763.88 232.1 1666.38 266.61C1597.99 290.93 1537.04 321.7 1478.08 351.46C1457.81 361.7 1438.66 371.36 1419.19 380.8C1411.27 384.64 1404.05 388.09 1397.13 391.35C1352.45 412.34 1315.27 427.52 1280.13 439.11C1236.05 453.65 1194.6 462.74 1153.4 466.9C1137.42 468.51 1121.49 469.31 1105.86 469.31C1078.14 469.31 1051.32 466.8 1026.64 461.81C981.95 452.78 945.1 436.12 917.1 412.3C915.78 411.17 914.46 410.01 913.19 408.86C891.16 388.95 875.7 366.55 860.75 344.88C856.96 339.39 853.05 333.71 849.1 328.19C829 299.98 807.57 275.89 783.61 254.53C780.55 251.81 777.39 249.08 774.2 246.41C716.2 197.81 638.04 157.58 548.2 130.07C442.12 97.72 331.38 84.7 236.37 93.42C171.6 99.49 109.05 122.25 77.03 151.41C54.77 171.68 48.1 194.38 57.72 217.05L57.36 217.1C52.34 205.26 51.67 193.45 55.38 181.99C58.82 171.39 66 161.06 76.73 151.29C92.99 136.48 117.29 123.12 147.01 112.65C174.62 102.92 206.33 96.01 236.31 93.2C286.23 88.62 340.17 89.96 396.62 97.18C447.56 103.7 498.61 114.7 548.36 129.87C638.26 157.4 716.46 197.65 774.5 246.28C777.69 248.95 780.85 251.68 783.91 254.41C807.89 275.77 829.32 299.88 849.44 328.1C853.38 333.62 857.3 339.3 861.08 344.79C876.03 366.45 891.48 388.84 913.49 408.73C914.77 409.88 916.08 411.04 917.4 412.17C969.69 456.66 1055.68 476.53 1153.34 466.68C1246.29 457.3 1328.62 423.25 1396.9 391.17C1403.82 387.92 1411.04 384.47 1418.96 380.63C1438.43 371.19 1457.58 361.53 1477.85 351.29C1536.81 321.52 1597.78 290.75 1666.19 266.42C1691.88 257.33 1718.24 249.47 1744.56 243.06C1770.05 236.85 1796.32 231.8 1822.64 228.05C1872.84 220.89 1924.06 218.13 1979.21 219.61C2027.19 220.81 2083.51 224.32 2137.5 241.27C2186.99 256.88 2230.37 280.52 2272.33 303.39C2281.98 308.64 2291.95 314.08 2301.63 319.21C2407.15 375.07 2515.83 438.18 2624.61 506.77L2624.35 506.93Z"
			fill="#FFE492" fill-opacity="1.000000" fill-rule="nonzero" />
		<path id="Vector"
			d="M2620.47 504.85C2511.14 434.53 2407.28 372.44 2302.93 315.04C2292.97 309.56 2283.17 303.97 2272.79 298.04C2232.22 274.9 2190.26 250.96 2141.58 235.8C2086.98 218.87 2028.23 217.46 1983.15 218.13C1875.31 219.51 1774.43 237.73 1674.75 273.83C1614.94 295.59 1559.72 321.73 1506.32 347.01C1478.25 360.29 1451.74 372.84 1424.71 384.75C1416.68 388.28 1409.23 391.51 1401.92 394.6C1356.63 413.74 1318.23 427.49 1281.06 437.87C1235.97 450.47 1193.8 457.7 1152.15 459.98C1130.75 461.15 1109.5 460.93 1088.99 459.33C1067.27 457.63 1046.36 454.37 1026.85 449.65C983.6 439.18 947.62 421.79 919.91 397.94C918.6 396.81 917.3 395.65 916.03 394.5C894.37 374.8 878.52 352.82 863.2 331.56C859.11 325.89 854.88 320.03 850.62 314.33C829.68 286.18 807.77 262.28 783.64 241.28C780.53 238.58 777.33 235.87 774.11 233.23C715.33 185.08 636.58 145.41 546.37 118.51C463.11 93.78 377.25 80.87 298.51 80.87C276.25 80.87 254.58 81.91 233.68 83.99C169.69 90.5 107.53 113.34 75.33 142.19C52.6 162.55 45.11 185.4 53.68 208.27L53.32 208.31C48.85 196.38 48.66 184.49 52.76 172.96C56.57 162.28 64.06 151.88 75.02 142.06C91.45 127.35 115.64 114.04 144.98 103.58C172.68 93.7 203.33 86.85 233.61 83.77C283.47 78.8 337.47 79.75 394.09 86.59C445.16 92.76 496.44 103.43 546.53 118.3C636.79 145.22 715.59 184.92 774.41 233.1C777.63 235.74 780.84 238.45 783.94 241.15C808.08 262.17 830 286.07 850.96 314.23C855.22 319.93 859.45 325.8 863.54 331.47C878.86 352.72 894.69 374.69 916.34 394.37C917.61 395.52 918.91 396.68 920.21 397.81C972.04 442.4 1056.56 464.98 1152.12 459.76C1248.81 454.47 1336.3 422.06 1401.72 394.41C1409.02 391.32 1416.47 388.1 1424.5 384.56C1451.53 372.66 1478.03 360.11 1506.1 346.83C1559.51 321.55 1614.73 295.41 1674.56 273.63C1725.89 255.05 1776.25 241.5 1828.53 232.22C1878.96 223.27 1929.54 218.59 1983.15 217.9C2013.74 217.45 2038.7 218.23 2061.69 220.36C2091.37 223.12 2117.57 228.1 2141.75 235.59C2190.48 250.77 2232.46 274.72 2273.05 297.88C2283.43 303.8 2293.23 309.4 2303.18 314.87C2407.54 372.28 2511.42 434.37 2620.74 504.7L2620.47 504.85Z"
			fill="#FFE492" fill-opacity="1.000000" fill-rule="nonzero" />
		<path id="Vector"
			d="M2616.58 502.78C2508.27 431.69 2406.17 368.86 2304.45 310.7C2294.38 304.94 2284.47 299.01 2273.97 292.74C2234.61 269.22 2193.9 244.9 2145.82 230.12C2090.77 213.27 2032.09 213.95 1987.11 216.41C1885.35 221.81 1785.91 242.95 1683.12 281.04C1632.48 299.9 1584.26 321.48 1537.63 342.35C1500.76 358.85 1465.95 374.44 1430.23 388.68C1422.16 391.9 1414.24 394.99 1406.71 397.84C1361.34 415.02 1320.54 427.7 1282.01 436.62C1235.87 447.31 1192.98 452.68 1150.91 453.06C1129.5 453.24 1108.32 452.08 1088.01 449.6C1066.69 446.99 1046.19 442.92 1027.06 437.48C985.3 425.62 950.19 407.49 922.72 383.57C921.43 382.44 920.13 381.28 918.87 380.12C897.62 360.66 881.42 339.15 865.76 318.34C861.33 312.46 856.75 306.37 852.15 300.45C830.34 272.35 807.94 248.66 783.67 228.02C780.52 225.34 777.27 222.66 774.01 220.04C714.46 172.34 635.11 133.22 544.54 106.93C437.02 75.85 325.66 64.35 230.98 74.55C167.82 81.47 106.08 104.37 73.69 132.89C50.45 153.36 42.13 176.39 49.64 199.47L49.28 199.51C45.36 187.48 45.66 175.49 50.17 163.89C54.36 153.12 62.17 142.65 73.39 132.77C89.98 118.16 114.05 104.92 143 94.47C170.37 84.6 200.77 77.63 230.91 74.33C280.72 68.97 334.77 69.52 391.57 75.98C442.75 81.81 494.27 92.15 544.7 106.73C635.32 133.04 714.71 172.17 774.3 219.91C777.57 222.53 780.82 225.21 783.97 227.89C808.25 248.54 830.66 272.25 852.47 300.35C857.08 306.27 861.66 312.36 866.1 318.25C881.75 339.05 897.93 360.55 919.17 380C920.44 381.16 921.74 382.32 923.02 383.44C975.39 429.03 1056.31 453.68 1150.9 452.83C1227.64 452.15 1308.87 434.61 1406.52 397.65C1414.04 394.79 1421.95 391.71 1430.02 388.49C1465.73 374.25 1500.55 358.67 1537.4 342.17C1584.04 321.29 1632.27 299.71 1682.93 280.84C1734.75 261.64 1784.3 247.1 1834.42 236.39C1885.18 225.55 1935.12 218.94 1987.08 216.19C2032.1 213.72 2090.85 213.04 2145.99 229.92C2194.12 244.72 2234.85 269.05 2274.23 292.57C2284.73 298.85 2294.64 304.78 2304.71 310.53C2406.43 368.7 2508.53 431.53 2616.85 502.62L2616.58 502.78Z"
			fill="#FFE492" fill-opacity="1.000000" fill-rule="nonzero" />
		<path id="Vector"
			d="M2612.7 500.71C2505.38 428.84 2405.07 365.27 2305.98 306.36C2295.93 300.38 2285.99 294.16 2275.48 287.58C2237.24 263.65 2197.69 238.9 2150.07 224.45C2094.5 207.66 2035.91 210.42 1991.08 214.71C1895.32 223.68 1800.13 247.05 1691.5 288.25C1650.75 303.77 1610.93 320.8 1572.43 337.27C1525.66 357.27 1481.49 376.17 1435.75 392.62C1427.51 395.59 1419.35 398.44 1411.51 401.09C1365.32 416.66 1323.26 427.88 1282.94 435.38C1260.37 439.58 1238.07 442.63 1216.68 444.43C1193.88 446.35 1171.32 446.92 1149.66 446.14C1105.69 444.54 1064.52 437.53 1027.28 425.32C987.06 412.13 952.83 393.25 925.54 369.21C924.26 368.08 922.97 366.91 921.72 365.76C900.92 346.58 884.43 325.58 868.5 305.27C863.67 299.12 858.69 292.76 853.67 286.58C830.99 258.53 808.1 235.04 783.71 214.76C780.52 212.11 777.22 209.45 773.91 206.86C713.59 159.6 633.64 121.05 542.71 95.37C434.48 64.92 322.81 54.18 228.29 65.12C127.08 77.01 28.45 128.4 45.6 190.69L45.24 190.72C40.95 175.14 43.46 159.79 52.7 145.1C61.15 131.67 75 119.04 93.88 107.56C111.44 96.87 132.5 87.65 156.47 80.15C179.28 73.01 204.09 67.73 228.22 64.9C277.97 59.14 332.08 59.31 389.04 65.39C440.35 70.87 492.11 80.89 542.87 95.17C633.84 120.86 713.84 159.44 774.2 206.73C777.51 209.32 780.81 211.98 784 214.64C808.41 234.92 831.31 258.43 854 286.49C859.02 292.67 864 299.03 868.83 305.18C884.76 325.48 901.23 346.48 922.02 365.64C923.28 366.8 924.56 367.96 925.84 369.09C978.28 415.29 1057.78 442.57 1149.68 445.92C1227.49 448.75 1313.07 434.02 1411.33 400.9C1419.17 398.25 1427.32 395.4 1435.56 392.44C1481.29 375.99 1525.46 357.09 1572.22 337.09C1610.73 320.62 1650.55 303.59 1691.3 288.07C1799.98 246.84 1895.21 223.47 1991.02 214.49C2021.14 211.61 2046.08 210.69 2069.52 211.6C2099.47 212.75 2125.87 216.89 2150.23 224.25C2197.89 238.71 2237.47 263.48 2275.74 287.43C2286.25 294.01 2296.18 300.22 2306.24 306.2C2405.33 365.12 2505.65 428.69 2612.96 500.56L2612.7 500.71Z"
			fill="#FFE492" fill-opacity="1.000000" fill-rule="nonzero" />
		<path id="Vector"
			d="M2608.81 498.63C2502.53 425.98 2403.97 361.67 2307.51 302.02C2297.53 295.84 2287.67 289.38 2277.23 282.53C2240.02 258.14 2201.54 232.91 2154.31 218.77C2097.53 201.85 2036.22 207.37 1995.04 213C1883.27 228.08 1783.11 263.15 1699.87 295.46C1669.96 307.13 1640.12 319.48 1611.25 331.43C1553.36 355.39 1498.68 378.03 1441.28 396.57C1432.83 399.29 1424.44 401.91 1416.31 404.33C1369.22 418.38 1325.9 428.12 1283.9 434.13C1236.28 440.94 1190.69 442.65 1148.43 439.22C1104.99 435.69 1064.31 426.92 1027.51 413.15C988.9 398.71 955.55 379.1 928.36 354.86C927.09 353.72 925.81 352.55 924.56 351.4C904.28 332.57 887.59 312.15 871.45 292.39C866.17 285.92 860.7 279.23 855.2 272.71C831.29 244.31 808.59 221.69 783.75 201.51C780.51 198.88 777.18 196.25 773.82 193.68C712.72 146.87 632.17 108.87 540.88 83.8C431.93 53.99 319.96 44 225.59 55.68C124.02 68.42 27.41 119.11 41.56 181.9L41.2 181.93C37.69 166.35 40.72 151.02 50.22 136.35C58.93 122.92 72.86 110.27 91.64 98.77C109.16 88.05 130.11 78.76 153.92 71.16C176.59 63.92 201.35 58.49 225.52 55.46C275.22 49.31 329.38 49.09 386.51 54.79C437.95 59.93 489.94 69.62 541.04 83.6C632.38 108.68 712.97 146.7 774.1 193.54C777.46 196.11 780.8 198.75 784.04 201.38C808.89 221.56 831.6 244.2 855.52 272.61C861.02 279.13 866.49 285.82 871.78 292.29C887.91 312.04 904.6 332.46 924.86 351.28C926.11 352.44 927.39 353.6 928.66 354.74C981.51 401.85 1059.56 431.78 1148.47 439C1228.19 445.48 1315.75 434.07 1416.15 404.14C1424.27 401.71 1432.67 399.1 1441.1 396.37C1498.49 377.84 1553.16 355.21 1611.05 331.25C1639.91 319.3 1669.75 306.94 1699.67 295.28C1755.64 273.55 1802.2 257.49 1846.2 244.75C1897.98 229.76 1946.64 219.3 1994.95 212.78C2024.41 208.76 2050.08 206.93 2073.43 207.21C2103.51 207.57 2130.02 211.28 2154.47 218.57C2201.77 232.73 2240.26 257.97 2277.49 282.38C2287.94 289.23 2297.8 295.69 2307.77 301.86C2404.24 361.52 2502.79 425.84 2609.09 498.48L2608.81 498.63Z"
			fill="#FFE492" fill-opacity="1.000000" fill-rule="nonzero" />
		<path id="Vector"
			d="M2604.93 496.56C2499.67 423.12 2402.87 358.07 2309.04 297.67C2299.2 291.34 2289.46 284.65 2279.14 277.57C2242.92 252.68 2205.47 226.95 2158.56 213.1C2101.15 196.21 2040.01 203.97 1999 211.29C1897.74 229.18 1807.41 263.26 1708.25 302.68C1690.36 309.81 1672.27 317.17 1654.78 324.3C1587.49 351.69 1517.92 380.02 1446.8 400.51C1438.16 403 1429.51 405.38 1421.1 407.58C1373.69 419.98 1327.85 428.49 1284.84 432.88C1236.12 437.85 1189.81 437.65 1147.18 432.3C1104.35 426.92 1064.16 416.38 1027.72 400.98C990.84 385.39 958.35 365.04 931.16 340.5C929.91 339.36 928.64 338.19 927.4 337.04C907.72 318.65 890.93 298.89 874.69 279.78C868.84 272.89 862.79 265.78 856.71 258.85C831.87 230.47 808.69 208.04 783.77 188.26C780.5 185.66 777.11 183.05 773.71 180.5C711.85 134.13 630.7 96.69 539.05 72.23C429.38 43.06 317.1 33.83 222.9 46.25C124.55 59.34 26.15 108.26 37.51 173.11L37.15 173.14C34.42 157.56 37.98 142.24 47.73 127.61C56.7 114.16 70.72 101.5 89.4 89.99C123.86 68.75 172.49 52.73 222.82 46.03C272.45 39.49 326.68 38.87 383.98 44.2C435.54 48.99 487.76 58.35 539.2 72.03C630.9 96.5 712.09 133.97 774 180.36C777.4 182.91 780.79 185.52 784.06 188.12C809 207.92 832.19 230.36 857.04 258.74C863.11 265.67 869.17 272.79 875.02 279.67C891.25 298.78 908.04 318.54 927.7 336.91C928.94 338.07 930.21 339.23 931.47 340.37C985.86 389.47 1060.48 421.18 1147.25 432.08C1227.59 442.17 1319.67 433.86 1420.95 407.38C1429.35 405.18 1437.99 402.8 1446.63 400.31C1517.73 379.83 1587.29 351.5 1654.56 324.12C1672.06 316.99 1690.15 309.63 1708.04 302.49C1751.44 285.24 1801.95 265.45 1852.08 248.93C1904.52 231.65 1952.54 219.27 1998.89 211.08C2028.07 205.87 2053.74 203.18 2077.35 202.83C2107.12 202.39 2134.5 205.78 2158.71 212.9C2179.72 219.11 2200.87 228.37 2223.37 241.21C2243.23 252.56 2261.62 265.2 2279.42 277.42C2289.72 284.5 2299.46 291.19 2309.3 297.52C2403.14 357.92 2499.94 422.98 2605.2 496.41L2604.93 496.56Z"
			fill="#FFE492" fill-opacity="1.000000" fill-rule="nonzero" />
		<path id="Vector"
			d="M2601.04 494.48C2496.82 420.26 2401.8 354.46 2310.57 293.33C2300.89 286.86 2291.33 279.97 2281.2 272.67C2245.92 247.27 2209.44 221.01 2162.8 207.43C2119.22 194.77 2066.93 195.48 2002.96 209.58C1913.51 229.18 1833.56 261.97 1748.9 296.69C1738.36 301.01 1727.47 305.48 1716.62 309.89C1712.37 311.63 1708.12 313.36 1703.88 315.1C1623.22 348.05 1539.81 382.13 1452.32 404.45C1443.47 406.71 1434.59 408.86 1425.9 410.83C1377.45 421.82 1330.31 428.82 1285.8 431.62C1235.96 434.76 1188.9 432.66 1145.93 425.38C1103.78 418.23 1064.09 405.92 1027.96 388.8C992.93 372.21 961.32 351.13 933.99 326.14C932.74 325 931.49 323.83 930.25 322.67C911.33 304.86 894.59 285.9 878.4 267.56C871.84 260.13 865.06 252.45 858.25 244.98C832.45 216.62 808.8 194.39 783.82 175C780.5 172.43 777.07 169.84 773.63 167.32C710.98 121.4 629.23 84.52 537.22 60.67C426.84 32.14 314.25 23.66 220.2 36.81C123.66 50.42 25.4 99.73 33.48 164.33L33.11 164.35C31.16 148.76 35.25 133.47 45.25 118.87C54.48 105.41 68.58 92.74 87.16 81.21C121.48 59.93 169.94 43.67 220.12 36.6C269.7 29.67 323.98 28.66 381.45 33.6C433.14 38.04 485.6 47.08 537.37 60.47C629.43 84.33 711.23 121.23 773.9 167.17C777.35 169.7 780.78 172.29 784.1 174.86C809.09 194.26 832.75 216.5 858.56 244.87C865.38 252.34 872.16 260.02 878.72 267.45C894.9 285.79 911.64 304.75 930.55 322.55C931.79 323.71 933.04 324.87 934.29 326.02C989.86 376.82 1063.07 411.1 1146.04 425.16C1227.92 439.04 1322.04 434.15 1425.77 410.62C1434.45 408.64 1443.33 406.5 1452.17 404.24C1539.64 381.93 1623.03 347.86 1703.67 314.91C1707.92 313.17 1712.16 311.44 1716.41 309.71C1727.26 305.29 1738.15 300.82 1748.69 296.5C1833.37 261.78 1913.34 228.98 2002.83 209.37C2031.73 203 2057.38 199.43 2081.27 198.44C2111.15 197.21 2138.63 200.17 2162.96 207.23C2183.85 213.31 2204.73 222.61 2226.81 235.67C2246.28 247.19 2264.18 260.07 2281.48 272.53C2291.61 279.82 2301.18 286.71 2310.84 293.18C2402.08 354.31 2497.1 420.11 2601.32 494.34L2601.04 494.48Z"
			fill="#FFE492" fill-opacity="1.000000" fill-rule="nonzero" />
		<path id="Vector"
			d="M2597.15 492.41C2502.03 423.24 2406.12 354.8 2312.09 288.99C2302.52 282.33 2293.03 275.18 2282.99 267.6C2250.33 242.96 2213.3 215.03 2167.05 201.75C2122.95 189.12 2070.58 191.13 2006.92 207.87C1931.23 227.71 1864.24 256.89 1793.33 287.78C1771.12 297.45 1748.15 307.46 1724.99 317.11C1684.56 333.99 1640.82 351.85 1594.97 368.12C1545.87 385.55 1501.01 398.72 1457.83 408.39C1448.76 410.42 1439.63 412.34 1430.68 414.07C1381.2 423.68 1332.78 429.14 1286.77 430.32C1235.82 431.62 1188.03 427.63 1144.68 418.45C1064.66 401.3 994.71 365.41 936.79 311.78C935.56 310.64 934.31 309.47 933.08 308.31C915.12 291.29 898.67 273.33 882.77 255.96C875.29 247.79 867.55 239.34 859.76 231.11C832.98 202.76 808.85 180.72 783.84 161.75C780.48 159.2 777.01 156.64 773.52 154.14C710.11 108.66 627.76 72.34 535.39 49.1C424.3 21.21 311.41 13.5 217.51 27.38C120.38 41.81 24.59 90.47 29.44 155.54L29.07 155.55C27.91 139.97 32.52 124.68 42.77 110.13C52.26 96.65 66.44 83.96 84.92 72.43C102.32 61.57 122.95 52.07 146.23 44.2C168.83 36.55 192.78 30.82 217.42 27.16C266.95 19.84 321.28 18.44 378.92 23C430.73 27.1 483.42 35.82 535.53 48.9C627.96 72.15 710.35 108.49 773.8 153.99C777.28 156.49 780.76 159.05 784.13 161.61C809.15 180.59 833.29 202.64 860.08 231C867.87 239.22 875.61 247.68 883.09 255.85C898.99 273.22 915.43 291.17 933.39 308.19C934.61 309.35 935.86 310.52 937.09 311.66C994.97 365.25 1064.86 401.11 1144.81 418.25C1227.17 435.68 1325.98 434.17 1430.57 413.86C1439.51 412.13 1448.64 410.21 1457.7 408.19C1554.25 386.56 1642.58 351.24 1724.78 316.92C1747.94 307.27 1770.9 297.27 1793.11 287.6C1864.04 256.7 1931.04 227.52 2006.77 207.67C2070.52 190.9 2123 188.9 2167.2 201.55C2187.92 207.5 2208.49 216.82 2230.09 230.04C2249.12 241.7 2266.49 254.8 2283.28 267.46C2293.32 275.04 2302.8 282.19 2312.37 288.85C2406.39 354.66 2502.31 423.1 2597.44 492.27L2597.15 492.41Z"
			fill="#FFE492" fill-opacity="1.000000" fill-rule="nonzero" />
		<path id="Vector"
			d="M2593.27 490.34C2499.6 420.79 2405.51 351.58 2313.62 284.65C2304.35 277.92 2295.14 270.64 2285.39 262.93C2253.54 237.71 2217.43 209.13 2171.29 196.08C2126.67 183.47 2074.2 186.77 2010.87 206.15C1944.53 226.44 1883.57 255.08 1824.63 282.78C1795.07 296.66 1764.5 311.03 1733.36 324.32C1684.2 345.31 1642.84 361.33 1603.2 374.72C1554.31 391.24 1508.56 403.54 1463.35 412.33C1454.07 414.14 1444.69 415.81 1435.48 417.32C1387.46 425.15 1340.31 429.11 1295.21 429.11C1292.69 429.11 1290.21 429.1 1287.72 429.07C1235.56 428.56 1187.03 422.66 1143.44 411.53C1122.41 406.13 1101.8 399.27 1082.21 391.15C1063.8 383.51 1045.69 374.52 1028.42 364.42C997.34 346.25 968.28 324.33 939.6 297.42C938.37 296.26 937.14 295.1 935.92 293.94C919.28 278.06 903.54 261.46 888.31 245.41C879.52 236.15 870.43 226.56 861.28 217.24C833.1 188.5 809.23 167.3 783.87 148.49C780.46 145.96 776.95 143.42 773.42 140.95C709.24 95.92 626.29 60.16 533.56 37.53C421.76 10.28 308.56 3.33 214.82 17.94C119.51 32.84 23.84 81.87 25.4 146.75L25.03 146.75C24.31 116.53 44.24 87.79 82.68 63.65C100.06 52.73 120.57 43.17 143.67 35.21C166.15 27.46 190.05 21.58 214.72 17.72C264.19 10.01 318.59 8.22 376.4 12.4C428.33 16.16 481.26 24.55 533.7 37.33C626.49 59.97 709.48 95.75 773.7 140.81C777.23 143.28 780.75 145.82 784.16 148.35C809.53 167.17 833.41 188.38 861.6 217.13C870.75 226.45 879.84 236.04 888.63 245.3C903.85 261.35 919.59 277.95 936.23 293.82C937.45 294.99 938.68 296.15 939.91 297.3C1000.86 354.49 1067.48 391.79 1143.59 411.33C1249 438.24 1360.45 429.33 1435.38 417.11C1444.59 415.6 1453.96 413.93 1463.24 412.12C1567.22 391.91 1662.1 354.48 1733.15 324.14C1764.29 310.85 1794.85 296.49 1824.4 282.6C1883.37 254.9 1944.33 226.25 2010.71 205.96C2039.04 197.28 2064.69 191.96 2089.1 189.68C2119.22 186.86 2146.92 188.95 2171.44 195.88C2192.1 201.73 2212.48 211.12 2233.72 224.6C2252.44 236.48 2269.35 249.86 2285.7 262.8C2295.44 270.5 2304.62 277.78 2313.89 284.51C2405.79 351.45 2499.87 420.65 2593.56 490.2L2593.27 490.34Z"
			fill="#FFE492" fill-opacity="1.000000" fill-rule="nonzero" />
		<path id="Vector"
			d="M2589.38 488.26L2315.14 280.31C2306.19 273.52 2297.3 266.13 2287.87 258.31C2256.81 232.5 2221.58 203.24 2175.53 190.41C2131 177.99 2076.94 182.72 2014.83 204.45C1955.13 225.34 1900.68 253.12 1848.02 279.98C1813.7 297.49 1778.2 315.6 1741.74 331.53C1632.13 379.43 1536.33 407.72 1440.28 420.57C1400.43 425.89 1361.11 428.57 1322.99 428.57C1311.43 428.57 1299.99 428.33 1288.68 427.83C1235.3 425.51 1186.02 417.69 1142.21 404.61C1101.6 392.48 1064.46 375.36 1028.66 352.26C1000.07 333.82 972.66 311.83 942.42 283.07C926.45 267.89 911 252.11 896.05 236.86C862.21 202.34 827.23 166.65 783.92 135.24C717.48 87.06 630.28 49.27 531.73 25.97C419.22 -0.64 305.71 -6.84 212.12 8.5C121.51 23.36 23.17 70.21 21.36 137.97L20.99 137.96C21.8 107.68 42.36 78.94 80.44 54.87C114.88 33.1 161.61 16.56 212.03 8.29C261.44 0.19 315.9 -1.99 373.87 1.81C425.93 5.22 479.09 13.28 531.87 25.76C580.63 37.29 626.94 52.47 669.51 70.88C712.45 89.44 751.03 111.04 784.19 135.09C827.53 166.52 862.52 202.22 896.36 236.74C911.31 251.99 926.77 267.76 942.73 282.94C986.86 324.91 1049.43 376.65 1142.37 404.41C1248.94 436.24 1363.15 430.65 1440.19 420.35C1536.21 407.51 1631.96 379.23 1741.52 331.35C1777.97 315.42 1813.46 297.32 1847.78 279.81C1900.45 252.94 1954.92 225.15 2014.65 204.25C2076.86 182.49 2131.04 177.76 2175.69 190.2C2196.31 195.95 2216.49 205.43 2237.39 219.18C2255.8 231.28 2272.26 244.96 2288.18 258.18C2297.59 266 2306.49 273.39 2315.44 280.17L2589.68 488.12L2589.38 488.26Z"
			fill="#FFE492" fill-opacity="1.000000" fill-rule="nonzero" />
		<path id="Vector"
			d="M2587.18 472.27C2517.35 414.37 2457.43 367.39 2398.62 324.42C2370.08 303.54 2340.92 283 2311.97 263.35C2303.21 257.4 2294.53 251.08 2285.35 244.39C2262.27 227.56 2238.39 210.16 2210.93 197.25C2196.18 190.31 2181.98 185.34 2167.52 182.05C2123.13 171.87 2071.07 178.6 2012.75 202.06C1982.57 214.18 1955.09 227.98 1932.19 239.88C1907.95 252.47 1884.03 266.36 1860.9 279.79C1827.66 299.09 1793.28 319.06 1756.33 336.2C1733.84 346.66 1711.05 356.01 1688.58 363.99C1643.62 379.95 1595.36 393.1 1545.15 403.08C1514.13 409.17 1482.95 413.78 1452.5 416.77C1426.26 419.34 1399.96 420.82 1374.35 421.17C1336.01 421.71 1298.66 419.67 1263.32 415.13C1225.77 410.29 1190.22 402.58 1157.68 392.19C1128.66 382.93 1101.25 371.27 1073.88 356.54C1022.88 329.12 982.21 297.41 952.47 272.84C937.86 260.72 923.6 248.36 909.8 236.4C870.08 201.97 832.56 169.45 785.61 140.48C747.32 117.01 703.63 96.76 655.74 80.28C618.94 67.61 578.92 57.26 536.79 49.49C526.75 47.65 516.53 45.92 506.4 44.38C462.82 37.75 413.75 33.43 360.56 31.54C306.94 29.6 260.55 31.28 218.75 36.7C195.12 39.73 172.22 44.5 150.69 50.86C74.67 73.31 25.85 111.01 20.11 151.69L19.65 151.67C21.18 140.82 25.68 130.14 33.01 119.91C39.97 110.2 49.54 100.83 61.44 92.06C83.93 75.51 114.72 61.17 150.49 50.61C172.05 44.24 194.99 39.47 218.66 36.42C260.5 31.01 306.93 29.32 360.59 31.27C413.81 33.15 462.9 37.48 506.52 44.11C516.65 45.66 526.88 47.38 536.92 49.23C579.09 57 619.15 67.36 655.97 80.04C703.89 96.53 747.62 116.8 785.93 140.29C832.91 169.27 870.43 201.8 910.17 236.24C923.96 248.2 938.23 260.56 952.83 272.68C982.55 297.23 1023.21 328.93 1074.18 356.33C1101.52 371.05 1128.9 382.7 1157.89 391.95C1221.57 412.27 1294.4 422.01 1374.33 420.9C1399.93 420.54 1426.2 419.06 1452.43 416.5C1482.86 413.51 1514.01 408.9 1545 402.81C1595.19 392.84 1643.41 379.7 1688.34 363.75C1710.8 355.78 1733.58 346.43 1756.04 335.98C1792.98 318.85 1827.35 298.89 1860.58 279.59C1883.71 266.16 1907.63 252.26 1931.89 239.66C1954.8 227.76 1982.29 213.96 2012.5 201.83C2038.46 191.38 2063.6 184.17 2087.22 180.38C2116.24 175.73 2143.31 176.2 2167.68 181.79C2182.19 185.09 2196.42 190.08 2211.21 197.04C2238.72 209.97 2262.6 227.37 2285.7 244.21C2294.88 250.9 2303.56 257.22 2312.31 263.16C2341.27 282.82 2370.43 303.37 2398.98 324.25C2457.79 367.22 2517.71 414.21 2587.55 472.11L2587.18 472.27Z"
			fill="#FFE492" fill-opacity="1.000000" fill-rule="nonzero" />
		<path id="Vector"
			d="M2584.97 456.28C2520.22 397.4 2459.46 348.13 2399.19 305.66C2369.81 284.91 2339.38 264.97 2308.79 246.38C2300.67 241.45 2292.65 236.33 2284.17 230.9C2258.76 214.66 2232.48 197.86 2203.05 186.24C2188.19 180.35 2173.95 176.24 2159.51 173.69C2104.22 163.93 2048.06 182.43 2010.67 199.67C1984.19 211.85 1960 225.62 1935.49 239.83C1914.05 252.27 1893.87 265.66 1872.51 279.82C1840.8 300.85 1808.02 322.6 1770.92 340.86C1748.9 351.76 1725.92 361.18 1702.62 368.86C1659.22 383.17 1611.7 394.29 1557.33 402.84C1526.9 407.63 1495.75 411.04 1464.72 412.97C1438.54 414.59 1412.41 415.16 1387.04 414.68C1349.31 413.97 1312.43 410.78 1277.42 405.21C1240.65 399.35 1205.56 390.79 1173.14 379.77C1144.73 370.11 1117.3 358.14 1089.28 343.15C1038.39 315.97 994.8 285.84 962.51 262.62C950.56 254.03 938.8 245.38 927.42 237.01C882.12 203.7 839.32 172.24 787.3 145.73C748.42 125.92 704.77 109.16 657.57 95.94C621.86 85.93 584.01 78.43 541.86 73.02C532.13 71.77 522.23 70.64 512.45 69.67C469.46 65.43 423.58 63.83 368.08 62.17C328.06 60.91 275.69 60.08 225.37 64.88C201.54 67.12 178.5 70.99 156.89 76.4C80.82 95.45 29.22 128.73 18.85 165.42L18.31 165.36C21.06 155.63 26.62 146.09 34.85 137C42.69 128.33 52.99 120.02 65.47 112.3C89.18 97.62 120.72 85.1 156.68 76.1C178.33 70.68 201.41 66.79 225.28 64.56C275.65 59.75 328.06 60.58 368.1 61.83C423.63 63.49 469.52 65.1 512.53 69.34C522.33 70.31 532.23 71.44 541.97 72.69C584.16 78.11 622.05 85.62 657.8 95.63C705.05 108.87 748.74 125.64 787.66 145.47C839.72 172 882.53 203.47 927.85 236.8C939.22 245.16 950.98 253.81 962.93 262.4C995.21 285.61 1038.79 315.73 1089.65 342.9C1117.63 357.87 1145.03 369.83 1173.41 379.48C1237.16 401.15 1309.05 412.88 1387.06 414.35C1412.4 414.83 1438.51 414.25 1464.66 412.64C1495.66 410.71 1526.79 407.3 1557.19 402.52C1611.51 393.97 1659 382.87 1702.36 368.57C1725.63 360.89 1748.58 351.48 1770.57 340.6C1807.64 322.36 1840.41 300.62 1872.11 279.6C1893.48 265.42 1913.66 252.04 1935.12 239.59C1959.63 225.37 1983.83 211.59 2010.34 199.4C2034.58 188.22 2058.48 180.18 2081.38 175.5C2109.17 169.82 2135.51 169.11 2159.67 173.37C2174.15 175.93 2188.45 180.05 2203.36 185.96C2232.84 197.6 2259.13 214.41 2284.58 230.67C2293.06 236.09 2301.08 241.21 2309.19 246.14C2339.8 264.74 2370.22 284.69 2399.62 305.44C2459.88 347.93 2520.68 397.21 2585.43 456.1L2584.97 456.28Z"
			fill="#FFE492" fill-opacity="1.000000" fill-rule="nonzero" />
		<path id="Vector"
			d="M2582.76 440.29C2522.15 379.64 2462.31 329.46 2399.77 286.9C2369.53 266.28 2337.85 246.94 2305.62 229.42C2298.73 225.67 2291.62 221.7 2284.77 217.85C2256.45 201.97 2227.15 185.55 2195.18 175.23C2180.17 170.35 2165.87 167.12 2151.51 165.34C2096.33 158.52 2043.34 178.94 2008.59 197.27C1985.05 209.65 1963.52 223.68 1942.7 237.24L1938.8 239.78C1919.9 252.09 1902.17 265.59 1883.4 279.88C1853.5 302.64 1822.59 326.18 1785.51 345.53C1763.93 356.87 1740.77 366.36 1716.67 373.73C1674.65 386.59 1627.88 395.77 1569.5 402.61C1539.31 406.14 1508.17 408.35 1476.93 409.17C1450.81 409.83 1424.84 409.5 1399.73 408.19C1323.7 404.23 1252.66 390.49 1188.59 367.35C1160.89 357.35 1133.43 345.05 1104.68 329.76C1056.01 303.93 1012.72 277.38 972.56 252.4C967.17 249.05 961.85 245.73 956.56 242.43C901.7 208.2 849.89 175.87 789.01 150.98C749.26 134.74 705.65 121.49 659.41 111.6C625.46 104.35 588.66 99.42 546.93 96.54C537.52 95.9 527.96 95.37 518.49 94.97C494.68 93.98 469.43 93.81 442.69 93.65C421.22 93.51 399.01 93.37 375.58 92.79C330.33 91.59 279.04 90.23 231.98 93.08C207.7 94.55 184.52 97.54 163.1 101.95C87.05 117.63 32.66 146.49 17.59 179.16L16.97 179.06C20.94 170.44 27.58 162.04 36.7 154.08C45.42 146.47 56.45 139.22 69.5 132.53C94.45 119.74 126.74 109.04 162.88 101.59C184.36 97.16 207.58 94.17 231.91 92.69C279.02 89.84 330.33 91.2 375.61 92.41C399.02 92.98 421.23 93.12 442.69 93.26C469.44 93.43 494.7 93.59 518.53 94.58C528 94.99 537.58 95.52 546.99 96.16C588.78 99.04 625.62 103.98 659.61 111.24C705.91 121.14 749.57 134.4 789.36 150.66C850.31 175.57 902.14 207.92 957.02 242.16C962.3 245.46 967.63 248.79 973.02 252.14C1013.18 277.11 1056.44 303.65 1105.1 329.47C1133.82 344.75 1161.25 357.03 1188.92 367.02C1252.91 390.13 1323.86 403.85 1399.78 407.81C1424.87 409.12 1450.81 409.45 1476.9 408.79C1508.1 407.97 1539.22 405.77 1569.37 402.23C1627.69 395.4 1674.41 386.23 1716.37 373.39C1740.43 366.03 1763.54 356.56 1785.08 345.24C1822.12 325.91 1853.01 302.4 1882.89 279.65C1901.67 265.35 1919.41 251.84 1938.33 239.53L1942.22 236.99C1963.05 223.41 1984.59 209.38 2008.17 196.99C2043.02 178.6 2096.2 158.11 2151.62 164.96C2166.07 166.75 2180.4 170 2195.48 174.9C2227.53 185.24 2256.85 201.68 2285.21 217.57C2292.06 221.42 2299.15 225.39 2306.04 229.14C2338.29 246.67 2369.98 266.02 2400.24 286.65C2462.81 329.23 2522.68 379.42 2583.3 440.1L2582.76 440.29Z"
			fill="#FFE492" fill-opacity="1.000000" fill-rule="nonzero" />
		<path id="Vector"
			d="M2580.55 424.3C2524.9 362.73 2464.28 310.19 2400.34 268.15C2369.26 247.66 2336.32 228.92 2302.45 212.46C2297.56 210.08 2292.55 207.61 2287.7 205.23C2255.69 189.46 2222.59 173.16 2187.33 164.22C2172.19 160.35 2157.86 157.98 2143.52 156.98C2088.5 153.17 2038.65 175.49 2006.52 194.88C1986.57 206.86 1968.57 220.18 1951.15 233.07C1948.14 235.3 1945.13 237.52 1942.11 239.74C1925.55 251.92 1910.06 265.52 1893.66 279.92C1865.79 304.4 1836.96 329.72 1800.1 350.19C1778.45 362.21 1755.76 371.51 1730.71 378.61C1678.32 393.46 1625.97 398.96 1581.67 402.38C1551.7 404.69 1520.57 405.7 1489.14 405.38C1463.1 405.09 1437.29 403.85 1412.42 401.7C1338.67 395.36 1268.56 379.62 1204.05 354.93C1177.19 344.66 1149.74 332.05 1120.07 316.37C1090.13 300.57 1062.22 285.37 1035.22 270.67C1016.88 260.68 999.54 251.24 982.62 242.19C918.64 207.96 860.04 177.87 790.72 156.24C750.12 143.57 706.56 133.82 661.25 127.27C628.77 122.57 594.06 120.29 552.01 120.07C542.94 120.03 533.7 120.09 524.55 120.26C510.65 120.53 496.27 121.1 481.06 121.7C451.85 122.85 418.75 124.15 383.09 123.42C369.51 123.14 355.66 122.75 342.26 122.37C307.79 121.38 272.16 120.37 238.59 121.27C213.93 121.94 190.61 124.04 169.29 127.5C93.37 139.84 36.19 164.29 16.31 192.91L15.64 192.74C20.84 185.25 28.55 177.99 38.55 171.16C48.15 164.6 59.92 158.41 73.52 152.75C99.73 141.86 132.78 132.98 169.09 127.08C190.47 123.61 213.84 121.5 238.55 120.83C272.16 119.92 307.81 120.94 342.29 121.93C355.68 122.31 369.54 122.7 383.11 122.98C418.74 123.71 451.82 122.41 481 121.26C496.23 120.66 510.61 120.09 524.52 119.82C533.68 119.65 542.93 119.59 552.01 119.63C594.12 119.85 628.89 122.14 661.42 126.84C706.78 133.41 750.4 143.16 791.06 155.85C822.37 165.62 854.1 178 888.06 193.69C918.47 207.74 948.04 223.11 983.1 241.86C1000.03 250.92 1017.36 260.35 1035.71 270.35C1062.69 285.05 1090.61 300.25 1120.56 316.04C1150.18 331.7 1177.62 344.3 1204.43 354.56C1268.86 379.22 1338.87 394.94 1412.51 401.27C1437.36 403.41 1463.14 404.65 1489.14 404.94C1520.54 405.27 1551.64 404.26 1581.56 401.94C1625.81 398.53 1678.1 393.04 1730.39 378.21C1755.37 371.13 1778.01 361.86 1799.6 349.87C1836.39 329.43 1865.2 304.14 1893.05 279.67C1909.46 265.26 1924.95 251.65 1941.54 239.46C1944.55 237.25 1947.56 235.02 1950.57 232.79C1968 219.9 1986.02 206.57 2005.99 194.57C2026.9 181.96 2048.34 172.25 2069.73 165.73C2095.07 158 2119.92 154.91 2143.59 156.55C2158 157.55 2172.39 159.93 2187.6 163.82C2222.95 172.78 2256.1 189.11 2288.14 204.89C2293 207.28 2298.01 209.74 2302.88 212.12C2336.79 228.59 2369.75 247.35 2400.86 267.85C2434.81 290.18 2468.06 315.61 2499.68 343.45C2527.62 368.05 2555.05 395.19 2581.17 424.09L2580.55 424.3Z"
			fill="#FFE492" fill-opacity="1.000000" fill-rule="nonzero" />
		<path id="Vector"
			d="M2578.33 408.3C2526.84 344.96 2467.14 291.5 2400.92 249.39C2368.98 229.03 2334.79 210.9 2299.29 195.5C2297.6 194.76 2295.9 194.03 2294.22 193.3C2257.3 177.26 2219.12 160.68 2179.49 153.22C2164.12 150.32 2149.75 148.82 2135.55 148.63C2080.75 147.89 2034.02 172.07 2004.47 192.48C1987.08 204.42 1971.64 217.51 1956.71 230.17C1953.02 233.3 1949.2 236.53 1945.44 239.69C1931.09 251.69 1917.75 265.34 1903.62 279.8C1877.94 306.09 1851.38 333.27 1814.71 354.85C1793.49 367.34 1770.61 376.71 1744.76 383.49C1693.84 396.84 1642.13 400.35 1593.84 402.15C1564.06 403.26 1532.94 403.07 1501.34 401.59C1475.4 400.33 1449.75 398.19 1425.11 395.21C1353.87 386.62 1284.68 368.9 1219.51 342.51C1193.4 331.95 1166.71 319.39 1135.5 302.98C1076.18 271.89 1032.15 249.99 992.7 231.98C914.24 196.15 854.36 175.07 792.48 161.5C751.05 152.41 707.53 146.17 663.12 142.94C632.32 140.69 599.62 140.89 557.12 143.59C548.41 144.15 539.5 144.81 530.63 145.55C522.26 146.26 513.75 147.08 504.74 147.94C471.47 151.12 433.77 154.72 390.61 154.05C367.87 153.7 344.63 152.72 322.17 151.79C296.63 150.72 270.23 149.62 245.2 149.47C220.1 149.32 196.64 150.53 175.48 153.06C99.82 162.11 39.84 182.15 15.04 206.67L14.34 206.41C20.78 200.04 29.56 193.93 40.43 188.23C50.92 182.73 63.42 177.6 77.57 172.97C105.05 163.99 138.86 156.93 175.32 152.57C196.53 150.03 220.05 148.82 245.2 148.97C270.26 149.12 296.67 150.23 322.22 151.29C344.68 152.23 367.9 153.2 390.63 153.56C433.71 154.23 471.38 150.63 504.6 147.45C513.62 146.59 522.13 145.78 530.51 145.06C539.39 144.32 548.31 143.66 557.03 143.1C599.59 140.4 632.34 140.2 663.22 142.45C707.68 145.68 751.26 151.94 792.75 161.04C854.72 174.63 914.66 195.73 993.19 231.59C1032.65 249.61 1076.71 271.51 1136.03 302.61C1167.22 319 1193.89 331.55 1219.96 342.1C1285.06 368.45 1354.13 386.16 1425.26 394.73C1449.87 397.7 1475.49 399.84 1501.4 401.1C1532.96 402.58 1564.04 402.76 1593.78 401.66C1642 399.86 1693.62 396.36 1744.43 383.04C1770.18 376.28 1792.98 366.95 1814.12 354.51C1850.71 332.97 1877.25 305.82 1902.91 279.55C1917.04 265.09 1930.39 251.43 1944.76 239.41C1948.53 236.25 1952.35 233.02 1956.03 229.89C1970.97 217.22 1986.42 204.12 2003.84 192.16C2023.12 178.84 2043.34 168.3 2063.93 160.84C2088.05 152.1 2112.14 147.83 2135.56 148.14C2149.85 148.34 2164.29 149.84 2179.73 152.75C2219.5 160.24 2257.73 176.84 2294.7 192.9C2296.38 193.64 2298.08 194.37 2299.77 195.1C2335.31 210.52 2369.54 228.67 2401.51 249.06C2467.8 291.2 2527.54 344.71 2579.07 408.09L2578.33 408.3Z"
			fill="#FFE492" fill-opacity="1.000000" fill-rule="nonzero" />
		<path id="Vector"
			d="M1612.07 401.92C1610.01 401.92 1607.99 401.92 1605.99 401.91C1576.37 401.84 1545.26 400.45 1513.54 397.79C1487.69 395.57 1462.2 392.52 1437.79 388.71C1402.91 383.29 1367.9 375.48 1333.73 365.53C1300.74 355.91 1267.51 343.99 1234.97 330.09C1203.07 316.47 1173.29 301.29 1150.91 289.59C1098.53 262.29 1048.68 239.47 1002.78 221.77C928.41 193.09 862.15 175.61 794.23 166.75C753.26 161.41 709.3 158.59 666.97 158.59C666.31 158.59 665.66 158.59 665 158.6C628.64 158.67 594.12 162.73 562.24 167.11C553.94 168.25 545.35 169.51 536.72 170.83C531.99 171.57 527.25 172.33 522.24 173.13C486.89 178.79 446.81 185.2 398.13 184.67C368.48 184.35 338.2 182.51 308.91 180.72C290 179.57 270.45 178.38 251.8 177.66C226.16 176.67 202.57 176.99 181.67 178.6C106.41 184.42 43.63 200.06 13.74 220.44L13.05 220.08C28.38 209.63 51.45 200.58 81.6 193.18C110.4 186.12 144.97 180.89 181.55 178.06C202.51 176.44 226.16 176.12 251.86 177.11C270.52 177.83 290.09 179.02 309 180.18C338.27 181.96 368.54 183.81 398.15 184.13C446.71 184.65 486.71 178.25 522 172.6C527.02 171.8 531.76 171.04 536.49 170.31C545.13 168.98 553.72 167.72 562.03 166.58C593.97 162.19 628.55 158.13 665 158.05C708 157.96 752.75 160.79 794.43 166.22C829.48 170.79 863.46 177.52 898.31 186.8C931.87 195.73 966.21 207.01 1003.27 221.31C1049.21 239.03 1099.09 261.86 1151.5 289.18C1173.87 300.88 1203.63 316.04 1235.49 329.65C1301.53 357.85 1369.67 377.55 1438.02 388.19C1462.4 391.99 1487.85 395.04 1513.67 397.25C1545.35 399.91 1576.41 401.29 1605.99 401.37C1652.28 401.48 1706.03 400.54 1758.46 387.85C1784.99 381.43 1807.95 372.04 1828.64 359.14C1864.98 336.49 1889.06 307.41 1912.36 279.3C1924.35 264.83 1935.67 251.17 1947.97 239.35C1951.92 235.56 1955.9 231.65 1959.74 227.88C1972.74 215.12 1986.18 201.94 2001.67 189.75C2019.36 175.73 2038.35 164.35 2058.11 155.94C2081.01 146.19 2104.36 140.74 2127.5 139.73C2141.79 139.11 2156.29 139.74 2171.83 141.68C2213.37 146.84 2254.57 161.85 2296.62 178.08C2333.28 192.24 2369.77 210.28 2402.13 230.26C2438.1 252.38 2471.88 278.33 2502.56 307.39C2529.87 333.28 2554.9 361.78 2576.95 392.1L2576.11 392.32C2528.78 327.21 2470.03 272.81 2401.49 230.64C2369.15 210.7 2332.73 192.68 2296.12 178.55C2254.14 162.34 2213.04 147.36 2171.63 142.22C2156.19 140.29 2141.77 139.66 2127.57 140.28C2085.04 142.14 2040.59 159.82 2002.4 190.08C1986.94 202.25 1973.51 215.43 1960.52 228.17C1956.68 231.95 1952.69 235.85 1948.75 239.64C1936.47 251.44 1925.15 265.09 1913.18 279.54C1901.75 293.34 1889.93 307.6 1876.37 321.32C1860.99 336.87 1845.6 349.36 1829.3 359.52C1808.52 372.48 1785.46 381.91 1758.8 388.37C1735.29 394.06 1710.02 397.82 1681.55 399.87C1657.43 401.6 1633.22 401.92 1612.07 401.92Z"
			fill="#FFE492" fill-opacity="1.000000" fill-rule="nonzero" />
		<path id="Vector"
			d="M1670.82 403.02C1652.14 403.02 1634.19 402.35 1618.14 401.68C1588.62 400.43 1557.52 397.84 1525.73 393.99C1499.98 390.82 1474.66 386.86 1450.45 382.22C1384.18 369.53 1318.74 348.41 1250.41 317.66C1220.61 304.25 1192.52 289.83 1166.31 276.2C1114.56 249.38 1062.93 227.63 1012.85 211.55C939.2 187.91 870.3 175.35 796 172C753.66 170.1 709.02 170.88 666.89 174.25C631.63 177.07 598.39 183.88 567.35 190.61C559.59 192.31 551.33 194.16 542.81 196.11C540.68 196.6 538.53 197.1 536.36 197.6C500.61 205.91 460.17 215.3 408.27 215.3C407.39 215.3 406.52 215.3 405.64 215.29C370.52 215.08 334.67 212.07 299.99 209.15C286.24 208 272.03 206.81 258.39 205.84C231.74 203.95 208.67 203.4 187.84 204.14C112.07 206.85 48.13 217.8 12.39 234.2L11.78 233.72C29.45 225.61 54.99 218.58 85.64 213.37C115.79 208.25 151.1 204.85 187.77 203.54C208.66 202.79 231.8 203.35 258.5 205.24C272.16 206.2 286.38 207.4 300.13 208.55C334.77 211.46 370.59 214.47 405.64 214.68C458.62 215.01 499.73 205.46 535.99 197.03C538.16 196.53 540.31 196.03 542.44 195.54C550.96 193.58 559.23 191.73 567 190.04C598.08 183.3 631.39 176.48 666.75 173.64C708.94 170.27 753.66 169.49 796.06 171.39C832.88 173.05 867.99 176.96 903.38 183.34C939.84 189.92 975.79 198.97 1013.32 211.01C1063.46 227.11 1115.15 248.89 1166.94 275.74C1193.16 289.36 1221.23 303.78 1251 317.17C1319.24 347.88 1384.58 368.97 1450.75 381.63C1474.92 386.27 1500.21 390.22 1525.92 393.39C1557.67 397.24 1588.72 399.82 1618.2 401.06C1667.8 403.15 1720.57 404.23 1772.48 392.66C1799.8 386.57 1822.91 377.11 1843.15 363.76C1879.19 339.97 1901.63 307.52 1921.42 278.89C1931.38 264.48 1940.79 250.87 1951.17 239.28C1954.92 235.09 1958.69 230.77 1962.33 226.58C1973.74 213.5 1985.53 199.96 1999.48 187.33C2015.63 172.6 2033.39 160.39 2052.28 151.03C2073.97 140.28 2096.56 133.64 2119.43 131.3C2133.72 129.84 2148.28 129.61 2163.92 130.58C2207.61 133.32 2252 146.84 2293.46 161.05C2331.75 174.16 2369.54 191.59 2402.77 211.44C2439.73 233.46 2473.78 259.67 2503.98 289.34C2530.98 315.88 2554.82 345.06 2574.83 376.08L2573.88 376.3C2531.36 310.36 2471.94 253.5 2402.06 211.87C2368.89 192.05 2331.18 174.66 2292.97 161.57C2251.6 147.4 2207.33 133.91 2163.82 131.18C2148.27 130.21 2133.81 130.45 2119.61 131.9C2077.37 136.22 2035.02 156.02 2000.33 187.66C1986.4 200.27 1974.62 213.79 1963.23 226.86C1959.59 231.04 1955.81 235.37 1952.07 239.56C1941.71 251.13 1932.31 264.73 1922.36 279.12C1902.53 307.79 1880.06 340.29 1843.89 364.16C1823.55 377.59 1800.3 387.1 1772.83 393.22C1749 398.54 1723.28 401.61 1694.21 402.62C1686.36 402.91 1678.53 403.02 1670.82 403.02Z"
			fill="#FFE492" fill-opacity="1.000000" fill-rule="nonzero" />
		<path id="Vector"
			d="M1707.7 405.41C1707.43 405.41 1707.17 405.41 1706.9 405.41C1680.5 405.37 1654.58 403.43 1630.28 401.44C1600.81 399.03 1569.73 395.24 1537.92 390.18C1512.29 386.07 1487.13 381.2 1463.13 375.72C1399.5 361.22 1336.82 338.83 1265.86 305.24C1240.31 293.15 1215.17 280.13 1190.84 267.54C1187.8 265.96 1184.76 264.39 1181.71 262.81C1129.68 236 1076.28 215.32 1022.95 201.35C949.92 182.22 876.26 174.34 797.78 177.25C754.75 178.86 710.15 183.23 668.8 189.9C636.17 195.17 607.1 203.62 572.48 214.12C565.47 216.26 557.97 218.57 548.91 221.39L548.4 221.54C530.92 227.02 511.09 233.22 488.86 237.93C463.33 243.35 438.55 245.95 413.15 245.92C373.54 245.86 333.11 241.44 294.02 237.15C284.44 236.1 274.54 235.01 264.97 234.03C237.55 231.22 214.33 229.8 194 229.69C119.14 229.3 52.45 235.96 11.03 247.98L10.55 247.38C30.84 241.5 58.21 236.72 89.69 233.57C121.23 230.41 157.31 228.84 194.01 229.03C214.4 229.14 237.68 230.56 265.16 233.38C274.73 234.36 284.64 235.45 294.22 236.5C333.26 240.78 373.64 245.2 413.15 245.26C413.33 245.26 413.51 245.26 413.69 245.26C470.21 245.26 513.27 231.79 547.9 220.96L548.41 220.8C557.48 217.98 564.97 215.67 571.99 213.54C606.67 203.02 635.79 194.55 668.51 189.27C709.93 182.58 754.61 178.2 797.72 176.6C836.12 175.17 872.35 176.26 908.47 179.93C947.4 183.88 984.99 190.69 1023.39 200.74C1076.81 214.74 1130.32 235.45 1182.43 262.31C1185.48 263.89 1188.52 265.47 1191.56 267.04C1215.87 279.63 1241.01 292.64 1266.54 304.73C1337.4 338.27 1399.99 360.63 1463.52 375.11C1487.48 380.58 1512.61 385.44 1538.2 389.55C1569.97 394.61 1601 398.39 1630.43 400.79C1683.15 405.1 1734.75 408.09 1786.53 397.49C1814.62 391.73 1837.9 382.22 1857.67 368.41C1893.39 343.45 1912.91 308.87 1930.13 278.36C1938.19 264.07 1945.8 250.58 1954.39 239.24C1957.7 234.88 1961.01 230.36 1964.22 226C1974.24 212.35 1984.61 198.24 1997.32 184.93C2011.95 169.5 2028.49 156.45 2046.46 146.15C2066.96 134.4 2088.79 126.58 2111.37 122.91C2125.37 120.63 2139.65 119.52 2155.01 119.52C2155.34 119.52 2155.68 119.52 2156.01 119.53C2203.74 119.68 2252.86 132.7 2290.32 144.04C2330.22 156.11 2369.33 172.92 2403.4 192.65C2441.37 214.57 2475.7 241.03 2505.42 271.32C2532.09 298.5 2554.74 328.37 2572.72 360.09L2571.68 360.31C2544.92 313.1 2493.86 245.78 2402.64 193.13C2368.64 173.44 2329.62 156.67 2289.82 144.63C2252.47 133.32 2203.51 120.33 2156.01 120.19C2140.37 120.13 2125.87 121.24 2111.65 123.55C2069.83 130.35 2029.56 152.27 1998.27 185.26C1985.59 198.54 1975.24 212.63 1965.22 226.26C1962.02 230.63 1958.7 235.15 1955.39 239.51C1946.83 250.82 1939.22 264.3 1931.17 278.57C1913.92 309.14 1894.37 343.78 1858.51 368.84C1838.6 382.74 1815.17 392.32 1786.88 398.11C1762.91 403.02 1737 405.41 1707.7 405.41Z"
			fill="#FFE492" fill-opacity="1.000000" fill-rule="nonzero" />
		<path id="Vector"
			d="M1737.03 408.51C1731.34 408.51 1725.53 408.4 1719.58 408.18C1693.53 407.21 1668.22 404.33 1642.43 401.2C1612.53 397.58 1582.33 392.73 1550.11 386.38C1524.61 381.32 1499.61 375.54 1475.8 369.22C1415.39 353.21 1355.41 329.65 1281.31 292.82C1262.92 283.67 1244.53 274.08 1226.74 264.8C1217.05 259.75 1207.04 254.52 1197.12 249.42C1144.49 222.43 1089.28 202.82 1033.05 191.14C958.74 175.7 882.38 172.88 799.58 182.5C755.83 187.58 711.27 195.55 670.71 205.55C638.13 213.58 609.75 224.85 579.7 236.79L577.63 237.62C572.93 239.49 568.19 241.39 563.38 243.31C560.62 244.42 557.83 245.53 555.02 246.65C537.5 253.69 518.58 261.03 496.87 266.68C471.68 273.24 446.75 276.47 420.67 276.55C377.25 276.68 332.97 270.61 290.14 264.74C284.03 263.91 277.71 263.04 271.57 262.22C242.8 258.37 220.11 256.15 200.17 255.24C126.59 251.88 57.15 254.25 9.65 261.74L9.35 261.05C56.97 253.54 126.55 251.16 200.26 254.53C220.26 255.44 243 257.66 271.83 261.52C277.97 262.35 284.29 263.21 290.41 264.05C332.71 269.85 376.44 275.84 419.28 275.84C419.74 275.84 420.2 275.84 420.67 275.83C476.08 275.67 515.53 261.65 554.37 246.06C557.18 244.93 559.96 243.82 562.73 242.71C567.53 240.79 572.27 238.9 576.97 237.02L579.05 236.2C609.15 224.24 637.58 212.94 670.26 204.88C710.89 194.87 755.53 186.88 799.35 181.79C882.36 172.15 958.93 174.98 1033.43 190.46C1089.81 202.17 1145.15 221.82 1197.9 248.88C1207.81 253.98 1217.82 259.2 1227.52 264.26C1245.3 273.53 1263.68 283.12 1282.07 292.26C1356.08 329.06 1415.98 352.59 1476.28 368.57C1500.06 374.88 1525.02 380.64 1550.48 385.7C1582.65 392.04 1612.81 396.88 1642.67 400.5C1687.99 405.99 1744.4 412.83 1800.57 402.3C1829.45 396.89 1852.88 387.31 1872.19 373.04C1907.57 346.88 1923.97 310.1 1938.45 277.65C1944.74 263.55 1950.68 250.24 1957.61 239.19C1960.31 234.88 1963.02 230.43 1965.63 226.12C1974.41 211.67 1983.49 196.73 1995.15 182.53C2008.3 166.38 2023.61 152.49 2040.64 141.25C2059.94 128.5 2081.03 119.51 2103.3 114.5C2117.6 111.29 2132.25 109.31 2148.1 108.45C2169.32 107.3 2191.9 108.53 2217.15 112.21C2238.52 115.33 2261.42 120.17 2287.17 127.01C2328.7 138.04 2369.11 154.23 2404.04 173.84C2443.02 195.66 2477.61 222.39 2506.85 253.29C2533.18 281.12 2554.63 311.67 2570.61 344.09L2569.47 344.3C2535.74 275.84 2476.7 215.49 2403.23 174.37C2368.38 154.81 2328.09 138.66 2286.68 127.66C2231.2 112.93 2187.21 107.05 2148.21 109.17C2132.47 110.02 2117.92 111.99 2103.72 115.17C2050.72 127.08 2016 158.54 1996.22 182.84C1984.59 197.01 1975.52 211.93 1966.75 226.36C1964.13 230.67 1961.42 235.13 1958.72 239.44C1951.81 250.46 1945.88 263.76 1939.6 277.84C1925.1 310.36 1908.66 347.22 1873.11 373.49C1853.65 387.88 1830.03 397.53 1800.92 402.98C1781.19 406.68 1760.15 408.51 1737.03 408.51Z"
			fill="#FFE492" fill-opacity="1.000000" fill-rule="nonzero" />
		<path id="Vector"
			d="M1762.43 412.06C1723.68 412.06 1686.43 406.08 1654.56 400.96C1624.58 396.15 1594.4 390.14 1562.28 382.58C1536.93 376.57 1512.09 369.89 1488.46 362.72C1417.62 341.27 1354.46 310.48 1296.77 280.39C1284.99 274.25 1273.09 267.92 1261.57 261.8C1245.61 253.3 1229.07 244.51 1212.53 236.04C1159.11 208.77 1102.12 190.23 1043.16 180.92C966.88 168.89 887.79 171.12 801.37 187.73C756.88 196.29 712.36 207.85 672.63 221.18C641.99 231.47 616.06 244.44 588.61 258.19C586.67 259.16 584.72 260.14 582.76 261.11L581.7 261.65C575.02 264.99 568.12 268.45 561.13 271.91C544.37 280.26 525.91 288.9 504.57 295.5C479.79 303.16 454.81 306.98 428.19 307.17C381.46 307.52 333.84 299.63 287.79 292C284.57 291.46 281.35 290.93 278.15 290.41C247.79 285.4 225.63 282.43 206.33 280.78C134.6 274.65 62.4 272.72 8.25 275.49L8.14 274.72C62.38 271.95 134.68 273.88 206.51 280.02C225.87 281.67 248.07 284.65 278.49 289.66C281.69 290.19 284.9 290.72 288.13 291.26C334.1 298.87 381.63 306.75 428.17 306.4C485.98 305.97 526.69 288.07 560.31 271.32C567.3 267.85 574.2 264.4 580.87 261.05L581.94 260.52C583.9 259.54 585.85 258.57 587.79 257.59C615.29 243.83 641.26 230.83 672 220.51C711.8 207.16 756.41 195.57 800.98 187C841.95 179.12 880.43 174.57 918.62 173.09C961.23 171.45 1003.23 173.83 1043.48 180.18C1102.63 189.51 1159.78 208.11 1213.36 235.45C1229.92 243.92 1246.44 252.71 1262.43 261.22C1273.93 267.34 1285.82 273.67 1297.6 279.81C1355.24 309.86 1418.32 340.62 1489.03 362.04C1512.63 369.19 1537.43 375.86 1562.75 381.86C1594.81 389.41 1624.95 395.41 1654.89 400.22C1700.86 407.6 1758.07 416.78 1814.6 407.12C1844.26 402.05 1867.84 392.41 1886.69 377.67C1921.71 350.29 1934.81 311.25 1946.37 276.79C1951.01 262.95 1955.4 249.88 1960.81 239.14C1962.81 235.17 1964.82 231.07 1966.76 227.1C1974.36 211.58 1982.22 195.52 1992.96 180.13C2004.66 163.25 2018.73 148.52 2034.79 136.35C2052.9 122.61 2073.24 112.44 2095.21 106.1C2109.48 101.99 2124.18 99.14 2140.15 97.39C2161.69 95.03 2185.58 95.1 2211.17 97.62C2233.57 99.83 2258.07 103.99 2283.99 109.99C2327.13 119.97 2368.86 135.55 2404.65 155.04C2444.64 176.75 2479.51 203.74 2508.27 235.26C2534.25 263.73 2554.52 294.97 2568.49 328.1L2567.24 328.29C2537.63 258.09 2479.6 196.76 2403.8 155.61C2368.12 136.19 2326.53 120.66 2283.53 110.71C2227.79 97.8 2180.97 93.69 2140.38 98.15C2124.53 99.89 2109.93 102.72 2095.77 106.8C2043.49 121.87 2011.65 155.15 1994.15 180.42C1983.43 195.78 1975.58 211.81 1967.99 227.32C1966.05 231.28 1964.04 235.39 1962.04 239.37C1956.65 250.07 1952.26 263.12 1947.63 276.95C1942.06 293.52 1935.76 312.31 1926.61 329.92C1916.13 350.09 1903.4 365.87 1887.71 378.14C1878.64 385.24 1868.21 391.28 1856.71 396.1C1844.35 401.28 1830.3 405.24 1814.95 407.86C1797.38 410.86 1779.75 412.06 1762.43 412.06Z"
			fill="#FFE492" fill-opacity="1.000000" fill-rule="nonzero" />
		<path id="Vector"
			d="M1785.33 415.96C1772.52 415.96 1759.1 415.21 1744.92 413.71C1717 410.77 1690.28 405.43 1666.7 400.72C1636.97 394.78 1605.94 387.4 1574.46 378.77C1549.27 371.83 1524.6 364.24 1501.12 356.22C1433.75 333.22 1375.71 302.65 1312.21 267.97C1306.56 264.88 1300.84 261.74 1295.3 258.7C1273.48 246.72 1250.92 234.34 1227.93 222.65C1173.63 195.06 1114.86 177.59 1053.27 170.71C975.57 162.04 891.42 169.52 803.17 192.96C757.88 204.99 713.4 220.15 674.55 236.82C645.29 249.36 621.2 264.15 595.71 279.81C593.12 281.4 590.51 283 587.9 284.6C581.39 288.6 574.37 292.88 567.24 297.17C552.28 306.2 534.05 316.49 512.27 324.31C487.88 333.07 462.84 337.48 435.71 337.8C386.05 338.39 335.5 328.51 286.6 318.95L284.74 318.59C260.81 313.91 235.49 309.19 212.5 306.32C142.43 297.58 69.4 291.51 6.87 289.23L6.96 288.41C69.55 290.69 142.64 296.76 212.78 305.51C235.83 308.39 261.2 313.12 285.17 317.8L287.03 318.17C335.81 327.7 386.26 337.55 435.68 336.97C492.76 336.3 532.18 317.16 566.27 296.58C573.4 292.3 580.41 288.01 586.92 284.02C589.54 282.42 592.14 280.82 594.73 279.23C620.27 263.54 644.4 248.73 673.75 236.14C712.68 219.45 757.24 204.25 802.61 192.2C844.02 181.21 884.77 173.63 923.72 169.69C968.22 165.18 1011.9 165.25 1053.52 169.9C1115.35 176.8 1174.32 194.33 1228.82 222.01C1251.82 233.72 1274.4 246.11 1296.23 258.09C1301.77 261.13 1307.5 264.27 1313.15 267.35C1376.58 302 1434.56 332.54 1501.81 355.5C1525.25 363.51 1549.89 371.09 1575.04 378.02C1606.48 386.63 1637.46 394.01 1667.14 399.94C1713.66 409.23 1771.56 420.79 1828.65 411.93C1859.1 407.21 1882.84 397.52 1901.22 382.31C1935.85 353.66 1945.87 310.48 1953.92 275.78C1957.06 262.26 1960.02 249.5 1964.03 239.11C1965.3 235.83 1966.58 232.46 1967.81 229.19C1974.22 212.23 1980.86 194.69 1990.81 177.73C2006.17 151.34 2035.35 116.04 2087.13 97.71C2101.45 92.66 2116.2 88.93 2132.25 86.33C2174.24 79.42 2224.23 81.66 2280.84 92.97C2325.61 101.91 2368.63 116.87 2405.3 136.24C2446.3 157.85 2481.43 185.1 2509.71 217.23C2522.69 231.97 2534.14 247.72 2543.8 264.03C2553.01 279.6 2560.61 295.78 2566.37 312.11L2565.04 312.28C2539.59 240.34 2482.53 178.04 2404.38 136.86C2367.87 117.56 2325 102.66 2280.39 93.75C2224.06 82.49 2174.33 80.26 2132.61 87.12C2116.68 89.71 2102.04 93.4 2087.84 98.42C2036.41 116.62 2007.39 151.74 1992.1 178C1982.18 194.92 1975.56 212.43 1969.15 229.37C1967.91 232.64 1966.64 236.01 1965.37 239.29C1961.37 249.65 1958.41 262.39 1955.28 275.89C1951.23 293.35 1946.64 313.14 1938.79 331.82C1929.77 353.28 1917.84 369.96 1902.33 382.8C1893.48 390.12 1883.12 396.3 1871.56 401.15C1859.1 406.39 1844.78 410.28 1828.99 412.73C1815.14 414.88 1800.67 415.96 1785.33 415.96Z"
			fill="#FFE492" fill-opacity="1.000000" fill-rule="nonzero" />
		<path id="Vector"
			d="M1806.44 420.07C1791.08 420.07 1774.89 418.88 1757.6 416.48C1729.58 412.6 1702.62 406.16 1678.83 400.48C1648.88 393.32 1617.87 384.74 1586.64 374.96C1561.62 367.09 1537.1 358.6 1513.79 349.72C1449.62 325.29 1394.59 293.81 1336.32 260.49C1333.44 258.84 1330.56 257.19 1327.67 255.54C1300.56 240.06 1272.55 224.05 1243.35 209.26C1188.09 181.33 1127.54 164.92 1063.39 160.5C982.8 154.95 895.85 167.63 804.96 198.19C759.5 213.48 713.86 232.74 676.46 252.44C648.22 267.32 625.57 284.06 601.59 301.78C598.75 303.87 595.9 305.98 593.03 308.09C587.3 312.31 580.48 317.31 573.34 322.43C560.13 331.93 542.11 344.01 519.96 353.09C495.96 362.94 470.87 367.95 443.23 368.43C420.51 368.77 395.44 366.66 366.58 361.98C341.81 357.97 317.84 352.72 291.32 346.78C267.11 341.28 241.56 335.61 218.64 331.86C150.74 320.76 79.02 311.05 5.48 302.97L5.74 302.11C79.33 310.18 151.09 319.91 219.03 331.01C242.01 334.77 267.6 340.45 291.83 345.95C336.29 355.92 391.61 368.32 443.19 367.55C502.16 366.53 540.05 344.99 572.22 321.86C579.35 316.75 586.17 311.75 591.9 307.53C594.76 305.42 597.61 303.32 600.45 301.22C624.47 283.47 647.16 266.7 675.49 251.78C712.97 232.04 758.7 212.74 804.25 197.42C895.41 166.77 982.66 154.05 1063.56 159.63C1094.56 161.76 1125.04 166.73 1154.1 174.38C1185.29 182.59 1215.63 194.1 1244.29 208.59C1273.53 223.4 1301.56 239.41 1328.68 254.9C1331.57 256.56 1334.45 258.21 1337.34 259.85C1395.55 293.15 1450.53 324.6 1514.57 348.98C1537.86 357.84 1562.33 366.33 1587.32 374.18C1618.5 383.94 1649.47 392.52 1679.38 399.66C1726.37 410.89 1784.86 424.86 1842.69 416.75C1874.02 412.37 1897.91 402.62 1915.73 386.96C1950.05 357.05 1956.16 311.35 1961.07 274.64C1962.83 261.51 1964.49 249.1 1967.24 239.08C1967.81 237.01 1968.38 234.93 1968.95 232.83C1974.08 213.94 1979.4 194.41 1988.63 175.35C2001.82 147.93 2028.2 110.75 2079.06 89.33C2093.25 83.36 2108.05 78.76 2124.32 75.28C2146.93 70.39 2172.12 68.1 2199.21 68.45C2223.93 68.77 2250.33 71.29 2277.67 75.95C2324.05 83.85 2368.39 98.19 2405.92 117.44C2447.93 138.94 2483.33 166.45 2511.13 199.21C2523.89 214.24 2534.94 230.3 2543.97 246.96C2552.62 262.92 2559.45 279.46 2564.26 296.13L2562.82 296.28C2541.84 223.65 2484.3 158.71 2404.97 118.11C2367.61 98.95 2323.45 84.66 2277.27 76.79C2220.32 67.09 2167.61 66.86 2124.81 76.1C2108.65 79.56 2093.97 84.12 2079.89 90.05C2029.39 111.32 2003.15 148.3 1990.04 175.59C1980.83 194.6 1975.52 214.11 1970.39 232.97C1969.82 235.06 1969.25 237.15 1968.69 239.22C1965.94 249.21 1964.29 261.6 1962.53 274.71C1957.6 311.53 1951.47 357.35 1916.93 387.46C1908.34 395 1898.07 401.32 1886.41 406.23C1873.86 411.51 1859.26 415.34 1843.02 417.61C1831.3 419.25 1819.16 420.07 1806.44 420.07Z"
			fill="#FFE492" fill-opacity="1.000000" fill-rule="nonzero" />
		<path id="Vector"
			d="M1826.27 424.36C1808.77 424.36 1790.24 422.66 1770.27 419.25C1742.01 414.42 1714.88 406.88 1690.95 400.23C1660.71 391.83 1629.71 382.04 1598.81 371.15C1573.97 362.37 1549.62 352.97 1526.44 343.21C1469.36 319.2 1420.59 289.79 1368.94 258.64C1360.5 253.55 1351.77 248.29 1343.11 243.11C1312.66 224.93 1286.66 209.93 1258.75 195.87C1202.51 167.57 1140.18 152.23 1073.5 150.28C989.71 147.84 899.96 165.71 806.74 203.41C760.44 222.14 714.84 245.1 678.36 268.07C650.88 285.37 629.39 304.2 606.64 324.14C603.83 326.6 601 329.08 598.15 331.57C593.08 335.99 586.37 341.83 579.44 347.67C550.28 372.35 512.19 397.75 450.74 399.05C448.82 399.09 446.9 399.1 444.98 399.1C396.99 399.1 348 387.69 297.89 374.95L294.76 374.15C269.94 367.79 246.49 361.77 224.78 357.4C142.98 340.91 63.87 326.98 4.09 316.7L4.52 315.8C64.31 326.09 143.45 340.01 225.27 356.51C247.04 360.9 270.51 366.92 295.37 373.29L298.5 374.09C350.45 387.3 401.18 399.08 450.68 398.11C511.45 396.83 549.23 371.62 578.17 347.14C585.09 341.29 591.8 335.46 596.87 331.04C599.71 328.55 602.54 326.08 605.36 323.61C628.14 303.64 649.66 284.78 677.23 267.42C713.79 244.41 759.47 221.4 805.87 202.63C848.93 185.22 892.01 171.84 933.91 162.88C981.98 152.6 1028.97 148.05 1073.56 149.35C1140.6 151.3 1203.24 166.72 1259.75 195.15C1287.69 209.24 1313.72 224.25 1344.2 242.44C1352.86 247.62 1361.59 252.88 1370.04 257.98C1421.63 289.09 1470.37 318.48 1527.33 342.44C1550.48 352.19 1574.79 361.57 1599.59 370.34C1630.45 381.22 1661.4 390.99 1691.6 399.38C1739.01 412.55 1798.01 428.95 1856.73 421.57C1888.82 417.53 1912.87 407.73 1930.23 391.59C1964.11 360.32 1966.15 312.05 1967.79 273.27C1968.32 260.62 1968.83 248.67 1970.45 239.04L1970.48 238.82C1974.11 217.25 1977.85 194.95 1986.45 172.95C1993.89 153.75 2004.25 136.5 2017.25 121.66C2031.91 104.93 2049.98 91.23 2070.96 80.93C2085 74.05 2099.86 68.58 2116.37 64.21C2160.99 52.35 2215.65 50.52 2274.49 58.92C2298.15 62.3 2321.51 67.42 2343.89 74.14C2366.4 80.9 2387.49 89.14 2406.54 98.63C2449.57 120.03 2485.24 147.8 2512.56 181.18C2537.12 211.17 2554.26 245.39 2562.13 280.13L2560.6 280.26C2543.74 205.91 2487.23 139.97 2405.54 99.35C2367.35 80.32 2321.89 66.66 2274.12 59.84C2215.63 51.48 2161.31 53.29 2117.01 65.08C2100.62 69.41 2085.88 74.83 2071.95 81.67C2032.77 100.88 2003.73 132.52 1987.97 173.17C1979.4 195.11 1975.66 217.38 1972.04 238.91L1972 239.14C1970.39 248.73 1969.88 260.67 1969.35 273.3C1967.7 312.2 1965.66 360.61 1931.53 392.11C1923.16 399.89 1912.96 406.34 1901.23 411.29C1888.58 416.63 1873.72 420.39 1857.04 422.49C1847.11 423.74 1836.88 424.36 1826.27 424.36Z"
			fill="#FFE492" fill-opacity="1.000000" fill-rule="nonzero" />
		<path id="Vector"
			d="M451.88 429.75C430.42 429.75 407.05 427.24 380.68 422.11C354.48 417.01 328.57 409.98 304.47 403.14C300.1 401.89 295.77 400.65 291.47 399.41C270.06 393.26 249.83 387.46 230.93 382.93C155.56 364.9 83.71 348.7 14.23 333.03L2.72 330.43L3.3 329.5L14.81 332.1C84.3 347.77 156.15 363.98 231.54 382.01C250.49 386.55 270.74 392.36 292.18 398.52C296.48 399.76 300.81 401 305.17 402.24C354.65 416.29 407.21 429.9 458.19 428.69C520.86 427.12 558.42 397.79 584.13 372.41C590.72 365.92 597.07 359.46 601.86 354.55C604.5 351.84 607.13 349.14 609.75 346.44C631.48 324.09 652 302.97 678.99 283.06C714.62 256.79 760.26 230.08 807.52 207.85C851.36 187.24 895.6 170.95 939.02 159.44C988.82 146.24 1037.47 139.38 1083.6 139.07C1153.02 138.45 1217.5 152.8 1275.21 181.72C1307.21 197.76 1335.89 215.12 1359.74 229.99C1372.71 238.08 1385.69 246.37 1398.24 254.39C1442.66 282.78 1488.59 312.14 1540.1 335.91C1563.11 346.54 1587.27 356.83 1611.88 366.51C1642.35 378.45 1673.29 389.42 1703.85 399.1C1751.61 414.23 1811.05 433.07 1870.77 426.38C1903.64 422.7 1927.84 412.84 1944.74 396.23C1978.18 363.54 1975.92 312.63 1974.1 271.73C1973.57 259.63 1973.06 248.2 1973.67 239C1975.04 218.27 1977.11 194.16 1984.28 170.56C1990.33 150.55 1999.45 132.45 2011.4 116.77C2024.92 99.02 2042.25 84.15 2062.88 72.55C2076.57 64.86 2091.89 58.34 2108.45 53.16C2132.06 45.74 2158.57 41.08 2187.22 39.3C2214.06 37.63 2242.35 38.51 2271.32 41.9C2295.74 44.76 2319.82 49.47 2342.87 55.89C2366.08 62.35 2387.71 70.41 2407.17 79.82C2429.6 90.67 2450.22 103.47 2468.47 117.89C2485.75 131.54 2501.07 146.77 2514 163.15C2538.19 193.79 2554.11 228.72 2560.03 264.15L2558.38 264.24C2545.67 188.16 2490.18 121.22 2406.12 80.6C2367.63 61.97 2319.65 48.57 2271 42.87C2210.84 35.83 2154.89 39.69 2109.21 54.04C2092.79 59.18 2077.58 65.65 2064.01 73.27C2025.12 95.12 1998.83 127.91 1985.9 170.73C1978.75 194.28 1976.68 218.34 1975.31 239.04C1974.71 248.21 1975.21 259.62 1975.75 271.7C1976.64 291.88 1977.66 314.75 1974.26 336.87C1970.31 362.53 1961.12 382.11 1946.15 396.75C1938 404.76 1927.88 411.35 1916.07 416.35C1903.32 421.74 1888.18 425.44 1871.08 427.36C1862.45 428.32 1853.83 428.76 1845.26 428.76C1793.93 428.76 1744.2 413 1703.08 399.98C1672.48 390.28 1641.49 379.3 1610.99 367.33C1586.33 357.64 1562.14 347.33 1539.1 336.7C1487.48 312.87 1441.5 283.48 1397.04 255.07C1384.49 247.05 1371.52 238.76 1358.56 230.67C1334.74 215.83 1306.1 198.49 1274.16 182.47C1216.76 153.71 1152.66 139.45 1083.63 140.06C975.22 140.79 874.19 177.75 808.53 208.63C761.37 230.81 715.82 257.46 680.27 283.68C653.36 303.53 632.87 324.61 611.18 346.93C608.56 349.63 605.93 352.33 603.28 355.04C598.48 359.95 592.13 366.43 585.54 372.92C574.75 383.57 557.8 399.08 535.36 410.7C524.46 416.35 512.86 420.78 500.88 423.89C487.52 427.35 473.18 429.3 458.26 429.67C456.15 429.72 454.02 429.75 451.88 429.75Z"
			fill="#FFE492" fill-opacity="1.000000" fill-rule="nonzero" />
		<path id="Vector"
			d="M458.76 460.4C437.28 460.4 413.96 457.69 387.73 452.17C360.58 446.46 333.73 438.42 311.04 431.31C304.08 429.13 297.12 426.91 290.4 424.76C271.59 418.76 253.83 413.09 237.08 408.47C176.94 391.85 117.18 375.62 59.39 359.93C40.28 354.74 20.51 349.37 1.36 344.16L2.08 343.2C21.23 348.42 41 353.78 60.11 358.97C117.9 374.67 177.66 390.9 237.81 407.52C254.6 412.16 272.39 417.83 291.21 423.84C297.94 425.99 304.89 428.2 311.85 430.39C358.89 445.13 413.45 460.72 465.7 459.26C529.84 457.41 565.87 425.38 590.1 397.69C596.31 390.59 602.31 383.47 606.85 378.06C609.18 375.28 611.5 372.5 613.81 369.73C634.59 344.83 654.22 321.3 680.75 298.71C715.26 269.32 760.87 238.91 809.16 213.08C876.42 177.25 980.36 133.55 1093.63 128.81C1165.67 125.71 1231.97 139 1290.68 168.29C1317.07 181.46 1343.15 196.65 1375.28 217.55C1391.52 228.11 1407.63 239.05 1423.21 249.63C1463.74 277.17 1505.65 305.64 1552.88 329.4C1575.75 340.91 1599.74 352.11 1624.17 362.68C1653.76 375.47 1684.68 387.64 1716.09 398.84C1764.34 415.95 1824.38 437.24 1884.82 431.21C1917.95 427.98 1942.99 417.77 1959.25 400.89C1992.22 366.72 1985.15 310.81 1979.98 269.99C1978.53 258.54 1977.16 247.72 1976.89 238.99C1976.29 219.59 1976.34 194.01 1982.12 168.18C1992.09 123.42 2016.55 88.42 2054.81 64.18C2068.22 55.64 2083.61 48.22 2100.52 42.12C2124.59 33.44 2151.74 27.6 2181.23 24.77C2209.02 22.1 2238.26 22.14 2268.13 24.89C2293.36 27.27 2318.15 31.57 2341.85 37.67C2365.78 43.84 2387.96 51.7 2407.8 61.03C2430.73 71.81 2451.68 84.66 2470.06 99.23C2487.49 113.03 2502.75 128.47 2515.44 145.14C2539.26 176.42 2553.94 212.05 2557.92 248.18L2556.18 248.24C2547.62 170.42 2493.14 102.49 2406.73 61.86C2367.55 43.43 2318.23 30.66 2267.87 25.93C2205.81 20.21 2148.25 26.13 2101.42 43.02C2084.63 49.07 2069.38 56.43 2056.08 64.9C2018.07 88.98 1993.77 123.78 1983.85 168.32C1978.09 194.08 1978.04 219.61 1978.63 238.97C1978.91 247.67 1980.27 258.48 1981.72 269.92C1984.39 291.02 1987.42 314.93 1985.69 338.28C1983.67 365.47 1975.52 386.12 1960.76 401.42C1952.82 409.66 1942.78 416.4 1930.91 421.44C1918.05 426.9 1902.64 430.54 1885.11 432.25C1857.92 434.96 1828.66 432.52 1795.65 424.8C1766.96 418.09 1739.47 408.34 1715.21 399.75C1683.76 388.53 1652.79 376.34 1623.16 363.54C1598.69 352.95 1574.67 341.74 1551.76 330.21C1504.44 306.39 1462.48 277.89 1421.9 250.33C1406.33 239.75 1390.23 228.82 1374.01 218.26C1341.93 197.4 1315.89 182.24 1289.56 169.11C1231.21 139.98 1165.32 126.77 1093.75 129.85C980.96 134.57 877.36 178.14 810.31 213.86C762.12 239.64 716.61 269.99 682.17 299.31C655.71 321.84 636.11 345.33 615.36 370.2C613.05 372.97 610.73 375.75 608.4 378.53C603.86 383.95 597.85 391.08 591.63 398.18C567.19 426.12 530.8 458.43 465.77 460.3C463.46 460.37 461.12 460.4 458.76 460.4Z"
			fill="#FFE492" fill-opacity="1.000000" fill-rule="nonzero" />
		<path id="Vector"
			d="M465.79 491.05C407.09 491.05 345.51 469.39 290.91 450.19C274.13 444.29 258.28 438.71 243.22 434L0 357.88L0.84 356.91L244.07 433.02C259.17 437.75 275.04 443.33 291.83 449.24C348.54 469.18 412.82 491.79 473.2 489.83C538.76 487.7 573.3 452.98 596.06 422.97C603.51 413.15 610.7 403.17 617.65 393.51C636.67 367.09 656.34 339.77 682.51 314.35C703.29 294.16 729.11 272.99 757.17 253.13C787.95 231.34 820.91 211.35 855.12 193.71C892.84 174.27 931.19 158.18 969.11 145.9C1011.06 132.33 1052.38 123.46 1091.93 119.55C1171.18 111.73 1243.25 123.6 1306.14 154.86C1358.41 180.83 1402.83 212.94 1445.79 244C1483.19 271.03 1521.85 298.98 1565.64 322.87C1616.21 350.47 1670.95 375.94 1728.33 398.56C1776.68 417.63 1836.85 441.36 1898.86 436.03C1951.23 431.52 1981.52 410.47 1991.43 371.66C1999.87 338.65 1991.84 299.49 1985.4 268.02C1983.2 257.3 1981.13 247.17 1980.11 238.96C1974.49 193.68 1978.07 156.3 1991.06 124.7C1999.16 104.97 2011.12 87.39 2026.6 72.44C2043.89 55.74 2066.09 41.82 2092.59 31.07C2115.5 21.76 2141.33 15 2169.36 10.98C2196.04 7.15 2224.12 5.87 2252.84 7.16C2309.32 9.72 2364.57 22.17 2408.4 42.22C2431.84 52.94 2453.12 65.84 2471.64 80.55C2489.21 94.49 2504.42 110.15 2516.86 127.1C2540.3 159.03 2553.76 195.37 2555.79 232.18L2553.96 232.22C2549.63 153.83 2494.81 83.13 2407.3 43.1C2314.36 0.59 2182.43 -4.09 2093.6 31.98C2005.61 67.71 1969.08 135.38 1981.93 238.88C1982.94 247.06 1985.02 257.18 1987.21 267.89C1993.67 299.42 2001.71 338.66 1993.24 371.83C1988.62 389.89 1979.35 404.4 1965.67 414.97C1957.97 420.91 1948.7 425.77 1938.1 429.4C1926.82 433.27 1913.7 435.86 1899.12 437.12C1893.16 437.63 1887.09 437.89 1880.93 437.89C1858.45 437.89 1834.52 434.47 1808.29 427.56C1778.74 419.76 1750.23 408.52 1727.32 399.49C1669.86 376.82 1615.05 351.32 1564.4 323.69C1520.51 299.74 1481.81 271.76 1444.37 244.7C1401.47 213.68 1357.1 181.61 1304.96 155.71C1242.49 124.67 1170.92 112.87 1092.22 120.64C933.03 136.36 769.05 232.38 684.05 314.93C657.95 340.28 638.31 367.56 619.32 393.94C612.36 403.61 605.17 413.6 597.71 423.43C582.6 443.35 567.67 457.62 550.74 468.32C540.17 475 528.7 480.27 516.65 483.97C503.26 488.09 488.67 490.43 473.28 490.93C470.8 491.01 468.3 491.05 465.79 491.05Z"
			fill="#FFE492" fill-opacity="1.000000" fill-rule="nonzero" />
	</g>
</svg>