<svg width="334.112793" height="25.548462" viewBox="0 0 334.113 25.5485" fill="none"
	xmlns="http://www.w3.org/2000/svg" xmlns:xlink="http://www.w3.org/1999/xlink">
	<defs />
	<path id="Vector"
		d="M312.53 13.5C312.08 13.52 311.62 13.53 311.17 13.56C310.88 13.58 310.76 13.53 310.56 13.49C310.5 13.48 310.43 13.46 310.37 13.47C309.92 13.49 309.47 13.51 309.02 13.53C308.88 13.59 308.79 13.66 308.58 13.68C308.37 13.71 308.13 13.71 307.9 13.72C307.6 13.73 307.29 13.75 306.99 13.76C306.84 13.77 306.71 13.79 306.66 13.84C306.65 13.85 306.75 13.87 306.81 13.88C306.99 13.92 307.17 13.97 307.37 14C307.57 14.03 307.81 13.98 308.01 14.02C308.48 14.1 308.48 14.1 308.84 14.08C309.14 14.07 309.45 14.05 309.75 14.04C309.81 14.04 309.88 14.06 309.94 14.07C310.14 14.1 310.26 14.17 310.54 14.14C310.76 14.12 311 14.12 311.23 14.11C311.41 14.14 311.59 14.19 311.79 14.22C311.98 14.25 312.04 14.27 311.93 14.31C311.84 14.35 311.71 14.36 311.54 14.36C311.39 14.36 311.24 14.38 311.09 14.38C311.01 14.39 310.94 14.39 310.86 14.39C310.57 14.41 310.57 14.41 310.04 14.32C309.84 14.29 309.6 14.34 309.4 14.3C309.27 14.28 309.16 14.25 309.03 14.23C308.97 14.22 308.88 14.22 308.81 14.22C308.58 14.23 308.35 14.24 308.13 14.25C307.98 14.27 307.89 14.3 307.9 14.34C307.91 14.36 308.02 14.38 308.08 14.38C308.23 14.38 308.39 14.36 308.53 14.37C308.67 14.38 308.81 14.41 308.91 14.44C309.12 14.5 309.35 14.44 309.55 14.46C309.76 14.48 309.93 14.53 310.13 14.56C310.18 14.57 310.27 14.56 310.35 14.55C310.58 14.54 310.8 14.54 311.03 14.53C311.22 14.57 311.42 14.6 311.59 14.64C311.9 14.72 312.23 14.75 312.63 14.72C312.85 14.69 313.08 14.7 313.26 14.75C313.44 14.81 313.65 14.8 313.89 14.79C314.1 14.78 314.32 14.75 314.54 14.79C315.02 14.87 315.03 14.88 315.59 14.84C315.76 14.84 315.89 14.83 316.02 14.86C316.14 14.89 316.27 14.92 316.39 14.94C316.62 14.93 316.85 14.92 317.07 14.91C317.37 14.9 317.53 14.92 317.6 14.99C317.64 15.04 317.66 15.08 317.76 15.11C317.88 15.15 318.01 15.14 318.18 15.13C318.35 15.12 318.47 15.11 318.53 15.06C318.56 15.04 318.62 15.02 318.67 15.01C318.71 15 318.77 14.98 318.81 14.98C318.88 14.98 318.97 15 318.99 15.02C319.22 15.18 319.22 15.18 319.45 15.23C319.7 15.28 319.97 15.33 320.2 15.38C320.4 15.44 320.61 15.41 320.84 15.41C321.01 15.41 321.12 15.45 321.1 15.48C321.09 15.5 321.03 15.53 320.97 15.54C320.52 15.56 320.07 15.58 319.61 15.6C319.56 15.61 319.49 15.58 319.42 15.57C319.29 15.55 319.18 15.51 319.04 15.5C318.9 15.49 318.74 15.51 318.59 15.52C318.44 15.53 318.28 15.54 318.14 15.53C318 15.52 317.89 15.48 317.76 15.46C317.7 15.45 317.62 15.43 317.57 15.43C317.23 15.46 316.98 15.42 316.74 15.36C316.69 15.35 316.61 15.34 316.54 15.34C316.01 15.37 315.48 15.39 314.94 15.42C314.73 15.43 314.55 15.38 314.51 15.3C314.48 15.26 314.44 15.22 314.44 15.17C314.44 15.09 314.19 15.05 314 15.06C313.7 15.07 313.39 15.08 313.09 15.1C312.85 15.12 312.64 15.1 312.47 15.05C312.28 15 312.06 15.01 311.84 15.02C311.67 15.03 311.63 15.08 311.64 15.19C311.64 15.28 311.57 15.31 311.27 15.32C310.89 15.34 310.51 15.36 310.13 15.37C310.07 15.38 310 15.35 309.94 15.34C309.81 15.32 309.69 15.28 309.56 15.27C309.42 15.26 309.26 15.28 309.1 15.29C308.95 15.3 308.79 15.31 308.65 15.31C308.51 15.3 308.4 15.26 308.28 15.23C308.22 15.22 308.14 15.2 308.08 15.2C307.78 15.21 307.48 15.23 307.17 15.25C306.83 15.26 306.83 15.26 306.35 15.18C306.13 15.14 305.91 15.17 305.69 15.18C305.46 15.19 305.24 15.2 305.06 15.14C304.94 15.11 304.81 15.09 304.67 15.09C304.29 15.11 303.91 15.13 303.53 15.15C303.46 15.15 303.38 15.14 303.32 15.13C303.08 15.07 302.84 15.03 302.5 15.06C302.21 15.08 301.89 15.08 301.59 15.11C301.43 15.12 301.36 15.16 301.39 15.19C301.41 15.21 301.51 15.23 301.57 15.23C301.72 15.23 301.88 15.21 302.02 15.22C302.3 15.24 302.45 15.35 302.82 15.32C303.04 15.3 303.27 15.29 303.5 15.29C303.56 15.29 303.62 15.31 303.69 15.33C303.87 15.36 304.03 15.41 304.3 15.38C304.52 15.37 304.76 15.36 304.98 15.35C305.34 15.33 305.34 15.33 305.81 15.41C306.03 15.45 306.25 15.42 306.46 15.41C306.62 15.41 306.78 15.39 306.9 15.41C307.1 15.44 307.25 15.5 307.49 15.5C307.72 15.5 307.94 15.48 308.17 15.47C308.32 15.47 308.45 15.49 308.57 15.52C308.69 15.56 308.81 15.58 308.97 15.57C309.2 15.56 309.43 15.54 309.66 15.54C309.72 15.54 309.79 15.55 309.85 15.56C309.98 15.58 310.11 15.61 310.23 15.64C310.46 15.63 310.69 15.63 310.91 15.61C311.08 15.6 311.2 15.6 311.34 15.63C311.51 15.67 311.65 15.73 311.94 15.7C312.08 15.68 312.25 15.69 312.39 15.68C312.57 15.66 312.69 15.66 312.81 15.7C313.04 15.78 313.34 15.78 313.64 15.75C313.97 15.72 314.22 15.76 314.47 15.82C314.73 15.88 314.73 15.88 314.94 16.03C315 16.07 315.17 16.09 315.31 16.08C315.55 16.07 315.75 16.07 315.93 16.12C316.11 16.18 316.33 16.17 316.56 16.16C316.86 16.14 317.16 16.12 317.4 16.2C317.52 16.24 317.65 16.24 317.81 16.24C318.27 16.21 318.73 16.2 319.17 16.17C319.45 16.15 319.6 16.19 319.79 16.23C320.03 16.28 320.31 16.32 320.31 16.43C320.31 16.44 320.37 16.46 320.43 16.48C320.54 16.51 320.67 16.53 320.8 16.56C320.98 16.6 321.16 16.63 321.42 16.61C321.64 16.59 321.87 16.59 322.1 16.57C322.32 16.56 322.53 16.55 322.73 16.61C322.97 16.66 323.21 16.72 323.48 16.76C323.67 16.79 323.92 16.74 324.12 16.78C324.25 16.81 324.37 16.84 324.5 16.86C324.55 16.87 324.64 16.86 324.71 16.86C324.87 16.85 325.02 16.85 325.17 16.83C325.34 16.82 325.47 16.82 325.6 16.85C325.72 16.88 325.84 16.92 325.98 16.93C326.18 16.94 326.41 16.89 326.62 16.95C326.73 16.98 326.86 17.01 327 17.02C327.14 17.03 327.3 17.01 327.44 17.01C327.51 17.01 327.59 17.03 327.62 17.05C327.65 17.06 327.61 17.08 327.58 17.09C327.54 17.11 327.48 17.13 327.42 17.13C326.97 17.16 326.51 17.18 326.05 17.2C325.78 17.21 325.78 17.21 325.24 17.13C325.11 17.11 324.96 17.11 324.8 17.12C324.59 17.14 324.37 17.16 324.14 17.13C323.85 17.04 323.48 17.04 323.1 17.07C322.93 17.09 322.79 17.09 322.67 17.06C322.41 17.01 322.15 16.96 321.92 16.9C321.75 16.86 321.66 16.85 321.59 16.92C321.57 16.94 321.54 16.96 321.55 16.98C321.58 17.04 321.63 17.11 321.65 17.17C321.66 17.19 321.63 17.21 321.6 17.23C321.53 17.29 321.43 17.29 321.27 17.24C321.11 17.19 320.92 17.16 320.66 17.18C320.44 17.2 320.2 17.2 319.98 17.22C319.64 17.25 319.4 17.21 319.16 17.15C319.1 17.14 319.02 17.13 318.95 17.13C318.27 17.16 317.59 17.2 316.9 17.23C316.75 17.24 316.62 17.22 316.5 17.18C316.39 17.14 316.25 17.13 316.1 17.13C315.5 17.16 314.89 17.19 314.28 17.22C314.03 17.23 313.84 17.22 313.67 17.17C313.54 17.14 313.42 17.13 313.26 17.13C313.08 17.13 312.96 17.15 312.87 17.19C312.79 17.22 312.85 17.25 313.03 17.27C313.23 17.31 313.41 17.35 313.6 17.39C313.75 17.38 313.9 17.37 314.05 17.37C314.12 17.37 314.18 17.4 314.24 17.41C314.42 17.45 314.6 17.49 314.86 17.46C315.08 17.45 315.31 17.44 315.54 17.43C315.85 17.42 315.85 17.42 316.36 17.5C316.49 17.52 316.62 17.52 316.79 17.51C316.93 17.5 317.08 17.52 317.18 17.56C317.22 17.57 317.21 17.6 317.12 17.69C317.12 17.75 317.22 17.72 317.25 17.68C317.3 17.62 317.2 17.6 317.02 17.63C316.89 17.66 316.83 17.69 316.86 17.72C316.88 17.73 316.97 17.75 317.12 17.69C317.53 17.61 317.83 17.6 318.13 17.58C318.3 17.56 318.41 17.57 318.55 17.6C318.72 17.65 318.88 17.69 319.16 17.67C319.45 17.65 319.76 17.64 320.06 17.62C320.34 17.6 320.48 17.66 320.66 17.7C320.87 17.74 321.1 17.69 321.29 17.72C321.5 17.74 321.64 17.8 321.88 17.81C322.22 17.77 322.43 17.84 322.69 17.88C322.89 17.92 323.13 17.89 323.35 17.87C323.59 17.86 323.79 17.87 323.96 17.92C324.16 17.98 324.37 17.96 324.6 17.95C325.11 17.92 325.13 17.92 325.43 17.99C325.64 18.05 325.85 18.02 326.07 18.02C326.26 18.05 326.44 18.09 326.64 18.12C326.69 18.13 326.79 18.12 326.86 18.11C327.09 18.1 327.32 18.09 327.54 18.08C327.7 18.08 327.86 18.06 328 18.06C328.13 18.07 328.25 18.11 328.37 18.14C328.5 18.16 328.63 18.19 328.75 18.21C328.93 18.25 329.11 18.29 329.36 18.27C329.58 18.25 329.81 18.25 330.04 18.23C330.33 18.22 330.33 18.22 330.86 18.3C331.15 18.35 331.45 18.29 331.75 18.29C331.89 18.29 332.04 18.3 332.14 18.34C332.18 18.35 332.17 18.38 332.18 18.4C331.42 18.44 330.66 18.47 329.91 18.51C329.62 18.53 329.46 18.48 329.31 18.44C329.05 18.38 328.71 18.47 328.47 18.39C328.32 18.34 328.11 18.31 327.85 18.34C327.71 18.35 327.55 18.35 327.4 18.36C327.01 18.39 326.66 18.39 326.35 18.3C326.24 18.27 326.09 18.25 325.98 18.22C325.85 18.19 325.73 18.17 325.57 18.17C324.89 18.21 324.21 18.24 323.53 18.27C323.47 18.28 323.41 18.3 323.36 18.31C323.23 18.35 323.27 18.38 323.48 18.4C323.55 18.41 323.6 18.43 323.67 18.44C323.79 18.47 323.9 18.51 324.04 18.51C324.18 18.52 324.34 18.51 324.49 18.5C324.65 18.49 324.81 18.47 324.95 18.48C325.08 18.49 325.2 18.53 325.33 18.55C325.39 18.56 325.46 18.58 325.52 18.58C325.82 18.58 326.12 18.56 326.43 18.55C326.62 18.58 326.78 18.64 327 18.65C327.14 18.66 327.3 18.64 327.44 18.64C327.51 18.65 327.59 18.67 327.62 18.68C327.64 18.69 327.58 18.72 327.54 18.73C327.36 18.78 327.12 18.78 326.91 18.79C326.67 18.81 326.46 18.8 326.28 18.75C326.16 18.72 326.03 18.7 325.88 18.7C325.5 18.72 325.12 18.74 324.74 18.76C324.67 18.76 324.6 18.75 324.54 18.74C324.05 18.66 324.05 18.65 323.71 18.67C323.21 18.7 323.21 18.7 322.87 18.63C322.81 18.61 322.74 18.59 322.69 18.59C322.15 18.61 321.62 18.63 321.09 18.66C320.92 18.67 320.8 18.67 320.67 18.64C320.56 18.61 320.43 18.57 320.29 18.57C320.15 18.56 319.99 18.58 319.84 18.58C319.69 18.59 319.53 18.61 319.39 18.6C319.26 18.59 319.14 18.55 319.02 18.52C318.89 18.49 318.76 18.5 318.59 18.51C318.07 18.54 318.06 18.53 317.54 18.45C317.48 18.44 317.4 18.43 317.34 18.43C316.96 18.45 316.58 18.47 316.2 18.49C316.05 18.49 315.91 18.47 315.81 18.44C315.76 18.42 315.78 18.39 315.75 18.34C315.72 18.33 315.75 18.35 315.76 18.37C315.83 18.37 315.92 18.37 315.97 18.36C316.1 18.33 316.16 18.3 316.13 18.27C316.11 18.26 316.02 18.24 315.97 18.24C315.87 18.24 315.78 18.27 315.75 18.34C315.46 18.39 315.15 18.39 314.85 18.42C314.68 18.43 314.57 18.42 314.43 18.39C314.26 18.35 314.09 18.3 313.82 18.33C313.53 18.35 313.21 18.35 312.91 18.37C312.56 18.39 312.41 18.27 312.11 18.28C311.81 18.28 311.51 18.3 311.2 18.32C310.94 18.33 310.94 18.33 310.38 18.24C310.18 18.21 309.94 18.26 309.74 18.23C309.61 18.2 309.5 18.17 309.37 18.15C309.31 18.14 309.22 18.14 309.16 18.14C308.77 18.16 308.39 18.17 308.02 18.2C307.6 18.23 307.28 18.2 306.98 18.12C306.6 18.13 306.22 18.14 305.85 18.16C305.58 18.18 305.42 18.14 305.24 18.1C305.17 18.09 305.12 18.07 305.05 18.07C304.98 18.06 304.9 18.07 304.82 18.08C304.52 18.09 304.21 18.1 303.91 18.12C303.55 18.15 303.41 18.04 303.13 18.03C302.94 18.09 302.84 18.18 302.47 18.19C302.16 18.2 301.86 18.22 301.56 18.23C301.41 18.24 301.25 18.25 301.1 18.25C300.86 18.27 300.74 18.32 300.79 18.4C300.82 18.44 300.84 18.49 300.87 18.53C300.91 18.61 300.8 18.68 300.6 18.68C300.07 18.71 299.54 18.74 299.01 18.76C298.87 18.77 298.73 18.74 298.61 18.71C298.49 18.67 298.36 18.66 298.21 18.66C297.68 18.69 297.15 18.71 296.61 18.74C296.55 18.74 296.48 18.73 296.42 18.72C296.29 18.69 296.16 18.66 296.04 18.64C295.74 18.65 295.44 18.66 295.14 18.67C294.65 18.7 294.65 18.7 294.3 18.63C294.24 18.61 294.17 18.59 294.11 18.59C293.88 18.59 293.66 18.61 293.43 18.62C292.75 18.65 292.75 18.65 292.55 18.61C292.37 18.58 292.21 18.53 291.94 18.55C291.64 18.58 291.33 18.58 291.03 18.6C290.8 18.61 290.58 18.62 290.35 18.62C290.29 18.62 290.23 18.6 290.16 18.58C289.98 18.54 289.8 18.51 289.54 18.53C289.4 18.54 289.24 18.55 289.09 18.55C288.69 18.57 288.69 18.57 288.04 18.49C287.98 18.48 287.9 18.47 287.84 18.48C287.3 18.5 286.78 18.53 286.24 18.55C286.18 18.55 286.1 18.55 286.03 18.54C285.31 18.46 285.31 18.46 284.53 18.5C284.24 18.51 284.23 18.52 283.92 18.45C283.78 18.42 283.67 18.4 283.51 18.41C282.9 18.44 282.29 18.47 281.69 18.5C281.41 18.52 281.26 18.48 281.07 18.44C281.01 18.43 280.94 18.4 280.88 18.41C280.28 18.43 279.67 18.46 279.06 18.49C279.01 18.49 278.94 18.46 278.87 18.45C278.75 18.43 278.63 18.39 278.49 18.38C278.35 18.37 278.19 18.39 278.04 18.4C277.65 18.42 277.65 18.42 277.21 18.34C277.15 18.33 277.07 18.31 277.01 18.32C276.41 18.34 275.79 18.37 275.19 18.4C274.85 18.43 274.61 18.39 274.37 18.33C274.32 18.32 274.23 18.31 274.17 18.32C273.48 18.35 272.8 18.38 272.11 18.41C271.97 18.42 271.83 18.4 271.72 18.36C271.53 18.31 271.32 18.31 271.09 18.33C270.56 18.35 270.55 18.35 270.24 18.29C270.18 18.27 270.12 18.26 270.05 18.25C269.99 18.24 269.9 18.25 269.84 18.25C269.53 18.26 269.23 18.28 268.92 18.29C268.62 18.31 268.31 18.32 268.01 18.34C267.64 18.37 267.47 18.28 267.21 18.24C266.83 18.26 266.45 18.27 266.07 18.3C265.79 18.32 265.66 18.26 265.47 18.23C265.4 18.22 265.33 18.19 265.27 18.2C264.59 18.23 263.9 18.26 263.22 18.29C263.06 18.3 262.95 18.29 262.81 18.26C262.5 18.19 262.49 18.19 261.97 18.22C261.74 18.23 261.53 18.24 261.33 18.18C261.16 18.14 260.96 18.12 260.71 18.14C260.41 18.16 260.11 18.17 259.8 18.18C259.5 18.2 259.19 18.22 258.89 18.23C258.65 18.23 258.5 18.17 258.31 18.14C258.25 18.13 258.16 18.13 258.1 18.13C257.79 18.14 257.48 18.15 257.18 18.17C256.82 18.2 256.63 18.13 256.37 18.08C256.32 18.08 256.23 18.08 256.16 18.08C255.62 18.11 255.09 18.14 254.56 18.16C254.37 18.12 254.18 18.09 253.99 18.05C253.69 18.07 253.38 18.08 253.08 18.1C252.85 18.11 252.61 18.11 252.4 18.13C252.12 18.16 251.98 18.09 251.79 18.06C251.73 18.05 251.66 18.03 251.6 18.03C251.21 18.05 250.83 18.06 250.46 18.09C250.1 18.11 249.95 17.99 249.66 17.99C249.36 17.99 249.04 18.01 248.75 18.03C248.41 18.06 248.17 18.02 247.92 17.96C247.87 17.95 247.79 17.94 247.72 17.94C247.34 17.96 246.96 17.98 246.58 18C246.52 18 246.44 17.99 246.37 17.98C245.65 17.91 245.65 17.9 245.33 17.92C245.1 17.93 244.87 17.94 244.64 17.95C244.58 17.95 244.5 17.94 244.44 17.93C243.96 17.85 243.96 17.85 243.62 17.86C243.31 17.88 243.01 17.89 242.71 17.91C242.52 17.87 242.32 17.84 242.13 17.8C241.76 17.82 241.37 17.83 241 17.86C240.82 17.87 240.71 17.86 240.57 17.83C240.41 17.79 240.24 17.74 239.97 17.77C239.67 17.79 239.36 17.79 239.06 17.81C238.7 17.84 238.55 17.71 238.26 17.72C237.96 17.72 237.65 17.73 237.35 17.76C237.01 17.79 236.77 17.74 236.53 17.69C236.48 17.67 236.39 17.67 236.33 17.67C235.49 17.71 234.66 17.75 233.82 17.79C233.3 17.81 233.3 17.82 232.32 17.74C232.25 17.74 232.18 17.73 232.11 17.73C231.81 17.75 231.49 17.76 231.2 17.78C230.84 17.81 230.64 17.73 230.39 17.69C230.34 17.68 230.25 17.69 230.17 17.69C229.94 17.7 229.72 17.71 229.49 17.72C229.18 17.74 228.88 17.75 228.58 17.77C228.39 17.73 228.2 17.69 228.01 17.66C227.63 17.68 227.24 17.69 226.87 17.71C226.58 17.74 226.45 17.68 226.26 17.65C226.2 17.64 226.13 17.61 226.07 17.62C225.38 17.65 224.7 17.68 224.02 17.71C223.74 17.73 223.61 17.67 223.42 17.64C223.35 17.63 223.28 17.61 223.22 17.61C222.76 17.63 222.31 17.66 221.85 17.68C221.6 17.69 221.6 17.69 221.03 17.61C220.97 17.6 220.9 17.59 220.83 17.59C219.39 17.66 217.95 17.73 216.5 17.8C216.35 17.8 216.22 17.78 216.11 17.75C215.99 17.71 215.85 17.69 215.7 17.7C215.1 17.73 214.49 17.75 213.88 17.79C213.63 17.8 213.44 17.79 213.27 17.74C213.14 17.7 213.02 17.69 212.86 17.7C212.55 17.71 212.25 17.73 211.95 17.74C211.64 17.76 211.34 17.77 211.03 17.79C210.73 17.8 210.42 17.81 210.12 17.83C209.75 17.86 209.58 17.78 209.32 17.74C208.87 17.76 208.41 17.78 207.96 17.8C207.35 17.83 206.74 17.86 206.14 17.88C206.08 17.89 206.01 17.86 205.95 17.85C205.76 17.82 205.62 17.77 205.34 17.78C203.98 17.85 202.61 17.91 201.24 17.98C200.96 18 200.83 17.94 200.64 17.91C200.57 17.9 200.5 17.88 200.44 17.89C199.68 17.92 198.92 17.96 198.16 17.99C197.85 18.01 197.85 18.01 197.34 17.92C197.28 17.91 197.2 17.9 197.14 17.91C196.15 17.95 195.16 18 194.17 18.05C194.02 18.05 193.89 18.03 193.77 18C193.66 17.96 193.52 17.94 193.38 17.95C192.46 17.99 191.55 18.03 190.64 18.08C190.4 18.09 190.2 18.08 190.02 18.03C189.9 18 189.77 17.98 189.62 17.99C188.25 18.06 186.88 18.12 185.52 18.19C185.25 18.2 185.07 18.18 184.9 18.13C184.77 18.1 184.65 18.09 184.49 18.1C184.31 18.1 184.21 18.12 184.11 18.16C183.99 18.21 183.91 18.28 183.61 18.28C183.31 18.28 183 18.3 182.7 18.32C182.42 18.35 182.28 18.29 182.11 18.25C181.97 18.22 181.85 18.22 181.68 18.23C181.52 18.24 181.42 18.27 181.33 18.31C181.13 18.4 181.11 18.4 180.86 18.34C180.73 18.31 180.61 18.29 180.46 18.29C179.85 18.32 179.25 18.35 178.64 18.38C178.29 18.4 178.29 18.4 178.02 18.33C177.89 18.3 177.77 18.28 177.62 18.29C175.95 18.37 174.28 18.45 172.61 18.53C172.35 18.55 172.17 18.52 171.99 18.48C171.93 18.46 171.87 18.45 171.8 18.44C171.73 18.43 171.65 18.44 171.58 18.44C170.37 18.5 169.15 18.55 167.94 18.62C167.66 18.63 167.51 18.59 167.32 18.56C167.26 18.54 167.2 18.53 167.13 18.52C167.07 18.52 166.98 18.53 166.91 18.53C165.69 18.59 164.47 18.64 163.26 18.71C162.97 18.72 162.85 18.66 162.66 18.64C162.6 18.62 162.53 18.6 162.47 18.61C162.09 18.62 161.71 18.64 161.33 18.66C160.42 18.7 159.5 18.74 158.59 18.79C158.24 18.81 158.09 18.69 157.8 18.69C157.41 18.7 157.04 18.73 156.66 18.75C156.35 18.76 156.05 18.77 155.74 18.79C155.45 18.8 155.45 18.8 154.7 18.73C154.64 18.72 154.56 18.71 154.49 18.71C153.43 18.76 152.36 18.81 151.3 18.87C151.06 18.88 150.86 18.87 150.68 18.82C150.56 18.79 150.43 18.77 150.28 18.78C148.68 18.85 147.09 18.93 145.49 19.01C145.43 19.01 145.35 18.99 145.29 18.98C145.16 18.96 145.04 18.93 144.92 18.91C144.82 18.94 144.7 18.97 144.64 19C144.56 19.05 144.45 19.06 144.28 19.07C144.1 19.08 143.99 19.07 143.85 19.04C143.69 19 143.52 18.96 143.25 18.98C141.57 19.06 139.9 19.14 138.23 19.22C137.96 19.23 137.83 19.17 137.64 19.14C137.57 19.13 137.5 19.12 137.44 19.12C136.75 19.15 136.07 19.19 135.38 19.22C133.48 19.31 131.58 19.4 129.69 19.49C129.34 19.51 129.11 19.48 128.86 19.42C128.81 19.41 128.73 19.4 128.66 19.4C126 19.53 123.34 19.65 120.69 19.78C120.54 19.79 120.4 19.77 120.29 19.73C120.17 19.7 120.04 19.68 119.89 19.69C118.67 19.74 117.46 19.8 116.24 19.86C115.94 19.87 115.94 19.88 115.62 19.81C115.56 19.8 115.49 19.77 115.44 19.77C115.33 19.78 115.23 19.81 115.16 19.86C115.08 19.91 114.97 19.92 114.8 19.93C114.62 19.94 114.51 19.94 114.38 19.9C114.21 19.86 114.05 19.83 113.77 19.84C110.28 20.01 106.79 20.17 103.29 20.34C103.01 20.36 102.88 20.3 102.69 20.27C102.63 20.26 102.56 20.25 102.49 20.25C102.42 20.24 102.34 20.25 102.27 20.25C96.57 20.53 90.87 20.8 85.18 21.07C84.83 21.09 84.84 21.09 84.47 21.21C84.42 21.22 84.36 21.24 84.3 21.25C82.55 21.33 80.8 21.41 79.05 21.5C78.3 21.53 77.54 21.57 76.78 21.61C76.51 21.62 76.51 21.62 75.86 21.76C75.8 21.77 75.74 21.79 75.67 21.79C72.63 21.94 69.6 22.08 66.56 22.23C66.32 22.24 66.12 22.26 66.01 22.33C65.93 22.37 65.83 22.4 65.68 22.41C63.55 22.51 61.43 22.61 59.3 22.71C59.04 22.72 58.89 22.76 58.77 22.81C58.73 22.83 58.69 22.85 58.63 22.87C58.58 22.88 58.49 22.88 58.42 22.89C56.6 22.98 54.78 23.06 52.95 23.15C52.68 23.16 52.57 23.21 52.44 23.26C52.39 23.28 52.36 23.3 52.3 23.31C52.24 23.33 52.15 23.33 52.08 23.33C50.56 23.4 49.04 23.47 47.52 23.55C47.23 23.54 47.16 23.62 47.02 23.66C46.97 23.68 46.93 23.7 46.87 23.71C46.81 23.72 46.72 23.72 46.65 23.72C45.43 23.78 44.22 23.84 43 23.9C42.72 23.91 42.66 23.98 42.51 24.02C42.46 24.04 42.41 24.06 42.35 24.06C41.59 24.1 40.83 24.14 40.07 24.17C39.82 24.19 39.82 24.18 39.37 24.32C39.32 24.33 39.26 24.35 39.2 24.35C38.06 24.41 36.92 24.46 35.78 24.52C35.63 24.52 35.53 24.55 35.45 24.6C35.38 24.65 35.27 24.67 35.13 24.68C34.22 24.73 33.31 24.77 32.39 24.81C32.14 24.82 31.98 24.86 31.86 24.92C31.78 24.96 31.68 24.98 31.52 24.99C30.61 25.03 29.7 25.08 28.78 25.12C28.51 25.13 28.38 25.17 28.27 25.23C28.18 25.28 28.08 25.29 27.91 25.3C26.24 25.38 24.56 25.46 22.9 25.54C22.61 25.56 22.47 25.51 22.29 25.48C22.03 25.43 21.78 25.38 21.78 25.27C21.78 25.26 21.7 25.24 21.65 25.23C21.24 25.13 21.24 25.13 21.17 25.02C21.14 24.95 21.1 24.89 21.06 24.82C21 24.71 20.86 24.68 20.43 24.7C20.28 24.71 20.13 24.72 19.98 24.72C19.75 24.73 19.58 24.69 19.54 24.61C19.52 24.56 19.49 24.52 19.47 24.48C19.7 24.47 19.69 24.46 20.1 24.3C20.27 24.23 20.27 24.23 19.94 24.17C19.82 24.14 19.7 24.11 19.56 24.09C19.5 24.08 19.43 24.07 19.36 24.07C18.98 24.09 18.6 24.11 18.22 24.13C17.62 24.16 17.62 24.16 17 24.02C16.95 24.01 16.87 23.99 16.88 23.98C16.93 23.93 17.06 23.91 17.21 23.9C17.44 23.89 17.67 23.88 17.89 23.87C18.04 23.86 18.2 23.86 18.35 23.85C18.49 23.8 18.64 23.75 18.77 23.7C18.98 23.62 18.98 23.61 18.69 23.56C18.51 23.52 18.31 23.49 18.12 23.45C17.9 23.46 17.67 23.47 17.44 23.48C17.16 23.5 17.04 23.47 16.97 23.38C16.9 23.31 16.98 23.24 17.2 23.23C17.43 23.21 17.64 23.2 17.75 23.13C17.86 23.07 18.06 23.04 18.3 23.04C18.45 23.03 18.6 23.02 18.75 23.01C18.95 23 19.06 22.94 19.02 22.86C18.99 22.81 18.95 22.77 18.77 22.76C17.97 22.71 17.96 22.71 17.57 22.62C17.53 22.61 17.5 22.59 17.52 22.58C17.54 22.56 17.59 22.53 17.64 22.52C18.17 22.49 18.7 22.47 19.23 22.45C19.41 22.44 19.54 22.43 19.6 22.38C19.68 22.31 19.64 22.25 19.48 22.2C19.43 22.19 19.35 22.17 19.29 22.17C18.68 22.2 18.08 22.23 17.47 22.25C17.42 22.25 17.32 22.23 17.29 22.21C17.25 22.18 17.32 22.14 17.48 22.12C17.69 22.1 17.91 22.1 18.05 22.04C18.25 21.94 18.49 21.85 18.71 21.76C18.75 21.75 18.81 21.72 18.79 21.71C18.68 21.68 18.55 21.66 18.43 21.63C18.22 21.59 18.22 21.52 18.27 21.46C18.31 21.41 18.44 21.39 18.62 21.39C18.69 21.39 18.78 21.39 18.84 21.38C19 21.35 19.05 21.31 18.97 21.28C18.92 21.26 18.84 21.24 18.79 21.24C17.8 21.29 16.81 21.33 15.83 21.39C15.54 21.4 15.41 21.35 15.23 21.32C15.1 21.29 14.97 21.28 14.81 21.3C14.65 21.32 14.5 21.3 14.4 21.26C14.33 21.22 14.46 21.19 14.84 21.16C14.91 21.15 14.98 21.15 15.03 21.14C15.57 20.99 15.57 20.99 15.94 20.97C16.3 20.95 16.3 20.95 16.48 20.87C16.57 20.84 16.67 20.8 16.75 20.77C16.78 20.75 16.84 20.72 16.82 20.72C16.72 20.67 16.58 20.66 16.42 20.67C16.06 20.7 15.64 20.68 15.45 20.81C15.38 20.85 15.26 20.87 15.09 20.87C13.43 20.95 11.76 21.03 10.09 21.11C9.82 21.12 9.7 21.17 9.59 21.23C9.5 21.27 9.4 21.28 9.22 21.29C9.05 21.3 8.91 21.3 8.81 21.26C8.75 21.23 8.8 21.2 8.94 21.16C9.13 21.11 9.1 21.04 9.03 20.98C8.99 20.93 8.84 20.91 8.69 20.91C8.47 20.91 8.25 20.93 8.06 20.87C7.95 20.84 7.81 20.82 7.69 20.8C7.45 20.74 7.21 20.68 6.88 20.72C6.64 20.71 6.48 20.66 6.3 20.62C5.99 20.56 5.96 20.55 6.18 20.49C6.43 20.41 6.24 20.32 6.38 20.24C6.53 20.17 6.73 20.1 6.91 20.03C6.95 20.01 6.99 19.99 7.04 19.97C6.93 19.94 6.84 19.91 6.71 19.89C6.55 19.87 6.47 19.84 6.48 19.76C6.45 19.74 6.46 19.77 6.5 19.78C6.54 19.79 6.64 19.78 6.69 19.77C6.82 19.75 6.88 19.72 6.85 19.69C6.83 19.67 6.75 19.65 6.69 19.65C6.59 19.65 6.5 19.68 6.47 19.76C5.96 19.81 5.43 19.84 4.89 19.86C4.84 19.86 4.77 19.84 4.7 19.82C4.49 19.78 4.49 19.78 3.87 19.76C3.81 19.76 3.72 19.74 3.69 19.73C3.55 19.64 3.56 19.55 3.49 19.47C3.61 19.41 3.73 19.36 3.86 19.3C4.1 19.19 4.43 19.09 4.62 18.97C4.58 18.91 4.52 18.84 4.73 18.79C5.3 18.72 5.3 18.72 5.45 18.66C5.9 18.47 6.34 18.29 6.81 18.11C6.93 18.07 6.93 18.04 6.71 18.02C6.64 18.02 6.57 18.01 6.49 18.02C6.26 18.03 6.03 18.05 5.81 18.04C5.58 18.04 5.42 17.98 5.23 17.95C5.04 17.91 4.85 17.87 4.67 17.83C4.45 17.83 4.23 17.87 4.02 17.81C3.85 17.77 3.64 17.73 3.46 17.69C3.6 17.59 3.87 17.51 4.07 17.42C4.26 17.34 4.27 17.34 4.77 17.28C5.01 17.25 5.09 17.1 4.89 17.06C4.65 17 4.39 16.95 4.14 16.9C3.93 16.91 3.7 16.94 3.5 16.88C3.34 16.84 3.15 16.81 2.89 16.82C2.43 16.85 1.97 16.87 1.52 16.89C1.36 16.9 1.19 16.9 1.12 16.85C1.08 16.82 1.21 16.77 1.36 16.76C1.59 16.75 1.8 16.74 1.91 16.67C2.02 16.6 2.23 16.58 2.47 16.57C2.53 16.57 2.6 16.55 2.64 16.54C2.8 16.46 2.99 16.39 3.34 16.4C3.49 16.37 3.57 16.34 3.52 16.3C3.49 16.29 3.4 16.26 3.34 16.27C2.96 16.28 2.58 16.29 2.2 16.32C2.03 16.33 1.9 16.33 1.79 16.29C1.71 16.26 1.75 16.23 1.9 16.19C2.02 16.16 2.06 16.12 2.05 16.07C2.03 15.97 1.89 15.93 1.45 15.94C1.13 15.95 1.05 15.93 0.98 15.84C0.97 15.82 0.92 15.79 0.95 15.77C1.15 15.68 1.28 15.57 1.65 15.53C1.8 15.51 1.96 15.51 2.05 15.48C2.14 15.44 2.22 15.4 2.32 15.37C2.44 15.33 2.52 15.29 2.47 15.27C2.37 15.22 2.23 15.22 2.06 15.23C1.91 15.25 1.75 15.25 1.6 15.25C1.33 15.27 1.11 15.23 1.08 15.18C0.99 15.02 0.9 14.87 0.82 14.71C0.81 14.69 0.83 14.67 0.87 14.65C1 14.6 1.14 14.54 1.27 14.49C1.43 14.43 1.67 14.44 1.89 14.43C2.19 14.41 2.19 14.41 2.59 14.28C2.74 14.23 3.01 14.25 3.17 14.21C3.23 14.19 3.3 14.17 3.29 14.15C3.27 14.14 3.18 14.12 3.11 14.11C3.05 14.11 2.97 14.1 2.9 14.11C2.06 14.15 1.23 14.19 0.39 14.22C0.25 14.23 0.09 14.2 0.04 14.16C-0.01 14.12 0 14.07 0 14.03C0.13 13.98 0.28 13.93 0.4 13.87C0.48 13.82 0.58 13.8 0.76 13.8C0.99 13.79 1.21 13.78 1.47 13.77C1.95 13.57 2.42 13.37 2.94 13.17C3.14 13.09 3.09 13.01 3.13 12.93C3.18 12.85 3.48 12.86 3.69 12.84C3.86 12.82 3.91 12.78 3.85 12.75C3.81 12.73 3.73 12.71 3.66 12.71C3.51 12.71 3.36 12.72 3.21 12.73C3.06 12.74 2.88 12.73 2.76 12.76C2.64 12.78 2.56 12.82 2.48 12.86C2.39 12.9 2.28 12.92 2.1 12.92C1.88 12.92 1.65 12.94 1.43 12.95C1.18 12.89 0.92 12.84 0.68 12.79C0.63 12.78 0.63 12.75 0.63 12.73C0.64 12.67 0.57 12.64 0.42 12.62C0.29 12.6 0.18 12.56 0.06 12.54C0.16 12.5 0.26 12.47 0.33 12.43C0.49 12.35 0.69 12.29 1.04 12.29C1.18 12.24 1.29 12.17 1.47 12.14C1.64 12.1 1.93 12.14 2.06 12.06C2.13 12.02 2.22 11.98 2.35 11.96C2.54 11.94 2.8 11.95 2.92 11.87C2.99 11.83 3.09 11.79 3.22 11.78C3.37 11.77 3.53 11.77 3.64 11.74C3.7 11.73 3.76 11.71 3.76 11.69C3.76 11.68 3.67 11.66 3.61 11.65C3.55 11.64 3.47 11.63 3.4 11.64C3.17 11.64 2.94 11.66 2.71 11.67C2.65 11.67 2.58 11.66 2.51 11.65C2.31 11.63 2.32 11.6 2.48 11.56C2.64 11.51 2.76 11.45 2.89 11.39C3.04 11.38 3.22 11.39 3.32 11.36C3.49 11.32 3.61 11.26 3.75 11.21C3.9 11.2 4.06 11.2 4.2 11.18C4.26 11.18 4.29 11.15 4.34 11.13C4.43 11.1 4.51 11.05 4.63 11.03C4.84 11.01 5.08 11.02 5.2 10.95C5.27 10.9 5.38 10.86 5.51 10.86C5.87 10.85 6.02 10.78 6.2 10.71C6.34 10.66 6.64 10.68 6.79 10.63C6.89 10.6 6.96 10.56 7.06 10.52C7.11 10.51 7.19 10.5 7.26 10.5C7.64 10.48 8.02 10.46 8.4 10.44C8.46 10.44 8.51 10.42 8.56 10.4C8.66 10.37 8.72 10.32 8.84 10.3C8.96 10.27 9.13 10.27 9.27 10.27C9.75 10.25 9.78 10.25 10 10.14C10.17 10.05 10.6 10.11 10.75 10.01C10.83 9.95 10.98 9.9 11.25 9.9C11.63 9.89 12.01 9.86 12.39 9.85C12.73 9.83 12.73 9.83 13.1 9.71C13.26 9.65 13.51 9.66 13.72 9.65C13.95 9.64 14.16 9.62 14.28 9.55C14.39 9.49 14.59 9.47 14.82 9.46C15.04 9.45 15.28 9.45 15.45 9.4C15.87 9.27 15.86 9.27 16.15 9.26C16.61 9.24 17.06 9.21 17.52 9.19C17.82 9.18 18.14 9.17 18.43 9.15C18.63 9.12 18.73 9.05 18.86 9C19.24 8.98 19.61 8.96 19.99 8.94C20.52 8.91 21.05 8.89 21.59 8.86C21.82 8.81 21.85 8.7 22.24 8.69C22.47 8.69 22.69 8.67 22.92 8.66C23.3 8.64 23.68 8.62 24.06 8.61C24.35 8.6 24.4 8.53 24.56 8.49C24.61 8.47 24.65 8.45 24.71 8.44C25.31 8.41 25.93 8.4 26.51 8.34C26.57 8.34 26.63 8.31 26.64 8.29C26.65 8.28 26.57 8.26 26.52 8.25C26.46 8.24 26.38 8.23 26.32 8.23C24.42 8.32 22.52 8.41 20.62 8.5C20.35 8.51 20.35 8.51 19.7 8.66C19.65 8.67 19.58 8.69 19.51 8.69C19.21 8.71 18.9 8.72 18.6 8.74C18.36 8.75 18.15 8.74 17.98 8.69C17.86 8.65 17.73 8.64 17.57 8.64C17.4 8.65 17.28 8.66 17.18 8.7C17.05 8.75 16.98 8.81 16.7 8.83C15.4 8.88 14.11 8.95 12.82 9.01C12.64 8.99 12.55 8.96 12.6 8.93C12.63 8.91 12.68 8.88 12.74 8.88C13.27 8.85 13.8 8.83 14.33 8.8C14.4 8.8 14.51 8.8 14.55 8.79C14.75 8.73 14.82 8.63 15.21 8.62C15.43 8.62 15.65 8.6 15.86 8.58C15.92 8.57 15.98 8.55 15.99 8.53C16 8.51 15.92 8.49 15.87 8.49C15.67 8.45 15.43 8.49 15.23 8.47C15.16 8.46 15.06 8.44 15.05 8.43C15.04 8.41 15.12 8.39 15.17 8.37C15.22 8.36 15.29 8.35 15.36 8.34C15.97 8.31 16.58 8.28 17.18 8.26C17.43 8.25 17.61 8.22 17.72 8.15C17.8 8.11 17.9 8.08 18.06 8.08C19.12 8.03 20.18 7.97 21.25 7.93C21.52 7.92 21.66 7.87 21.77 7.82C21.86 7.77 21.96 7.75 22.13 7.75C23.65 7.68 25.16 7.6 26.69 7.53C26.97 7.52 27.05 7.46 27.19 7.41C27.24 7.4 27.28 7.37 27.34 7.36C27.41 7.35 27.49 7.35 27.57 7.35C28.78 7.29 30 7.23 31.22 7.18C31.5 7.17 31.56 7.1 31.7 7.05C31.75 7.04 31.8 7.02 31.86 7.01C32.77 6.97 33.68 6.92 34.59 6.88C35.2 6.85 35.81 6.82 36.42 6.79C36.72 6.78 36.72 6.78 37.12 6.65C37.17 6.64 37.23 6.62 37.29 6.61C39.04 6.53 40.78 6.45 42.53 6.36C42.68 6.36 42.79 6.33 42.86 6.28C42.93 6.24 43.04 6.2 43.18 6.2C44.55 6.13 45.91 6.07 47.29 6C47.53 5.99 47.71 5.96 47.82 5.9C47.9 5.85 48 5.83 48.16 5.82C49.53 5.76 50.89 5.69 52.27 5.63C52.53 5.62 52.66 5.57 52.79 5.52C52.83 5.5 52.87 5.47 52.92 5.47C53.6 5.43 54.28 5.39 54.97 5.37C55.25 5.35 55.35 5.3 55.46 5.25C55.56 5.2 55.66 5.19 55.84 5.18C56.22 5.17 56.6 5.15 56.97 5.12C57.02 5.12 57.09 5.09 57.1 5.07C57.11 5.04 57 5.01 56.83 5C55 5.09 53.18 5.18 51.35 5.26C51.06 5.28 51.06 5.28 50.65 5.4C50.6 5.42 50.54 5.44 50.48 5.44C48.73 5.52 46.98 5.61 45.23 5.69C45.09 5.7 44.98 5.73 44.91 5.77C44.83 5.82 44.73 5.85 44.58 5.86C42.91 5.94 41.24 6.02 39.57 6.09C39.32 6.11 39.15 6.14 39.03 6.2C38.95 6.24 38.85 6.27 38.69 6.27C37.1 6.35 35.5 6.43 33.9 6.5C33.74 6.51 33.62 6.47 33.63 6.43C33.64 6.41 33.71 6.38 33.76 6.38C34.59 6.34 35.42 6.29 36.26 6.26C36.54 6.25 36.62 6.19 36.77 6.14C36.81 6.12 36.85 6.1 36.91 6.09C36.97 6.08 37.06 6.08 37.13 6.08C39.11 5.98 41.08 5.89 43.06 5.8C43.35 5.78 43.4 5.72 43.55 5.67C43.6 5.65 43.65 5.63 43.71 5.63C44.31 5.6 44.92 5.57 45.53 5.54C46.59 5.49 47.65 5.44 48.72 5.39C49.03 5.37 49.03 5.37 49.43 5.25C49.47 5.23 49.54 5.21 49.6 5.21C52.41 5.08 55.22 4.94 58.03 4.81C58.18 4.8 58.29 4.77 58.36 4.72C58.43 4.68 58.54 4.65 58.68 4.64C62.48 4.46 66.28 4.28 70.08 4.1C70.33 4.09 70.5 4.06 70.61 3.99C70.69 3.95 70.8 3.92 70.95 3.92C75.13 3.72 79.31 3.52 83.5 3.32C86.31 3.18 89.12 3.05 91.93 2.92C92.19 2.91 92.33 2.86 92.46 2.81C92.5 2.79 92.54 2.76 92.59 2.76C93.2 2.72 93.8 2.69 94.4 2.66C94.59 2.7 94.78 2.73 94.97 2.77C95.11 2.72 95.25 2.67 95.39 2.62C96.3 2.58 97.2 2.52 98.12 2.5C98.18 2.5 98.25 2.52 98.31 2.54C98.74 2.62 98.98 2.61 99.25 2.5C99.35 2.46 99.43 2.42 99.58 2.42C100.04 2.39 100.5 2.38 100.95 2.35C101.19 2.33 101.39 2.35 101.57 2.4C101.69 2.43 101.82 2.45 101.97 2.44C102.81 2.4 103.64 2.36 104.48 2.32C104.54 2.31 104.6 2.29 104.64 2.27C104.74 2.24 104.82 2.2 104.91 2.17C105.04 2.19 105.18 2.21 105.28 2.24C105.41 2.27 105.53 2.27 105.7 2.26C109.04 2.1 112.39 1.94 115.73 1.78C116.01 1.77 116.14 1.82 116.33 1.85C116.4 1.86 116.46 1.88 116.53 1.88C116.6 1.88 116.68 1.87 116.76 1.87C119.26 1.75 121.77 1.63 124.28 1.51C124.61 1.49 124.61 1.49 125.1 1.58C125.16 1.59 125.24 1.6 125.31 1.59C126.45 1.54 127.59 1.49 128.73 1.43C128.87 1.43 129 1.45 129.13 1.48C129.39 1.54 129.41 1.54 129.6 1.45C129.7 1.41 129.79 1.38 129.94 1.37C130.11 1.36 130.24 1.36 130.37 1.39C130.56 1.42 130.69 1.48 130.97 1.46C132.19 1.4 133.41 1.35 134.62 1.28C134.89 1.27 135.04 1.31 135.22 1.35C135.29 1.36 135.35 1.38 135.42 1.38C135.49 1.38 135.57 1.38 135.64 1.37C137.16 1.3 138.68 1.23 140.2 1.15C140.48 1.14 140.61 1.19 140.8 1.22C140.87 1.23 140.94 1.25 141 1.25C141.91 1.21 142.83 1.16 143.74 1.12C144.06 1.1 144.06 1.11 144.56 1.19C144.62 1.2 144.7 1.21 144.76 1.21C145.83 1.16 146.89 1.11 147.96 1.05C148.28 1.04 148.28 1.04 149.23 1.11C149.3 1.11 149.37 1.12 149.44 1.12C150.65 1.06 151.87 1.01 153.09 0.94C153.33 0.93 153.53 0.94 153.71 0.99C153.83 1.03 153.96 1.04 154.12 1.03C155.48 0.97 156.85 0.9 158.22 0.83C158.48 0.82 158.65 0.85 158.83 0.89C158.89 0.9 158.95 0.92 159.02 0.93C159.09 0.93 159.17 0.93 159.24 0.92C160.61 0.86 161.98 0.8 163.34 0.72C163.62 0.71 163.77 0.76 163.95 0.79C164.01 0.8 164.08 0.82 164.14 0.82C164.67 0.8 165.21 0.78 165.74 0.75C166.02 0.73 166.15 0.79 166.34 0.82C166.4 0.83 166.48 0.85 166.54 0.85C167.68 0.79 168.82 0.74 169.96 0.68C170.12 0.68 170.24 0.69 170.37 0.72C170.54 0.77 170.73 0.79 170.98 0.77C171.51 0.74 172.05 0.72 172.58 0.7C172.89 0.68 172.89 0.68 173.85 0.75C173.92 0.76 173.99 0.76 174.06 0.76C174.97 0.72 175.89 0.68 176.79 0.63C177.04 0.62 177.24 0.63 177.42 0.68C177.54 0.71 177.66 0.73 177.82 0.72C178.66 0.68 179.49 0.64 180.33 0.6C180.63 0.58 180.94 0.56 181.24 0.56C181.46 0.56 181.62 0.62 181.82 0.66C181.88 0.66 181.97 0.65 182.04 0.65C183.1 0.6 184.17 0.55 185.23 0.5C185.51 0.48 185.65 0.53 185.84 0.56C185.9 0.57 185.97 0.6 186.03 0.59C186.41 0.58 186.79 0.56 187.17 0.54C187.62 0.52 188.08 0.51 188.53 0.48C188.9 0.45 189.04 0.57 189.34 0.57C189.56 0.58 189.79 0.55 190.02 0.54C190.47 0.52 190.93 0.5 191.38 0.48C191.54 0.47 191.67 0.45 191.72 0.4C191.73 0.39 191.65 0.37 191.6 0.36C190.99 0.22 190.99 0.22 190.37 0.25C189.99 0.27 189.61 0.29 189.23 0.31C189.16 0.31 189.09 0.3 189.03 0.29C188.84 0.27 188.86 0.24 189.02 0.19C189.17 0.15 189.29 0.09 189.43 0.03C189.62 0.07 189.8 0.1 189.99 0.14C190.14 0.13 190.29 0.12 190.44 0.12C191.2 0.08 191.96 0.04 192.72 0.01C192.78 0.01 192.85 0.04 192.91 0.05C193.09 0.09 193.26 0.12 193.53 0.11C194.21 0.07 194.89 0.04 195.58 0.01C195.87 -0.01 195.87 -0.01 196.4 0.08C196.46 0.08 196.54 0.1 196.6 0.09C197.29 0.06 197.97 0.03 198.65 0C198.8 -0.01 198.94 0.01 199.05 0.05C199.09 0.06 199.08 0.09 199.26 0.31C199.8 0.49 200.17 0.47 200.55 0.45C200.71 0.44 200.85 0.44 200.96 0.41C201.02 0.4 201.08 0.37 201.08 0.36C201.08 0.34 200.98 0.32 200.92 0.32C200.46 0.29 200.03 0.35 199.58 0.36C199.38 0.37 199.2 0.32 199.16 0.24C199.15 0.22 199.14 0.2 199.12 0.18C199.11 0.16 199.1 0.13 199.09 0.11C198.91 0.11 198.8 0.13 198.72 0.18C198.66 0.21 198.57 0.26 198.44 0.28C198.32 0.3 198.15 0.29 198 0.3C197.85 0.31 197.69 0.32 197.55 0.31C197.41 0.3 197.3 0.27 197.17 0.24C197.11 0.23 197.04 0.21 196.98 0.21C196.45 0.24 195.93 0.26 195.4 0.29C195.12 0.31 194.99 0.25 194.81 0.21C194.67 0.19 194.54 0.19 194.51 0.26C194.45 0.4 194.66 0.46 195.13 0.44C195.52 0.41 195.87 0.41 196.17 0.5C196.22 0.51 196.31 0.52 196.37 0.51C196.75 0.5 197.12 0.48 197.5 0.46C197.57 0.46 197.64 0.46 197.71 0.47C198.65 0.54 198.65 0.54 198.96 0.53C199.11 0.52 199.26 0.51 199.25 0.31C199.54 0.09 200 0.08 200.44 0.04C200.73 0.02 200.86 0.08 201.05 0.11C201.11 0.12 201.18 0.15 201.24 0.14C202.23 0.1 203.21 0.05 204.2 0C204.37 0 204.49 0 204.61 0.04C204.78 0.08 204.96 0.11 205.23 0.09C205.75 0.06 206.28 0.04 206.82 0.02C207.09 0 207.09 0 207.64 0.08C207.7 0.09 207.78 0.1 207.84 0.1C208.37 0.08 208.9 0.05 209.43 0.03C209.58 0.02 209.71 0.04 209.83 0.08C209.94 0.11 210.08 0.13 210.22 0.12C210.76 0.1 211.29 0.07 211.82 0.05C211.88 0.05 211.96 0.06 212.02 0.06C212.58 0.15 212.58 0.15 212.84 0.13C213.22 0.11 213.6 0.1 213.97 0.08C214.34 0.05 214.53 0.13 214.78 0.17C215.46 0.14 216.14 0.12 216.82 0.08C217.09 0.06 217.24 0.11 217.43 0.14C217.49 0.15 217.56 0.18 217.61 0.18C217.85 0.17 218.07 0.16 218.3 0.15C218.52 0.14 218.75 0.12 218.98 0.11C219.24 0.15 219.41 0.24 219.77 0.21C219.99 0.19 220.23 0.19 220.45 0.18C220.68 0.17 220.91 0.16 221.14 0.15C221.29 0.14 221.44 0.14 221.59 0.12C221.86 0.1 222 0.17 222.19 0.2C222.25 0.21 222.33 0.22 222.39 0.22C222.84 0.2 223.3 0.19 223.75 0.16C224.09 0.13 224.33 0.17 224.57 0.23C224.62 0.24 224.71 0.25 224.78 0.24C225.31 0.22 225.84 0.19 226.37 0.17C226.51 0.16 226.65 0.18 226.76 0.22C226.88 0.26 227.02 0.27 227.16 0.27C227.69 0.24 228.23 0.22 228.76 0.19C228.82 0.19 228.9 0.2 228.96 0.21C229.47 0.29 229.47 0.29 229.78 0.28C229.85 0.27 229.93 0.27 230 0.27C230.38 0.25 230.77 0.24 231.14 0.21C231.56 0.17 231.87 0.22 232.17 0.3C232.55 0.28 232.94 0.27 233.3 0.24C233.58 0.22 233.73 0.27 233.91 0.31C233.98 0.32 234.04 0.34 234.1 0.34C234.63 0.32 235.17 0.3 235.69 0.27C235.98 0.25 236.1 0.31 236.29 0.34C236.36 0.35 236.43 0.37 236.49 0.36C236.79 0.35 237.1 0.34 237.4 0.32C237.75 0.31 237.75 0.31 238.22 0.39C238.44 0.43 238.66 0.4 238.88 0.39C239.11 0.38 239.33 0.37 239.51 0.42C239.63 0.46 239.77 0.48 239.91 0.47C240.21 0.46 240.52 0.45 240.82 0.43C241.06 0.41 241.27 0.42 241.44 0.47C241.56 0.51 241.69 0.53 241.85 0.52C242.53 0.49 243.21 0.45 243.89 0.42C243.95 0.42 244.04 0.43 244.09 0.44C244.22 0.47 244.34 0.49 244.47 0.52C244.77 0.51 245.08 0.5 245.37 0.48C245.68 0.47 245.97 0.46 246.21 0.53C246.26 0.55 246.34 0.57 246.4 0.57C246.63 0.56 246.85 0.55 247.08 0.54C247.3 0.53 247.53 0.52 247.76 0.51C248.02 0.54 248.19 0.64 248.56 0.61C248.78 0.59 249.01 0.58 249.24 0.57C249.46 0.56 249.69 0.55 249.92 0.54C249.99 0.54 250.07 0.53 250.14 0.54C250.21 0.54 250.27 0.56 250.33 0.57C250.51 0.61 250.68 0.65 250.94 0.63C251.16 0.61 251.4 0.61 251.62 0.59C251.93 0.58 251.93 0.58 252.44 0.66C252.65 0.7 252.89 0.65 253.08 0.68C253.22 0.7 253.33 0.74 253.46 0.76C253.52 0.77 253.6 0.77 253.67 0.77C253.97 0.76 254.28 0.75 254.58 0.73C254.82 0.71 255.03 0.73 255.2 0.77C255.32 0.81 255.44 0.82 255.6 0.82C256.36 0.78 257.12 0.75 257.87 0.7C258.13 0.69 258.34 0.71 258.48 0.76C258.73 0.84 259.07 0.75 259.32 0.81C259.48 0.85 259.64 0.9 259.92 0.88C260.45 0.85 260.98 0.83 261.51 0.8C261.7 0.84 261.89 0.88 262.08 0.91C262.38 0.9 262.69 0.88 262.99 0.87C263.22 0.86 263.45 0.85 263.67 0.84C263.75 0.84 263.82 0.83 263.89 0.84C263.96 0.84 264.02 0.86 264.08 0.87C264.4 0.94 264.4 0.94 264.92 0.91C265.15 0.9 265.37 0.89 265.56 0.95C265.73 1 265.94 1.01 266.18 0.99C266.63 0.97 267.08 0.95 267.54 0.93C267.69 0.92 267.82 0.94 267.94 0.98C268.12 1.03 268.34 1.03 268.56 1.01C268.86 0.99 269.16 0.97 269.41 1.05C269.46 1.07 269.54 1.09 269.6 1.09C269.97 1.08 270.35 1.07 270.72 1.04C271.09 1.02 271.27 1.1 271.52 1.14C271.9 1.12 272.28 1.11 272.66 1.09C272.73 1.08 272.82 1.07 272.89 1.08C273.16 1.11 273.31 1.21 273.69 1.18C273.9 1.16 274.14 1.15 274.36 1.15C274.42 1.15 274.5 1.17 274.54 1.19C274.57 1.2 274.54 1.22 274.51 1.24C274.43 1.27 274.33 1.31 274.26 1.35C274.25 1.35 274.34 1.38 274.39 1.39C274.51 1.41 274.65 1.41 274.82 1.4C274.96 1.39 275.11 1.41 275.21 1.45C275.25 1.46 275.24 1.49 275.15 1.58C275.15 1.64 275.25 1.61 275.28 1.57C275.33 1.51 275.23 1.49 275.05 1.52C274.92 1.55 274.85 1.58 274.89 1.61C274.91 1.62 274.99 1.64 275.15 1.58C275.56 1.5 275.86 1.48 276.16 1.47C276.24 1.46 276.33 1.45 276.39 1.46C276.59 1.49 276.77 1.53 276.96 1.57C277.18 1.56 277.39 1.54 277.61 1.59C277.91 1.66 277.93 1.66 278.22 1.64C278.37 1.63 278.52 1.63 278.68 1.62C278.83 1.61 278.95 1.63 279.08 1.66C279.35 1.73 279.38 1.73 279.55 1.64C279.66 1.59 279.73 1.57 279.87 1.6C280.31 1.68 280.31 1.68 280.69 1.66C281 1.64 281.3 1.63 281.53 1.71C281.69 1.76 281.74 1.75 281.86 1.69C282.19 1.55 282.34 1.55 282.96 1.66C283.25 1.71 283.55 1.65 283.85 1.65C284.1 1.64 284.27 1.67 284.29 1.76C284.3 1.81 284.35 1.85 284.51 1.86C284.57 1.87 284.65 1.88 284.72 1.88C285.1 1.86 285.48 1.84 285.86 1.82C286.05 1.81 286.16 1.75 286.12 1.67C286.08 1.58 286.15 1.55 286.43 1.52C286.6 1.51 286.73 1.51 286.86 1.53C287.01 1.56 286.97 1.59 286.84 1.63C286.53 1.75 286.57 1.82 286.96 1.9C287.1 1.93 287.21 1.96 287.24 2C287.26 2.02 287.24 2.05 287.29 2.06C287.51 2.15 287.82 2.21 288.17 2.25C288.51 2.22 288.74 2.28 289 2.33C289.2 2.36 289.44 2.33 289.66 2.32C289.9 2.3 290.1 2.31 290.28 2.36C290.4 2.4 290.53 2.41 290.68 2.41C290.99 2.39 291.29 2.38 291.59 2.36C291.85 2.34 292.04 2.37 292.21 2.42C292.41 2.47 292.63 2.43 292.85 2.44C293.13 2.45 293.27 2.57 293.65 2.54C293.87 2.52 294.1 2.51 294.33 2.51C294.39 2.51 294.46 2.53 294.51 2.55C294.76 2.62 295.04 2.62 295.35 2.59C295.57 2.58 295.78 2.57 295.99 2.62C296.34 2.7 296.73 2.78 297.1 2.86C297.15 2.92 297.11 2.99 297.37 3.03C297.51 3.04 297.64 3.07 297.75 3.1C297.88 3.14 298 3.15 298.16 3.14C298.46 3.12 298.77 3.12 299.07 3.09C299.34 3.07 299.51 3.12 299.67 3.16C299.81 3.19 299.93 3.21 300.09 3.18C300.26 3.16 300.38 3.17 300.51 3.21C300.7 3.26 300.72 3.25 301.34 3.27C301.41 3.27 301.48 3.29 301.52 3.31C301.54 3.32 301.5 3.34 301.47 3.36C301.42 3.37 301.36 3.39 301.3 3.4C300.62 3.43 299.93 3.46 299.25 3.5C299.18 3.5 299.11 3.51 299.06 3.52C299 3.54 298.93 3.56 298.93 3.58C298.93 3.59 299.03 3.61 299.09 3.61C299.29 3.65 299.53 3.6 299.73 3.63C299.86 3.66 299.97 3.69 300.11 3.71C300.16 3.72 300.25 3.72 300.32 3.72C300.55 3.71 300.78 3.69 301.01 3.68C301.07 3.68 301.14 3.7 301.2 3.71C301.64 3.79 301.64 3.79 302.03 3.77C302.18 3.76 302.34 3.74 302.48 3.75C302.62 3.76 302.74 3.8 302.86 3.82C303.12 3.87 303.37 3.91 303.38 4.02C303.39 4.06 303.54 4.09 303.7 4.09C303.84 4.1 304 4.08 304.15 4.07C304.51 4.06 304.51 4.06 304.98 4.14C305.1 4.16 305.24 4.17 305.41 4.15C305.47 4.15 305.55 4.15 305.62 4.16C305.85 4.18 305.85 4.2 305.7 4.25C305.49 4.32 305.51 4.33 306.09 4.39C306.31 4.41 306.48 4.46 306.67 4.49C306.96 4.55 306.96 4.55 306.76 4.63C306.72 4.65 306.67 4.67 306.63 4.69C306.5 4.74 306.39 4.79 306.11 4.8C305.81 4.81 305.51 4.83 305.2 4.84C304.91 4.86 304.83 4.89 304.86 4.98C304.89 5.09 304.95 5.1 305.48 5.1C305.63 5.1 305.76 5.11 305.88 5.15C305.82 5.19 305.72 5.22 305.57 5.23C305.2 5.25 304.82 5.27 304.44 5.29C304.13 5.3 303.83 5.31 303.53 5.33C303.34 5.34 303.22 5.41 303.27 5.49C303.3 5.53 303.32 5.57 303.34 5.62C303.39 5.71 303.49 5.73 303.8 5.72C303.88 5.72 303.95 5.71 304.02 5.72C304.32 5.72 304.47 5.84 304.82 5.81C305.12 5.79 305.44 5.79 305.73 5.77C306 5.74 306.15 5.79 306.34 5.83C306.41 5.84 306.48 5.87 306.53 5.87C306.91 5.85 307.3 5.84 307.67 5.81C307.84 5.8 307.95 5.81 308.09 5.84C308.42 5.92 308.43 5.91 308.92 5.89C309.28 5.87 309.28 5.87 309.74 5.95C309.87 5.98 310.01 5.98 310.18 5.97C310.39 5.95 310.62 5.93 310.84 5.95C310.91 5.96 311 5.97 311.02 5.99C311.04 6 310.97 6.03 310.92 6.04C310.51 6.11 310.04 6.1 309.6 6.13C309.46 6.13 309.32 6.11 309.21 6.07C309.09 6.04 308.96 6.02 308.8 6.03C308.5 6.04 308.19 6.05 307.89 6.07C307.63 6.09 307.45 6.06 307.27 6.02C307.21 6.01 307.14 5.98 307.08 5.98C306.4 6.01 305.72 6.04 305.04 6.07C304.77 6.09 304.61 6.05 304.43 6.01C304.36 6 304.3 5.97 304.24 5.98C304.01 5.98 303.78 6 303.55 6.01C302.72 6.05 301.88 6.09 301.05 6.12C300.99 6.13 300.92 6.1 300.86 6.09C300.73 6.06 300.6 6.04 300.48 6.02C300.25 6.03 300.02 6.04 299.79 6.05C299.62 6.05 299.48 6.07 299.45 6.12C299.44 6.16 299.59 6.19 299.75 6.19C299.91 6.18 300.07 6.17 300.2 6.18C300.83 6.27 300.83 6.27 301.24 6.25C301.58 6.24 301.55 6.22 301.86 6.3C301.99 6.33 302.11 6.35 302.26 6.34C302.64 6.32 303.02 6.3 303.4 6.29C303.46 6.28 303.54 6.3 303.6 6.31C304.05 6.39 304.05 6.39 304.42 6.37C304.91 6.35 304.93 6.34 305.26 6.42C305.48 6.48 305.69 6.44 305.91 6.44C306.15 6.49 306.43 6.54 306.65 6.59C306.92 6.66 307.2 6.65 307.5 6.63C307.73 6.62 307.95 6.61 308.13 6.67C308.31 6.72 308.52 6.72 308.76 6.71C308.98 6.7 309.2 6.67 309.42 6.7C309.48 6.71 309.57 6.73 309.57 6.74C309.56 6.76 309.51 6.79 309.45 6.8C309.02 6.85 308.56 6.85 308.11 6.87C308.05 6.88 307.97 6.86 307.91 6.85C307.78 6.83 307.66 6.8 307.54 6.78C307.31 6.78 307.08 6.79 306.86 6.8C306.69 6.81 306.56 6.81 306.44 6.78C306.32 6.75 306.2 6.71 306.06 6.71C305.92 6.7 305.76 6.72 305.61 6.72C305.46 6.73 305.28 6.73 305.16 6.75C305.04 6.77 304.97 6.82 304.89 6.86C304.8 6.9 304.68 6.91 304.51 6.91C304.35 6.92 304.22 6.91 304.1 6.88C304.05 6.86 303.98 6.85 303.91 6.84C303.84 6.83 303.77 6.81 303.71 6.82C303.03 6.85 302.34 6.88 301.66 6.91C301.32 6.93 301.32 6.93 300.61 6.85C300.55 6.84 300.47 6.83 300.41 6.84C300.02 6.85 299.65 6.87 299.26 6.89C298.88 6.91 298.88 6.9 298.23 6.82C298.1 6.8 297.93 6.83 297.79 6.82C297.49 6.82 297.34 6.7 296.99 6.73C296.69 6.74 296.38 6.75 296.08 6.77C295.81 6.79 295.65 6.75 295.47 6.71C295.4 6.7 295.34 6.67 295.28 6.67C294.59 6.7 293.91 6.74 293 6.74C292.78 6.74 292.88 6.77 293.03 6.78C293.24 6.79 293.31 6.77 293.19 6.71C293.11 6.67 292.99 6.66 292.89 6.67C292.84 6.67 292.78 6.7 293 6.74C293.24 6.79 293.23 6.82 293.27 6.84C293.37 6.88 293.51 6.89 293.66 6.89C293.89 6.88 294.12 6.86 294.35 6.86C294.41 6.85 294.49 6.86 294.55 6.87C295.05 6.96 295.06 6.96 295.6 6.93C295.77 6.92 295.89 6.92 296.03 6.94C296.21 6.98 296.34 7.04 296.62 7.02C297 6.99 297.38 6.98 297.76 6.96C297.82 6.96 297.88 6.99 297.95 7C298.14 7.03 298.28 7.09 298.56 7.06C298.78 7.04 299.01 7.04 299.24 7.03C299.3 7.03 299.39 7.05 299.42 7.07C299.48 7.1 299.41 7.14 299.25 7.16C299.19 7.17 299.1 7.17 299.03 7.18C298.72 7.19 298.42 7.21 298.11 7.22C297.95 7.23 297.8 7.25 297.78 7.29C297.77 7.33 297.94 7.36 298.09 7.35C298.32 7.35 298.55 7.34 298.77 7.32C299.16 7.29 299.5 7.3 299.82 7.39C300.05 7.44 300.03 7.42 300.27 7.6C300.33 7.64 300.51 7.64 300.67 7.64C301.05 7.64 301.22 7.66 301.19 7.7C301.15 7.75 301.01 7.76 300.84 7.77C300.54 7.78 300.24 7.8 299.93 7.81C299.86 7.82 299.78 7.83 299.71 7.82C299.64 7.82 299.57 7.8 299.51 7.79C299.39 7.77 299.27 7.73 299.14 7.72C299 7.71 298.84 7.73 298.69 7.74C298.53 7.74 298.37 7.76 298.23 7.75C298.1 7.75 297.98 7.7 297.86 7.68C297.8 7.67 297.72 7.65 297.66 7.65C297.36 7.66 297.06 7.68 296.75 7.69C296.38 7.71 296.38 7.71 295.93 7.63C295.8 7.6 295.67 7.6 295.5 7.62C295.13 7.64 295.12 7.63 294.45 7.56C294.39 7.55 294.31 7.54 294.24 7.54C293.56 7.57 292.88 7.61 292.2 7.64C291.61 7.67 291.61 7.67 291.29 7.8C291.05 7.9 291.05 7.9 291.28 7.94C291.47 7.98 291.64 8.04 291.85 8.06C292.04 8.08 292.28 8.02 292.49 8.08C292.6 8.11 292.74 8.14 292.87 8.15C293.08 8.15 293.31 8.11 293.51 8.17C293.61 8.2 293.76 8.23 293.89 8.23C294.12 8.24 294.35 8.22 294.57 8.21C294.64 8.2 294.72 8.2 294.78 8.21C294.85 8.22 294.91 8.23 294.97 8.25C295.16 8.29 295.35 8.31 295.59 8.29C295.98 8.25 296.33 8.27 296.64 8.36C296.68 8.37 296.78 8.37 296.84 8.37C297.01 8.35 297.15 8.35 297.28 8.38C297.33 8.39 297.4 8.41 297.39 8.42C297.38 8.44 297.32 8.47 297.26 8.47C296.83 8.52 296.37 8.52 295.92 8.55C295.86 8.55 295.79 8.53 295.73 8.52C295.6 8.5 295.49 8.46 295.35 8.45C295.21 8.44 295.05 8.45 294.9 8.46C294.75 8.47 294.59 8.49 294.45 8.48C294.31 8.47 294.18 8.44 294.07 8.41C293.94 8.37 293.82 8.37 293.65 8.38C293.43 8.4 293.2 8.4 292.97 8.41C292.85 8.39 292.72 8.36 292.59 8.34C292.53 8.32 292.46 8.31 292.39 8.31C292.09 8.32 291.79 8.34 291.48 8.35C291.18 8.37 291.18 8.37 290.66 8.28C290.6 8.27 290.53 8.26 290.46 8.27C290.08 8.28 289.7 8.3 289.32 8.32C289.17 8.32 289.04 8.31 288.92 8.27C288.8 8.23 288.67 8.21 288.52 8.22C287.92 8.25 287.31 8.28 286.7 8.31C286.46 8.32 286.25 8.31 286.08 8.26C285.89 8.21 285.68 8.22 285.45 8.23C284.94 8.26 284.93 8.26 284.61 8.19C284.54 8.18 284.48 8.15 284.42 8.15C283.89 8.17 283.36 8.19 282.83 8.22C282.56 8.24 282.41 8.19 282.22 8.16C282.16 8.15 282.09 8.12 282.04 8.12C281.65 8.14 281.27 8.15 280.9 8.18C280.53 8.2 280.38 8.08 280.1 8.08C279.72 8.08 279.34 8.11 278.97 8.13C278.66 8.15 278.36 8.16 278.05 8.18C277.75 8.19 277.45 8.2 277.14 8.22C276.98 8.23 276.86 8.22 276.73 8.18C276.56 8.14 276.36 8.11 276.17 8.07C275.89 8.01 275.89 8.01 275.55 8.02C275.48 8.03 275.4 8.03 275.32 8.04C274.77 8.06 274.77 8.06 274.06 7.98C274.03 7.97 273.94 7.99 273.91 8C273.82 8.03 273.73 8.07 273.64 8.11C273.52 8.09 273.36 8.07 273.28 8.04C273.05 7.96 272.68 8.08 272.44 7.99C272.35 7.96 272.2 7.93 272.06 7.92C271.92 7.91 271.76 7.93 271.61 7.94C271.23 7.96 271.23 7.96 270.9 8.08C270.74 8.14 270.5 8.13 270.28 8.14C270.06 8.15 269.84 8.16 269.65 8.11C269.48 8.06 269.27 8.05 269.03 8.06C268.73 8.08 268.42 8.09 268.12 8.11C268.05 8.11 267.98 8.1 267.91 8.09C267.21 8.02 267.21 8.01 266.87 8.03C266.71 8.04 266.56 8.04 266.41 8.05C266.16 8.08 265.97 8.05 265.79 8C265.73 7.99 265.67 7.97 265.6 7.97C265.3 7.97 265 7.99 264.7 8C264.47 8.01 264.24 8.01 264.02 8.03C263.65 8.06 263.47 7.97 263.22 7.93C262.84 7.95 262.46 7.96 262.09 7.99C261.91 8 261.79 7.99 261.66 7.96C261.49 7.92 261.33 7.88 261.06 7.9C260.69 7.92 260.3 7.93 259.93 7.95C259.67 7.91 259.49 7.82 259.13 7.85C258.91 7.87 258.67 7.88 258.44 7.89C258.14 7.9 257.84 7.92 257.53 7.93C257.21 7.95 257.21 7.94 256.71 7.87C256.42 7.82 256.12 7.87 255.83 7.88C255.6 7.89 255.48 7.95 255.54 8.03C255.59 8.1 255.47 8.17 255.26 8.18C254.73 8.2 254.19 8.23 253.66 8.25C253.6 8.25 253.52 8.24 253.46 8.24C252.89 8.15 252.89 8.15 252.64 8.16C252.26 8.18 251.88 8.2 251.5 8.22C251.25 8.24 251.06 8.21 250.89 8.16C250.76 8.13 250.64 8.12 250.48 8.13C248.66 8.22 246.83 8.3 245.02 8.39C244.74 8.41 244.59 8.37 244.4 8.33C244.34 8.32 244.28 8.3 244.21 8.3C244.06 8.3 243.91 8.31 243.76 8.32C243.08 8.35 242.4 8.39 241.71 8.41C241.42 8.42 241.34 8.48 241.22 8.53C241.12 8.57 241.01 8.59 240.84 8.59C240.68 8.6 240.56 8.59 240.43 8.56C240.26 8.51 240.07 8.48 239.82 8.5C239.52 8.52 239.21 8.53 238.9 8.55C238.75 8.55 238.63 8.58 238.58 8.63C238.57 8.64 238.66 8.66 238.72 8.67C238.9 8.71 239.08 8.75 239.29 8.78C239.5 8.81 239.73 8.78 239.95 8.77C240.03 8.77 240.1 8.76 240.17 8.76C240.24 8.76 240.33 8.77 240.38 8.78C240.62 8.84 240.87 8.88 241.2 8.85C241.49 8.86 241.63 8.97 242 8.94C242.22 8.93 242.45 8.92 242.68 8.91C242.74 8.91 242.8 8.94 242.87 8.95C243.05 8.98 243.2 9.03 243.47 9.01C243.77 8.99 244.08 8.98 244.38 8.96C244.55 8.95 244.67 8.96 244.8 9C244.96 9.04 245.15 9.08 245.41 9.05C245.63 9.04 245.86 9.03 246.09 9.02C246.38 9.01 246.38 9.01 246.91 9.09C246.97 9.1 247.05 9.11 247.11 9.11C247.49 9.09 247.87 9.07 248.25 9.05C248.4 9.05 248.54 9.07 248.64 9.1C248.68 9.12 248.67 9.15 248.68 9.17C247.92 9.21 247.16 9.24 246.41 9.28C246.12 9.3 246 9.24 245.81 9.21C245.74 9.2 245.67 9.18 245.61 9.18C245.08 9.2 244.55 9.23 244.02 9.26C243.86 9.27 243.73 9.26 243.61 9.22C243.29 9.12 242.9 9.18 242.54 9.19C242.27 9.2 242.18 9.24 242.21 9.33C242.25 9.44 242.42 9.47 242.84 9.45C243 9.44 243.15 9.43 243.3 9.43C243.45 9.42 243.58 9.44 243.7 9.48C243.81 9.51 243.95 9.53 244.1 9.52C244.4 9.51 244.71 9.5 245 9.48C245.25 9.46 245.45 9.48 245.62 9.53C245.81 9.58 246.03 9.57 246.25 9.56C246.76 9.53 246.77 9.53 247.09 9.6C247.16 9.61 247.22 9.64 247.28 9.64C247.81 9.62 248.34 9.6 248.86 9.57C249.13 9.55 249.29 9.59 249.47 9.63C249.54 9.64 249.6 9.67 249.66 9.67C250.04 9.65 250.42 9.64 250.8 9.61C250.97 9.6 251.08 9.61 251.22 9.64C251.56 9.72 251.57 9.71 252.05 9.69C252.2 9.68 252.36 9.67 252.5 9.68C252.64 9.69 252.75 9.73 252.88 9.75C252.94 9.76 253.01 9.78 253.07 9.77C253.38 9.76 253.68 9.75 253.99 9.73C254.27 9.72 254.27 9.72 254.8 9.8C255.02 9.84 255.25 9.81 255.46 9.8C255.7 9.78 255.91 9.78 256.09 9.84C256.27 9.89 256.48 9.89 256.71 9.88C256.93 9.86 257.15 9.83 257.37 9.87C257.88 9.95 257.88 9.96 258.19 9.94C258.65 9.92 259.1 9.9 259.56 9.88C259.62 9.87 259.7 9.89 259.76 9.9C259.89 9.92 260 9.96 260.13 9.97C260.27 9.98 260.43 9.97 260.58 9.96C261.05 9.93 261.09 9.92 261.4 10.01C261.67 10.08 262 9.98 262.25 10.06C262.39 10.11 262.59 10.15 262.85 10.12C263.07 10.11 263.3 10.1 263.53 10.09C263.9 10.07 263.9 10.07 264.36 10.15C264.42 10.16 264.5 10.18 264.56 10.18C264.86 10.16 265.17 10.16 265.46 10.13C265.81 10.1 266.03 10.15 266.29 10.2C266.49 10.24 266.73 10.21 266.94 10.2C267.18 10.18 267.39 10.19 267.57 10.24C267.75 10.29 267.97 10.29 268.2 10.28C268.41 10.27 268.63 10.24 268.85 10.27C269.33 10.36 269.33 10.36 269.67 10.34C269.98 10.33 270.28 10.31 270.59 10.3C270.64 10.3 270.72 10.31 270.78 10.33C270.91 10.35 271.02 10.39 271.16 10.4C271.29 10.41 271.45 10.39 271.61 10.38C271.76 10.38 271.92 10.36 272.06 10.37C272.2 10.37 272.32 10.41 272.44 10.44C272.56 10.47 272.68 10.48 272.86 10.46C273.08 10.44 273.31 10.44 273.54 10.43C273.66 10.46 273.79 10.48 273.91 10.51C274.03 10.54 274.17 10.54 274.34 10.53C274.9 10.5 274.91 10.5 275.38 10.58C275.6 10.62 275.82 10.59 276.04 10.58C276.27 10.57 276.49 10.56 276.66 10.62C276.84 10.67 277.06 10.67 277.29 10.66C277.43 10.65 277.59 10.64 277.74 10.64C277.81 10.64 277.89 10.64 277.94 10.65C278.19 10.71 278.43 10.76 278.76 10.72C279.06 10.73 279.2 10.84 279.56 10.82C279.86 10.8 280.17 10.8 280.47 10.77C280.74 10.75 280.93 10.79 281.07 10.84C281.32 10.92 281.67 10.81 281.92 10.89C282.06 10.94 282.24 10.97 282.52 10.95C282.82 10.93 282.92 10.96 283.01 11.04C283.06 11.09 283.05 11.13 282.96 11.17C282.86 11.21 282.76 11.2 282.62 11.16C282.44 11.11 282.24 11.1 282 11.11C281.76 11.12 281.61 11.05 281.41 11.02C281.22 10.99 280.98 11.04 280.77 11.01C280.29 10.92 280.29 10.92 279.95 10.94C279.73 10.95 279.49 10.95 279.27 10.97C279.01 10.99 278.84 10.95 278.66 10.92C278.6 10.9 278.53 10.88 278.48 10.88C277.95 10.9 277.41 10.92 276.89 10.95C276.61 10.97 276.47 10.92 276.28 10.89C276.22 10.87 276.15 10.85 276.09 10.85C275.64 10.87 275.19 10.9 274.73 10.92C274.64 10.95 274.55 10.99 274.46 11.03C274.38 11.07 274.26 11.09 274.08 11.08C273.79 11.08 273.51 11.14 273.22 11.07C272.92 11 272.9 11 272.6 11.02C272.24 11.04 271.85 11.04 271.5 11.09C271.44 11.1 271.38 11.12 271.38 11.14C271.37 11.15 271.47 11.17 271.53 11.18C271.73 11.21 271.97 11.17 272.17 11.2C272.3 11.22 272.41 11.25 272.54 11.28C272.6 11.29 272.68 11.28 272.76 11.28C272.84 11.28 272.91 11.27 272.98 11.27C273.05 11.28 273.13 11.28 273.18 11.3C273.43 11.35 273.7 11.39 273.93 11.45C274.15 11.51 274.35 11.47 274.57 11.47C275.46 11.56 275.46 11.56 276.05 11.53C276.2 11.53 276.35 11.52 276.5 11.52C276.57 11.52 276.63 11.55 276.69 11.56C276.88 11.6 277.05 11.63 277.31 11.61C277.53 11.59 277.76 11.59 277.99 11.58C278.29 11.56 278.29 11.56 278.81 11.65C278.94 11.67 279.08 11.67 279.24 11.66C279.38 11.65 279.53 11.67 279.63 11.71C279.67 11.72 279.66 11.75 279.67 11.77C279.22 11.79 278.76 11.81 278.32 11.84C278.03 11.86 277.9 11.8 277.71 11.77C277.65 11.76 277.58 11.74 277.52 11.74C277.07 11.76 276.62 11.78 276.17 11.81C276.11 11.81 276.04 11.84 276.04 11.86C276.03 11.9 276.14 11.93 276.31 11.93C276.53 11.93 276.75 11.9 276.95 11.96C277.11 12.01 277.32 12.03 277.56 12.01C277.71 12 277.87 12 278.01 11.98C278.4 11.95 278.76 11.96 279.05 12.05C279.28 12.07 279.5 12.05 279.72 12.04C279.88 12.03 280.03 12.02 280.15 12.05C280.39 12.1 280.63 12.15 280.97 12.12C281.33 12.15 281.61 12.23 281.91 12.3C282.05 12.33 282.16 12.35 282.33 12.33C282.4 12.32 282.48 12.32 282.56 12.31C282.71 12.31 282.87 12.29 283.01 12.29C283.14 12.3 283.26 12.34 283.38 12.37C283.44 12.38 283.51 12.4 283.57 12.4C283.8 12.39 284.03 12.38 284.25 12.37C284.48 12.36 284.7 12.35 284.93 12.34C285.12 12.37 285.31 12.41 285.5 12.44C285.8 12.43 286.11 12.41 286.41 12.4C286.74 12.38 286.74 12.39 287.23 12.47C287.44 12.51 287.67 12.48 287.88 12.46C288.22 12.44 288.46 12.49 288.7 12.54C288.75 12.55 288.84 12.56 288.9 12.55C289.14 12.53 289.35 12.55 289.52 12.6C289.65 12.63 289.77 12.65 289.92 12.64C290.45 12.62 290.98 12.59 291.51 12.57C291.57 12.56 291.65 12.58 291.71 12.59C292.18 12.67 292.18 12.67 292.53 12.65C292.84 12.63 293.12 12.62 293.37 12.7C293.42 12.71 293.49 12.74 293.55 12.74C293.93 12.72 294.31 12.71 294.68 12.69C294.85 12.67 294.97 12.68 295.1 12.71C295.28 12.75 295.43 12.79 295.71 12.78C296.49 12.73 296.49 12.74 297.41 12.83C297.48 12.83 297.56 12.82 297.64 12.82C297.79 12.81 297.91 12.82 298.04 12.85C298.35 12.92 298.36 12.92 298.66 12.91C298.88 12.89 299.12 12.89 299.34 12.87C299.68 12.84 299.91 12.89 300.16 12.94C300.36 12.98 300.6 12.95 300.81 12.94C301.05 12.92 301.26 12.93 301.43 12.98C301.55 13.01 301.68 13.03 301.83 13.03C302.36 13 302.89 12.98 303.42 12.95C303.49 12.95 303.56 12.96 303.62 12.97C304.15 13.05 304.15 13.06 304.67 13.02C304.83 13.02 304.97 13.01 305.1 13.04C305.22 13.07 305.34 13.09 305.47 13.12C305.69 13.11 305.92 13.11 306.15 13.09C306.32 13.08 306.44 13.08 306.57 13.11C306.74 13.15 306.89 13.21 307.17 13.18C307.31 13.16 307.48 13.17 307.62 13.16C307.79 13.14 307.9 13.15 308.04 13.18C308.2 13.22 308.37 13.27 308.64 13.25C308.93 13.22 309.25 13.22 309.55 13.2C309.71 13.19 309.83 13.2 309.96 13.23C310.13 13.28 310.32 13.31 310.57 13.29C311.1 13.26 311.1 13.26 311.61 13.35C311.74 13.37 311.88 13.37 312.04 13.35C312.19 13.35 312.34 13.37 312.44 13.4C312.53 13.45 312.52 13.47 312.53 13.5ZM271.52 1.44C271.37 1.45 271.22 1.46 271 1.34C270.99 1.32 270.99 1.3 270.96 1.28C270.89 1.25 270.77 1.22 270.64 1.22C270.39 1.21 270.09 1.26 270.09 1.29C270.1 1.32 270.18 1.35 270.33 1.37C270.39 1.38 270.44 1.4 270.5 1.41C270.68 1.44 270.82 1.5 271.07 1.47C271.04 1.52 271.11 1.55 271.28 1.57C271.33 1.57 271.4 1.57 271.43 1.56C271.57 1.53 271.6 1.49 271.49 1.39C271.47 1.4 271.49 1.43 271.53 1.44C271.57 1.45 271.67 1.44 271.72 1.43C271.85 1.41 271.92 1.38 271.88 1.35C271.86 1.33 271.78 1.31 271.72 1.31C271.63 1.31 271.54 1.34 271.52 1.44ZM308.74 16.94C308.4 16.97 308.01 16.96 307.68 17.01C307.62 17.02 307.56 17.04 307.55 17.06C307.55 17.07 307.64 17.09 307.7 17.1C307.82 17.12 307.96 17.11 308.12 17.11C308.36 17.1 308.51 17.16 308.7 17.19C308.76 17.2 308.83 17.21 308.9 17.2C309.27 17.19 309.64 17.17 310.01 17.15C310.07 17.15 310.14 17.14 310.2 17.13C310.38 17.09 310.37 17.06 310.19 17.03C309.99 17 309.83 16.95 309.63 16.92C309.34 16.89 309.04 16.93 308.74 16.94ZM282.6 17.92C282.38 17.93 282.15 17.94 281.93 17.95C281.85 17.95 281.78 17.95 281.71 17.96C281.57 17.97 281.46 18 281.39 18.04C281.5 18.08 281.63 18.1 281.77 18.09C281.99 18.08 282.21 18.07 282.44 18.06C282.68 18.06 282.83 18.12 283.01 18.15C283.07 18.16 283.15 18.16 283.22 18.16C283.56 18.16 283.76 18.1 283.7 18C283.66 17.92 283.48 17.88 283.27 17.89C283.05 17.89 282.82 17.91 282.6 17.92ZM310.31 14.97C310.37 14.94 310.43 14.93 310.45 14.91C310.54 14.84 310.5 14.79 310.35 14.73C310.17 14.67 309.94 14.71 309.74 14.72C309.68 14.72 309.63 14.75 309.6 14.77C309.58 14.78 309.58 14.8 309.61 14.81C309.84 14.86 310.07 14.91 310.31 14.97ZM270.39 11.02C270.17 11.03 269.94 11.04 269.72 11.05C269.66 11.06 269.61 11.08 269.58 11.1C269.52 11.13 269.59 11.18 269.78 11.18C269.99 11.18 270.22 11.16 270.44 11.15C270.73 11.14 270.9 11.09 270.79 11.05C270.69 11 270.55 11 270.39 11.02ZM28.14 8.16C28.28 8.16 28.44 8.15 28.58 8.14C28.72 8.13 28.83 8.1 28.9 8.06C28.78 8.02 28.65 8.01 28.51 8.01C28.28 8.02 28.06 8.03 27.84 8.04C27.7 8.05 27.57 8.08 27.54 8.12C27.51 8.16 27.81 8.18 28.14 8.16ZM250.92 7.96C250.98 7.97 251.04 7.99 251.1 7.99C251.25 7.99 251.4 7.99 251.54 7.97C251.6 7.97 251.65 7.94 251.68 7.92C251.69 7.91 251.69 7.89 251.66 7.88C251.53 7.82 250.99 7.84 250.91 7.91C250.9 7.93 250.92 7.94 250.92 7.96ZM236.41 0.64C236.42 0.66 236.42 0.68 236.44 0.7C236.48 0.74 236.58 0.77 236.73 0.79C236.84 0.76 236.9 0.72 236.9 0.68C236.89 0.66 236.88 0.64 236.86 0.62C236.82 0.58 236.72 0.55 236.58 0.53C236.46 0.56 236.41 0.6 236.41 0.64ZM320.95 18.15C320.9 18.17 320.86 18.18 320.82 18.2C320.94 18.24 321.06 18.25 321.14 18.23C321.2 18.22 321.23 18.2 321.27 18.18C321.15 18.14 321.04 18.13 320.95 18.15ZM318.08 18.33C318.14 18.34 318.2 18.36 318.26 18.37C318.37 18.38 318.47 18.36 318.54 18.31C318.48 18.3 318.42 18.28 318.36 18.27C318.25 18.26 318.16 18.28 318.08 18.33ZM319.9 18.09C319.86 18.12 319.93 18.14 320.1 18.17C320.14 18.15 320.2 18.13 320.22 18.12C320.27 18.08 320.19 18.06 320.03 18.04C319.98 18.05 319.94 18.07 319.9 18.09ZM310.18 16.65C310.15 16.68 310.21 16.7 310.38 16.73C310.43 16.71 310.48 16.69 310.51 16.67C310.55 16.64 310.48 16.62 310.31 16.59C310.26 16.61 310.22 16.63 310.18 16.65ZM296.95 7.19C296.9 7.21 296.86 7.23 296.82 7.24C296.94 7.28 297.06 7.29 297.14 7.27C297.2 7.26 297.23 7.24 297.27 7.22C297.15 7.18 297.04 7.17 296.95 7.19ZM284.27 2.17C284.38 2.18 284.47 2.17 284.55 2.12C284.49 2.1 284.43 2.09 284.37 2.08C284.26 2.07 284.17 2.09 284.09 2.14C284.15 2.15 284.21 2.16 284.27 2.17ZM277.53 1.86C277.49 1.88 277.45 1.9 277.41 1.91C277.53 1.95 277.64 1.96 277.73 1.94C277.79 1.93 277.82 1.91 277.86 1.89C277.74 1.85 277.63 1.84 277.53 1.86ZM231.88 0.64C231.84 0.66 231.79 0.67 231.75 0.69C231.87 0.73 231.99 0.74 232.07 0.72C232.13 0.71 232.16 0.69 232.2 0.67C232.08 0.63 231.97 0.62 231.88 0.64ZM4.54 11.51C4.48 11.5 4.42 11.49 4.36 11.47C4.23 11.51 4.19 11.54 4.26 11.57C4.31 11.58 4.38 11.59 4.44 11.61C4.57 11.57 4.61 11.54 4.54 11.51Z"
		fill="#FFE492" fill-opacity="1.000000" fill-rule="nonzero" />
	<path id="Vector"
		d="M31.75 6.79C31.22 6.82 30.69 6.85 30.16 6.87C29.88 6.87 29.78 6.93 29.67 6.98C29.57 7.03 29.47 7.04 29.3 7.05C27.86 7.11 26.43 7.18 25 7.25C24.82 7.23 24.73 7.21 24.77 7.17C24.8 7.15 24.85 7.13 24.91 7.12C25.89 7.07 26.86 7.02 27.85 6.98C28.13 6.97 28.21 6.91 28.35 6.87C28.39 6.85 28.43 6.83 28.49 6.82C28.55 6.81 28.64 6.81 28.72 6.8C30.3 6.73 31.88 6.65 33.47 6.58C33.65 6.59 33.73 6.62 33.69 6.66C33.67 6.68 33.61 6.7 33.56 6.71C32.95 6.73 32.35 6.76 31.75 6.79Z"
		fill="#FFE492" fill-opacity="1.000000" fill-rule="nonzero" />
	<path id="Vector"
		d="M320.74 13.91C320.5 13.92 320.2 13.95 319.95 13.87C319.83 13.83 319.7 13.82 319.54 13.83C319.32 13.84 319.09 13.85 318.86 13.86C318.8 13.86 318.72 13.85 318.66 13.83C318.53 13.81 318.42 13.77 318.28 13.76C318.14 13.75 317.98 13.78 317.84 13.77C317.65 13.76 317.57 13.73 317.62 13.69C317.65 13.67 317.7 13.65 317.76 13.64C318.61 13.59 318.62 13.59 318.86 13.64C319.04 13.68 319.21 13.72 319.47 13.7C319.7 13.68 319.93 13.68 320.16 13.66C320.47 13.65 320.47 13.65 320.98 13.73C321.1 13.75 321.24 13.75 321.41 13.74C321.55 13.73 321.69 13.75 321.8 13.79C321.73 13.83 321.62 13.86 321.48 13.87C321.25 13.88 321.03 13.89 320.74 13.91Z"
		fill="#FFE492" fill-opacity="1.000000" fill-rule="nonzero" />
	<path id="Vector"
		d="M313.23 13.5C313.81 13.47 314.4 13.44 314.98 13.41C315.22 13.4 315.41 13.41 315.57 13.46C315.75 13.51 315.95 13.5 316.18 13.49C316.31 13.49 316.45 13.51 316.54 13.55C316.57 13.56 316.57 13.59 316.58 13.61C316.07 13.64 315.56 13.66 315.05 13.68C314.99 13.68 314.92 13.67 314.86 13.66C314.74 13.64 314.63 13.6 314.5 13.59C314.21 13.57 313.93 13.61 313.64 13.61C313.5 13.62 313.37 13.6 313.28 13.56C313.24 13.54 313.25 13.52 313.23 13.5Z"
		fill="#FFE492" fill-opacity="1.000000" fill-rule="nonzero" />
	<path id="Vector"
		d="M102.47 2.01C103.07 1.98 103.68 1.95 104.28 1.92C104.46 1.94 104.54 1.97 104.5 2C104.48 2.02 104.43 2.05 104.37 2.05C103.16 2.11 101.96 2.17 100.76 2.23C100.58 2.21 100.5 2.18 100.53 2.15C100.55 2.13 100.61 2.1 100.67 2.1C101.26 2.06 101.87 2.04 102.47 2.01Z"
		fill="#FFE492" fill-opacity="1.000000" fill-rule="nonzero" />
	<path id="Vector"
		d="M9.74 9.43C9.46 9.44 9.18 9.48 8.87 9.45C8.82 9.44 8.73 9.42 8.74 9.41C8.75 9.39 8.8 9.36 8.86 9.35C9.12 9.32 9.45 9.32 9.58 9.22C9.65 9.17 9.77 9.16 9.93 9.15C10.1 9.14 10.22 9.14 10.35 9.17C10.53 9.21 10.67 9.27 10.95 9.24C10.96 9.26 11 9.28 10.98 9.3C10.97 9.32 10.91 9.34 10.85 9.36C10.8 9.37 10.73 9.38 10.67 9.39C10.37 9.4 10.06 9.42 9.74 9.43Z"
		fill="#FFE492" fill-opacity="1.000000" fill-rule="nonzero" />
	<path id="Vector"
		d="M249.83 9.16C250.06 9.15 250.29 9.15 250.52 9.13C250.69 9.12 250.8 9.12 250.94 9.16C251.17 9.21 251.19 9.21 251.76 9.22C251.83 9.22 251.91 9.24 251.94 9.25C251.96 9.26 251.93 9.29 251.91 9.3C251.86 9.32 251.8 9.34 251.75 9.34C251.39 9.35 251.02 9.43 250.66 9.33C250.48 9.29 250.29 9.27 250.04 9.29C249.89 9.3 249.74 9.3 249.59 9.31C249.44 9.32 249.29 9.3 249.19 9.26C249.06 9.2 249.14 9.18 249.38 9.18C249.53 9.19 249.68 9.17 249.83 9.16Z"
		fill="#FFE492" fill-opacity="1.000000" fill-rule="nonzero" />
	<path id="Vector"
		d="M332.85 18.37C333.14 18.36 333.43 18.35 333.72 18.33C333.78 18.33 333.86 18.35 333.91 18.36C334.13 18.4 334.1 18.46 334.11 18.52C334.11 18.59 333.6 18.64 333.39 18.6C333.15 18.55 332.93 18.49 332.6 18.52C332.47 18.53 332.32 18.51 332.24 18.47C332.11 18.41 332.18 18.39 332.41 18.39C332.55 18.4 332.7 18.38 332.85 18.37Z"
		fill="#FFE492" fill-opacity="1.000000" fill-rule="nonzero" />
	<path id="Vector"
		d="M186.07 0.19C186.37 0.17 186.66 0.15 186.96 0.15C187.14 0.15 187.23 0.19 187.18 0.22C187.16 0.24 187.11 0.27 187.05 0.27C186.45 0.31 185.85 0.33 185.26 0.36C185.08 0.34 184.99 0.32 185.04 0.28C185.06 0.26 185.11 0.24 185.17 0.23C185.47 0.21 185.77 0.2 186.07 0.19Z"
		fill="#FFE492" fill-opacity="1.000000" fill-rule="nonzero" />
	<path id="Vector"
		d="M327.03 14.03C327.32 14.01 327.61 13.99 327.9 13.98C328.06 13.98 328.17 14.01 328.19 14.05C328.2 14.06 328.13 14.09 328.07 14.1C327.65 14.14 327.21 14.15 326.78 14.17C326.64 14.18 326.49 14.16 326.41 14.12C326.28 14.06 326.35 14.04 326.59 14.05C326.73 14.05 326.88 14.03 327.03 14.03Z"
		fill="#FFE492" fill-opacity="1.000000" fill-rule="nonzero" />
	<path id="Vector"
		d="M257.01 9.34C257.16 9.34 257.31 9.32 257.45 9.33C257.6 9.33 257.7 9.37 257.75 9.41C257.8 9.45 257.79 9.5 257.75 9.53C257.67 9.6 257.6 9.59 257.43 9.55C257.17 9.48 257.15 9.49 256.63 9.5C256.57 9.5 256.49 9.48 256.45 9.46C256.38 9.43 256.42 9.39 256.58 9.37C256.7 9.35 256.86 9.35 257.01 9.34Z"
		fill="#FFE492" fill-opacity="1.000000" fill-rule="nonzero" />
	<path id="Vector"
		d="M316.6 13.59C316.82 13.58 317.03 13.56 317.25 13.56C317.4 13.56 317.52 13.59 317.53 13.62C317.54 13.64 317.47 13.66 317.41 13.67C317.15 13.71 316.86 13.71 316.57 13.72C316.44 13.73 316.29 13.71 316.21 13.67C316.08 13.61 316.16 13.59 316.38 13.6C316.45 13.6 316.53 13.59 316.6 13.59Z"
		fill="#FFE492" fill-opacity="1.000000" fill-rule="nonzero" />
	<path id="Vector"
		d="M281.79 11.95C281.46 11.96 281.16 11.94 281.18 11.91C281.22 11.86 281.35 11.83 281.49 11.83C281.71 11.81 281.93 11.8 282.15 11.79C282.3 11.79 282.43 11.81 282.54 11.84C282.47 11.89 282.37 11.92 282.23 11.93C282.09 11.94 281.93 11.94 281.79 11.95Z"
		fill="#FFE492" fill-opacity="1.000000" fill-rule="nonzero" />
	<path id="Vector"
		d="M280.18 11.78C280.39 11.77 280.61 11.75 280.82 11.75C280.98 11.75 281.1 11.78 281.11 11.81C281.12 11.83 281.05 11.85 280.99 11.86C280.73 11.9 280.43 11.9 280.15 11.91C280.01 11.92 279.87 11.9 279.79 11.86C279.66 11.8 279.73 11.78 279.96 11.79C280.03 11.79 280.1 11.78 280.18 11.78Z"
		fill="#FFE492" fill-opacity="1.000000" fill-rule="nonzero" />
	<path id="Vector"
		d="M253.95 9.33C254.17 9.32 254.38 9.31 254.6 9.3C254.75 9.3 254.87 9.33 254.89 9.37C254.89 9.38 254.82 9.41 254.77 9.42C254.5 9.45 254.21 9.46 253.92 9.47C253.79 9.47 253.64 9.45 253.56 9.42C253.44 9.36 253.51 9.33 253.74 9.34C253.8 9.34 253.88 9.34 253.95 9.33Z"
		fill="#FFE492" fill-opacity="1.000000" fill-rule="nonzero" />
	<path id="Vector"
		d="M252.62 9.26C252.85 9.24 252.93 9.24 253 9.24C253.14 9.24 253.28 9.25 253.36 9.29C253.49 9.35 253.41 9.36 253.19 9.37C252.9 9.37 252.61 9.4 252.32 9.4C252.17 9.41 252.05 9.37 252.04 9.34C252.04 9.32 252.11 9.3 252.16 9.29C252.36 9.27 252.57 9.26 252.62 9.26Z"
		fill="#FFE492" fill-opacity="1.000000" fill-rule="nonzero" />
	<path id="Vector"
		d="M278.93 1.39C278.79 1.4 278.63 1.42 278.49 1.41C278.31 1.4 278.24 1.37 278.28 1.33C278.31 1.32 278.36 1.29 278.41 1.28C278.71 1.27 279.01 1.25 279.3 1.24C279.48 1.26 279.56 1.29 279.51 1.32C279.48 1.34 279.43 1.37 279.38 1.37C279.23 1.38 279.08 1.39 278.93 1.39Z"
		fill="#FFE492" fill-opacity="1.000000" fill-rule="nonzero" />
	<path id="Vector"
		d="M99.6 2.17C99.74 2.16 99.87 2.18 99.98 2.21C99.91 2.26 99.81 2.29 99.67 2.3C99.6 2.3 99.52 2.31 99.45 2.31C99.31 2.31 99.18 2.29 99.07 2.26C99.13 2.22 99.24 2.19 99.37 2.18C99.44 2.17 99.52 2.17 99.6 2.17Z"
		fill="#FFE492" fill-opacity="1.000000" fill-rule="nonzero" />
	<path id="Vector"
		d="M324.89 14.02C324.89 13.98 325.17 13.94 325.42 13.94C325.55 13.94 325.69 13.96 325.77 13.99C325.89 14.05 325.82 14.07 325.59 14.07C325.46 14.06 325.31 14.09 325.17 14.08C325.01 14.08 324.92 14.05 324.89 14.02Z"
		fill="#FFE492" fill-opacity="1.000000" fill-rule="nonzero" />
	<path id="Vector"
		d="M257.89 9.51C257.88 9.49 257.86 9.47 257.88 9.46C257.96 9.39 258.49 9.36 258.63 9.43C258.65 9.44 258.66 9.46 258.64 9.47C258.62 9.49 258.57 9.52 258.51 9.52C258.37 9.53 258.22 9.54 258.07 9.54C258.01 9.54 257.95 9.52 257.89 9.51Z"
		fill="#FFE492" fill-opacity="1.000000" fill-rule="nonzero" />
	<path id="Vector"
		d="M12.15 9.22C11.61 9.25 11.6 9.24 11.7 9.18C11.78 9.12 11.95 9.08 12.18 9.08C12.25 9.08 12.32 9.08 12.38 9.08C12.45 9.09 12.54 9.1 12.55 9.12C12.58 9.15 12.5 9.18 12.36 9.21C12.3 9.22 12.23 9.21 12.15 9.22Z"
		fill="#FFE492" fill-opacity="1.000000" fill-rule="nonzero" />
	<path id="Vector"
		d="M106.78 1.98C106.62 2 106.48 1.99 106.38 1.95C106.28 1.91 106.44 1.85 106.72 1.84C106.8 1.84 106.87 1.83 106.94 1.83C107.01 1.84 107.08 1.85 107.12 1.87C107.2 1.9 107.15 1.93 107 1.96C106.94 1.98 106.86 1.97 106.78 1.98Z"
		fill="#FFE492" fill-opacity="1.000000" fill-rule="nonzero" />
	<path id="Vector"
		d="M324.9 13.92C324.94 13.9 324.98 13.88 325.03 13.87C325.2 13.89 325.27 13.92 325.23 13.95C325.2 13.97 325.14 13.98 325.1 14C324.93 13.98 324.86 13.95 324.9 13.92Z"
		fill="#FFE492" fill-opacity="1.000000" fill-rule="nonzero" />
	<path id="Vector"
		d="M18.94 24.43C18.94 24.41 19 24.39 19.05 24.38C19.15 24.37 19.27 24.39 19.35 24.43C19.46 24.48 19.4 24.51 19.18 24.5C19.04 24.49 18.94 24.46 18.94 24.43Z"
		fill="#FFE492" fill-opacity="1.000000" fill-rule="nonzero" />
	<path id="Vector"
		d="M259.61 8.26C259.67 8.27 259.73 8.29 259.78 8.3C259.71 8.35 259.61 8.37 259.51 8.36C259.44 8.35 259.39 8.33 259.33 8.32C259.41 8.27 259.5 8.25 259.61 8.26Z"
		fill="#FFE492" fill-opacity="1.000000" fill-rule="nonzero" />
	<path id="Vector"
		d="M258 8.2C258.09 8.18 258.2 8.19 258.33 8.23C258.29 8.25 258.25 8.27 258.2 8.28C258.11 8.3 258 8.29 257.87 8.25C257.91 8.24 257.95 8.22 258 8.2Z"
		fill="#FFE492" fill-opacity="1.000000" fill-rule="nonzero" />
	<path id="Vector"
		d="M256.7 8.26C256.76 8.27 256.81 8.29 256.87 8.3C256.79 8.35 256.7 8.37 256.59 8.36C256.53 8.35 256.47 8.33 256.41 8.32C256.49 8.27 256.58 8.25 256.7 8.26Z"
		fill="#FFE492" fill-opacity="1.000000" fill-rule="nonzero" />
	<path id="Vector"
		d="M256.73 8.19C256.8 8.22 256.76 8.25 256.63 8.29C256.57 8.27 256.5 8.26 256.45 8.25C256.38 8.22 256.41 8.19 256.55 8.15C256.61 8.17 256.67 8.18 256.73 8.19Z"
		fill="#FFE492" fill-opacity="1.000000" fill-rule="nonzero" />
</svg>