<svg width="602.835510" height="448.518066" viewBox="0 0 602.836 448.518" fill="none"
	xmlns="http://www.w3.org/2000/svg" xmlns:xlink="http://www.w3.org/1999/xlink">
	<defs />
	<path id="Vector"
		d="M312.38 448.51C306.9 448.51 300.35 447.13 291.63 444C268.49 435.52 244.77 410.03 219.71 383.08C205.92 368.28 191.68 352.97 177.37 340.43C156.48 317.76 121.05 302.14 86.77 287.01C61.72 275.96 38.06 265.5 19.74 252.58L19.7 252.56C5.95 242.52 -0.49 232.82 0.02 222.93C1.02 203.62 28.5 186.42 60.35 166.52L63.41 164.6C87.02 149.77 116.67 129.92 159.6 100.3L163.25 97.87C201.65 72.27 249.47 40.42 311.42 21.11C435.51 -23.63 544.1 11.01 578.39 48.56C614.14 92.46 611.05 139.06 566.61 226.76C520.08 318.19 417 388.86 374.84 414.99C357.59 423.62 346.78 431.26 338.9 436.84C328.9 443.89 322.39 448.51 312.38 448.51ZM22.98 249.88C40.89 262.51 64.33 272.85 89.12 283.82C123.81 299.13 159.72 314.97 181.05 338.15C195.4 350.69 209.71 366.08 223.54 380.94C248.26 407.5 271.62 432.59 293.62 440.68C315.36 448.43 320.47 444.82 335.67 434.11C343.69 428.44 354.69 420.66 372.05 411.98C413.69 386.13 516.03 315.99 562.16 225.38C605.98 138.95 609.18 93.19 574.41 50.54C541.12 14.11 435.06 -19.49 313.34 24.4C252.01 43.55 204.52 75.18 166.37 100.58L162.77 103C119.8 132.66 90.11 152.53 66.42 167.39L63.37 169.31C32.4 188.65 5.69 205.36 4.77 223.01C4.33 231.84 10.29 240.6 22.98 249.88Z"
		fill="#CCCCCC" fill-opacity="1.000000" fill-rule="nonzero" />
	<path id="Vector"
		d="M305.24 422.97C297.66 422.97 289.64 421.11 278.61 417.81L278.39 417.76C257.2 409.61 240.42 389.96 222.69 369.18C210.59 354.97 198.04 340.32 182.96 327.54C161.7 306.82 134.95 290.7 109.13 275.11C91.77 264.65 75.36 254.76 61.05 243.82L60.79 243.59C31.66 213.17 52.55 199.75 90.44 175.37C94.56 172.72 98.9 169.93 103.43 166.94C112.33 161.89 121.82 156.25 131.9 150.28C176.67 123.69 238.03 87.3 324.59 57.75C430.39 26.72 512.13 49.16 546.27 85.16C580.48 122.68 567.2 167.84 528.76 243.28C486.64 319.57 409.75 368.96 368.44 395.49L363.84 398.45C333.12 415.92 319.96 422.97 305.24 422.97ZM280.45 414.43C310.57 423.4 315.69 421.25 360.9 395.6L365.39 392.72C406.37 366.39 482.66 317.37 524.34 241.96C562.16 167.79 575.37 123.47 542.4 87.33C509.37 52.48 429.76 30.86 326.43 61.17C240.5 90.48 179.43 126.74 134.81 153.18C124.73 159.16 115.24 164.8 106.41 169.82C101.99 172.72 97.65 175.51 93.53 178.19C55.61 202.6 38.24 213.77 64.54 241.34C78.63 252.08 94.89 261.86 112.07 272.23C138.16 287.94 165.08 304.2 186.6 325.18C201.83 338.06 214.49 352.86 226.7 367.18C244.03 387.48 260.43 406.68 280.45 414.43Z"
		fill="#CCCCCC" fill-opacity="1.000000" fill-rule="nonzero" />
	<path id="Vector"
		d="M299.07 401.66C289.4 401.66 280.42 399.01 269.24 394.5C250.55 385.87 235.54 368.03 219.65 349.17C210.23 337.95 200.45 326.36 189.26 315.73C173.63 299.04 155.09 284.78 137.21 270.97C122.53 259.63 108.66 248.95 97.74 237.93L97.59 237.76C75.44 209.17 98.33 195.84 139.89 171.62L140.37 171.34L148.06 167.31C191.84 144.44 251.8 113.12 333.94 90.43C430.91 66.72 492.64 90.88 516.08 118.73C541.13 148.45 534.98 188.34 494.89 256.42C465.68 303.86 418 346.52 353.22 383.19C328.17 396.22 312.9 401.66 299.07 401.66ZM101.6 235.75C112.34 246.55 126.06 257.15 140.59 268.34C158.62 282.24 177.27 296.65 193.05 313.48C204.35 324.16 214.17 335.86 223.66 347.17C239.22 365.69 253.93 383.17 271.59 391.31C297.05 401.63 309.74 401.43 350.46 380.21C414.54 343.9 461.71 301.72 490.55 254.87C529.87 188.08 536.12 149.21 512.07 120.68C487.75 91.78 423.74 72.27 335.45 93.84C253.97 116.36 194.3 147.52 150.75 170.29L142.76 174.5C100.9 198.88 81.73 210.04 101.6 235.75Z"
		fill="#CCCCCC" fill-opacity="1.000000" fill-rule="nonzero" />
	<path id="Vector"
		d="M295.62 382.26C284.8 382.26 274.65 379.42 263.32 373.84L263.24 373.81C246.17 364.84 232.42 347.98 217.85 330.17C211.12 321.91 204.13 313.39 196.55 305.27C186.43 293.38 175.21 282.38 164.36 271.78C151.04 258.76 138.42 246.44 130.19 234.49C115.8 209.26 136.84 196.06 173.19 177.26C210.64 159.5 268.5 134.18 339.43 119.24C407.15 108.56 457.88 117.13 482.42 143.34C508.9 171.59 502.32 216.39 464.36 266.26C424.59 324.95 361.72 359.37 343.4 368.51C323.9 377.75 309.23 382.26 295.62 382.26ZM265.89 370.76C287.08 381.17 303.71 383.03 340.83 365.41C358.85 356.41 420.91 322.44 460.16 264.48C497.17 215.85 503.87 172.49 478.52 145.49C455.12 120.51 406.12 112.48 340.5 122.82C270.31 137.62 212.85 162.74 175.73 180.36C138.32 199.7 122.02 211.2 134.42 232.94C142.4 244.47 154.87 256.64 168.08 269.56C179 280.24 190.29 291.26 200.45 303.25C208.06 311.36 215.05 319.96 221.82 328.25C236.17 345.7 249.67 362.22 265.89 370.76Z"
		fill="#CCCCCC" fill-opacity="1.000000" fill-rule="nonzero" />
	<path id="Vector"
		d="M293.33 364.56C281.85 364.56 271.3 361.54 260.33 355.51L260.04 355.31C218.07 322.75 168.44 248.19 158.91 233.58L158.77 233.24C151.33 212.33 168.11 200.04 201.62 184.67C233.19 171.08 283.03 153.15 341.45 144.78C395.23 138.3 435.51 147.04 454.94 169.39C476.49 194.23 469.91 231.98 436.91 272.97C407.85 312.49 365.03 340.94 334.64 354.35C318.75 361.18 305.51 364.56 293.33 364.56ZM263.28 352.63C284.28 364.11 303.01 363.71 332.25 351.17C362.09 338 404.13 310.04 432.79 271.1C464.35 231.89 471.12 194.65 450.96 171.42C432.64 150.31 394.02 142.1 342.26 148.39C284.54 156.68 235.25 174.44 204.01 187.86C171.94 202.54 156.82 213.45 163.29 232.15C190.66 274.09 231.24 327.71 263.28 352.63Z"
		fill="#CCCCCC" fill-opacity="1.000000" fill-rule="nonzero" />
	<path id="Vector"
		d="M291.65 348.24C279.37 348.24 268.73 345.11 260.68 339.05C228.45 315.11 194.9 264.62 185.01 234.26C183.39 227.24 185.71 220.39 191.81 213.85C210.65 193.69 266.45 176.3 341.13 167.33C383.25 164.21 414.67 172.86 429.68 191.72C446.67 213.09 440.57 244.18 412.94 277C377 318.52 333.99 345.02 297.91 347.96C295.77 348.15 293.68 348.24 291.65 348.24ZM357.54 170.35C352.46 170.35 347.2 170.55 341.76 170.97C268.48 179.77 213.81 196.6 195.75 215.99C190.38 221.74 188.36 227.64 189.72 233.53C199.43 263.27 232.39 312.94 264.06 336.45C272.41 342.71 283.96 345.45 297.43 344.35C332.12 341.53 373.83 315.62 408.97 275.03C435.16 243.9 441.41 213.48 425.63 193.64C413.53 178.44 389.65 170.35 357.54 170.35Z"
		fill="#CCCCCC" fill-opacity="1.000000" fill-rule="nonzero" />
	<path id="Vector"
		d="M292.64 332.73C281.23 332.73 271.19 329.91 263.35 324.44C235.39 305.02 209.53 263.95 208.06 236.57L208.06 236.52C207.88 211.28 262.62 190.56 338.18 187.29C370.37 186.7 394.24 194.93 405.46 210.55C418.34 228.45 413.04 253.29 390.93 278.72C363.6 309.62 329.39 329.69 299.37 332.42C297.05 332.62 294.81 332.73 292.64 332.73ZM212.84 236.46C214.32 263.01 239.4 302.88 266.59 321.74C274.87 327.52 285.98 329.94 298.78 328.79C327.44 326.16 360.4 306.68 386.96 276.66C408.04 252.42 413.26 228.93 401.27 212.27C390.93 197.92 368.64 190.31 338.36 190.9C266.7 194.03 212.7 213.62 212.84 236.46Z"
		fill="#CCCCCC" fill-opacity="1.000000" fill-rule="nonzero" />
	<path id="Vector"
		d="M293.46 318.04C283.49 318.04 274.59 315.7 267.41 311.11C242.21 295.07 224.3 262.59 228.23 240.15C232.5 218.61 278.37 203.17 332.52 204.94C356.29 205.98 373.8 213.48 381.89 226.03C391.16 240.41 386.93 259.49 370.23 278.35C350.51 300.43 324.5 315.11 300.67 317.65C298.2 317.93 295.81 318.04 293.46 318.04ZM323.95 208.47C275.91 208.47 236.66 222.08 232.98 240.69C229.3 261.63 246.81 293.24 270.46 308.32C278.26 313.28 288.45 315.25 300 314.04C322.56 311.65 347.31 297.52 366.29 276.29C382 258.56 386.12 240.83 377.62 227.64C370.34 216.33 354.23 209.56 332.3 208.58C329.51 208.52 326.71 208.47 323.95 208.47Z"
		fill="#CCCCCC" fill-opacity="1.000000" fill-rule="nonzero" />
	<path id="Vector"
		d="M295.71 304.01C287.69 304.01 280.4 302.23 274.3 298.76C253.15 286.72 241.26 262.51 247.81 244.78C254.47 227.24 289.05 216.7 326.46 220.76C343.05 222.65 355.23 228.96 360.75 238.55C367 249.4 363.91 263.16 352.29 276.29C338.93 291.29 321.02 301.22 303.14 303.5C300.64 303.84 298.14 304.01 295.71 304.01ZM252.41 245.79C246.45 261.89 257.78 284.81 277.13 295.83C284.01 299.75 292.73 301.16 302.37 299.92C318.74 297.8 335.95 288.22 348.39 274.26C359.05 262.2 361.96 249.74 356.41 240.04C351.59 231.64 340.7 226.09 325.8 224.39C291.26 220.62 258.33 230.23 252.41 245.79Z"
		fill="#CCCCCC" fill-opacity="1.000000" fill-rule="nonzero" />
	<path id="Vector"
		d="M297.55 290.42C292 290.42 286.63 289.32 281.92 286.95C266.18 279.14 258.82 262.56 265.48 250.02C272.17 237.53 296.05 230.79 318.74 235.02C329.23 236.97 336.88 241.73 340.3 248.38C344.05 255.71 342.14 264.62 335.08 272.8C325.33 284.02 310.87 290.42 297.55 290.42ZM284.5 283.91C298.07 290.64 318.96 284.78 331.1 270.8C337.28 263.64 339.05 255.94 335.85 249.74C333.02 244.21 326.54 240.24 317.6 238.57C297.11 234.77 275.7 240.52 269.89 251.4C264.04 262.42 270.59 277 284.5 283.91Z"
		fill="#CCCCCC" fill-opacity="1.000000" fill-rule="nonzero" />
	<path id="Vector"
		d="M298.94 277.08C295.92 277.08 292.98 276.55 290.29 275.42C281.1 271.56 277.38 262.68 282.05 255.6C286.65 248.61 299.27 245.26 310.12 248.13C315.35 249.51 319.17 252.27 320.83 255.94C322.59 259.8 321.75 264.31 318.47 268.29C313.8 273.9 306.26 277.08 298.94 277.08ZM301.88 250.75C295.22 250.75 288.93 253.21 286.25 257.26C282.75 262.59 285.55 269.3 292.54 272.21C299.49 275.14 309.31 272.49 314.39 266.31C316.93 263.24 317.59 260 316.26 257.12C315.09 254.53 312.33 252.56 308.5 251.54C306.33 251.01 304.09 250.75 301.88 250.75Z"
		fill="#CCCCCC" fill-opacity="1.000000" fill-rule="nonzero" />
</svg>