<svg width="482.271057" height="29.825806" viewBox="0 0 482.271 29.8258" fill="none"
	xmlns="http://www.w3.org/2000/svg" xmlns:xlink="http://www.w3.org/1999/xlink">
	<defs />
	<path id="Vector"
		d="M453.68 15.24C453.02 15.26 452.35 15.28 451.7 15.32C451.28 15.34 451.1 15.28 450.82 15.24C450.73 15.23 450.63 15.21 450.54 15.21C449.88 15.23 449.23 15.26 448.58 15.29C448.38 15.35 448.25 15.43 447.94 15.46C447.64 15.49 447.29 15.49 446.95 15.51C446.51 15.52 446.07 15.54 445.63 15.56C445.41 15.57 445.23 15.59 445.16 15.65C445.15 15.66 445.29 15.68 445.37 15.7C445.64 15.74 445.9 15.79 446.2 15.83C446.48 15.86 446.82 15.81 447.13 15.85C447.8 15.94 447.81 15.94 448.32 15.92C448.76 15.91 449.2 15.89 449.64 15.87C449.73 15.87 449.83 15.89 449.93 15.9C450.21 15.94 450.39 16.01 450.8 15.98C451.12 15.96 451.46 15.96 451.79 15.94C452.06 15.99 452.32 16.04 452.61 16.07C452.89 16.11 452.97 16.13 452.82 16.18C452.69 16.22 452.5 16.24 452.25 16.24C452.03 16.24 451.81 16.25 451.59 16.26C451.48 16.27 451.37 16.27 451.27 16.28C450.85 16.29 450.85 16.29 450.08 16.2C449.77 16.16 449.43 16.21 449.15 16.18C448.95 16.15 448.79 16.12 448.6 16.09C448.52 16.08 448.39 16.08 448.29 16.08C447.96 16.09 447.62 16.1 447.3 16.12C447.08 16.14 446.94 16.18 446.97 16.22C446.98 16.24 447.14 16.26 447.23 16.26C447.44 16.27 447.67 16.24 447.88 16.26C448.08 16.27 448.29 16.3 448.43 16.33C448.74 16.4 449.08 16.34 449.36 16.35C449.66 16.37 449.91 16.43 450.2 16.47C450.27 16.48 450.41 16.46 450.53 16.46C450.85 16.45 451.18 16.44 451.51 16.43C451.78 16.47 452.08 16.51 452.33 16.56C452.77 16.65 453.26 16.69 453.84 16.64C454.16 16.62 454.48 16.62 454.74 16.68C455.01 16.75 455.32 16.74 455.66 16.73C455.97 16.71 456.29 16.68 456.62 16.72C457.31 16.82 457.32 16.82 458.14 16.78C458.39 16.77 458.57 16.77 458.76 16.8C458.94 16.83 459.12 16.86 459.3 16.89C459.63 16.88 459.96 16.87 460.29 16.86C460.71 16.84 460.95 16.86 461.05 16.95C461.11 17 461.14 17.04 461.28 17.08C461.46 17.12 461.64 17.12 461.9 17.11C462.14 17.1 462.31 17.08 462.41 17.02C462.45 17 462.53 16.98 462.6 16.96C462.66 16.95 462.76 16.93 462.81 16.93C462.91 16.93 463.05 16.95 463.08 16.97C463.41 17.16 463.41 17.16 463.74 17.21C464.11 17.27 464.49 17.32 464.83 17.39C465.13 17.45 465.43 17.42 465.76 17.42C466 17.42 466.17 17.46 466.15 17.5C466.13 17.52 466.04 17.56 465.96 17.56C465.3 17.59 464.64 17.62 463.98 17.64C463.9 17.65 463.8 17.62 463.71 17.61C463.52 17.58 463.35 17.54 463.15 17.53C462.95 17.52 462.72 17.54 462.5 17.55C462.28 17.56 462.04 17.58 461.84 17.57C461.64 17.55 461.48 17.51 461.3 17.48C461.21 17.47 461.09 17.45 461.01 17.45C460.53 17.49 460.17 17.44 459.82 17.37C459.74 17.36 459.62 17.35 459.52 17.35C458.75 17.38 457.98 17.41 457.21 17.44C456.89 17.46 456.64 17.4 456.57 17.31C456.54 17.26 456.47 17.21 456.47 17.16C456.47 17.07 456.1 17.02 455.83 17.03C455.39 17.05 454.94 17.06 454.51 17.08C454.16 17.1 453.85 17.08 453.61 17.03C453.33 16.97 453.01 16.98 452.69 17C452.45 17.01 452.38 17.06 452.4 17.19C452.41 17.29 452.3 17.32 451.87 17.34C451.32 17.36 450.77 17.39 450.21 17.4C450.12 17.41 450.02 17.38 449.94 17.37C449.75 17.34 449.58 17.3 449.38 17.29C449.18 17.28 448.95 17.3 448.73 17.31C448.51 17.32 448.27 17.34 448.07 17.33C447.87 17.32 447.7 17.27 447.52 17.24C447.44 17.23 447.33 17.21 447.24 17.21C446.8 17.23 446.36 17.25 445.92 17.26C445.43 17.28 445.43 17.28 444.72 17.19C444.4 17.15 444.08 17.18 443.77 17.19C443.43 17.21 443.12 17.21 442.86 17.15C442.68 17.11 442.49 17.09 442.28 17.1C441.73 17.12 441.18 17.14 440.63 17.16C440.53 17.16 440.41 17.15 440.33 17.14C439.98 17.08 439.63 17.03 439.14 17.06C438.71 17.09 438.25 17.09 437.82 17.12C437.59 17.13 437.48 17.18 437.53 17.22C437.56 17.24 437.7 17.26 437.79 17.26C438 17.26 438.24 17.24 438.44 17.25C438.85 17.27 439.06 17.4 439.6 17.36C439.92 17.34 440.26 17.33 440.59 17.32C440.68 17.32 440.77 17.35 440.86 17.36C441.13 17.41 441.37 17.46 441.75 17.43C442.07 17.41 442.41 17.4 442.74 17.39C443.26 17.37 443.26 17.37 443.94 17.46C444.26 17.51 444.58 17.47 444.89 17.46C445.13 17.45 445.35 17.44 445.53 17.46C445.82 17.49 446.03 17.56 446.38 17.56C446.72 17.55 447.05 17.53 447.38 17.52C447.59 17.52 447.78 17.54 447.95 17.58C448.12 17.62 448.31 17.64 448.54 17.63C448.86 17.62 449.2 17.6 449.53 17.59C449.63 17.59 449.73 17.61 449.82 17.62C450.01 17.65 450.19 17.68 450.37 17.71C450.7 17.7 451.03 17.69 451.35 17.67C451.6 17.66 451.77 17.67 451.97 17.7C452.23 17.74 452.43 17.81 452.85 17.77C453.05 17.76 453.3 17.76 453.5 17.75C453.76 17.72 453.93 17.73 454.11 17.78C454.45 17.86 454.88 17.87 455.32 17.83C455.8 17.79 456.16 17.84 456.52 17.9C456.91 17.97 456.91 17.97 457.2 18.14C457.29 18.19 457.54 18.21 457.74 18.2C458.09 18.19 458.39 18.19 458.65 18.25C458.91 18.31 459.23 18.31 459.56 18.29C460 18.27 460.43 18.24 460.78 18.33C460.96 18.38 461.15 18.39 461.38 18.37C462.04 18.35 462.71 18.33 463.36 18.29C463.75 18.27 463.98 18.32 464.25 18.36C464.61 18.42 465 18.47 465 18.59C465 18.61 465.1 18.63 465.18 18.65C465.35 18.68 465.54 18.71 465.72 18.74C465.99 18.78 466.25 18.82 466.62 18.79C466.94 18.77 467.28 18.77 467.6 18.75C467.93 18.74 468.23 18.73 468.53 18.79C468.87 18.85 469.23 18.92 469.62 18.96C469.89 19 470.25 18.94 470.55 18.99C470.73 19.01 470.9 19.05 471.09 19.07C471.18 19.08 471.3 19.08 471.41 19.07C471.63 19.07 471.86 19.06 472.07 19.04C472.32 19.03 472.5 19.03 472.69 19.07C472.87 19.1 473.04 19.14 473.24 19.15C473.54 19.16 473.87 19.1 474.18 19.17C474.33 19.21 474.52 19.24 474.72 19.25C474.93 19.26 475.16 19.24 475.37 19.24C475.47 19.24 475.58 19.26 475.63 19.28C475.67 19.29 475.62 19.32 475.57 19.34C475.51 19.36 475.43 19.38 475.34 19.38C474.68 19.41 474.02 19.44 473.36 19.46C472.96 19.48 472.96 19.48 472.17 19.39C471.98 19.36 471.77 19.37 471.54 19.38C471.23 19.39 470.91 19.42 470.58 19.39C470.15 19.29 469.62 19.28 469.06 19.32C468.83 19.34 468.61 19.34 468.44 19.31C468.07 19.25 467.68 19.2 467.35 19.13C467.1 19.08 466.98 19.07 466.87 19.15C466.84 19.17 466.81 19.2 466.81 19.22C466.86 19.29 466.93 19.37 466.97 19.45C466.98 19.47 466.93 19.49 466.9 19.51C466.79 19.58 466.65 19.58 466.42 19.52C466.18 19.47 465.9 19.43 465.53 19.46C465.21 19.48 464.86 19.48 464.54 19.5C464.05 19.54 463.7 19.49 463.34 19.42C463.27 19.41 463.14 19.4 463.05 19.4C462.05 19.44 461.07 19.48 460.07 19.52C459.86 19.53 459.66 19.51 459.5 19.46C459.32 19.42 459.13 19.4 458.91 19.41C458.03 19.44 457.15 19.47 456.27 19.52C455.91 19.53 455.62 19.51 455.37 19.46C455.19 19.42 455.01 19.41 454.78 19.41C454.52 19.42 454.34 19.44 454.22 19.48C454.1 19.52 454.19 19.55 454.45 19.58C454.74 19.62 455.01 19.67 455.28 19.71C455.5 19.7 455.72 19.69 455.94 19.69C456.03 19.69 456.12 19.72 456.21 19.73C456.48 19.78 456.73 19.82 457.11 19.8C457.43 19.77 457.77 19.77 458.1 19.75C458.55 19.74 458.55 19.74 459.29 19.83C459.47 19.86 459.67 19.85 459.91 19.84C460.12 19.83 460.34 19.85 460.48 19.9C460.54 19.91 460.52 19.95 460.4 20.05C460.4 20.12 460.54 20.09 460.58 20.04C460.66 19.97 460.52 19.95 460.25 19.98C460.06 20.01 459.97 20.05 460.02 20.08C460.04 20.1 460.17 20.12 460.4 20.05C460.98 19.95 461.43 19.94 461.86 19.92C462.11 19.9 462.27 19.91 462.47 19.95C462.72 20 462.96 20.05 463.35 20.02C463.78 19.99 464.23 19.99 464.67 19.96C465.07 19.94 465.27 20.01 465.53 20.05C465.84 20.1 466.18 20.04 466.46 20.07C466.75 20.1 466.96 20.16 467.3 20.17C467.79 20.13 468.11 20.21 468.48 20.26C468.78 20.3 469.13 20.26 469.44 20.24C469.79 20.23 470.09 20.24 470.33 20.3C470.62 20.36 470.93 20.35 471.25 20.33C472 20.3 472.03 20.29 472.46 20.38C472.78 20.44 473.08 20.41 473.39 20.4C473.66 20.44 473.93 20.49 474.22 20.52C474.29 20.53 474.43 20.52 474.55 20.51C474.87 20.5 475.21 20.49 475.53 20.47C475.76 20.47 475.99 20.44 476.19 20.45C476.39 20.46 476.56 20.51 476.74 20.53C476.92 20.56 477.11 20.59 477.28 20.62C477.55 20.67 477.8 20.71 478.18 20.68C478.5 20.66 478.83 20.66 479.16 20.64C479.58 20.62 479.57 20.63 480.35 20.72C480.78 20.77 481.21 20.71 481.64 20.7C481.85 20.7 482.06 20.71 482.21 20.76C482.27 20.78 482.25 20.81 482.27 20.83C481.16 20.88 480.06 20.91 478.97 20.97C478.55 20.99 478.33 20.93 478.1 20.89C477.72 20.81 477.23 20.92 476.88 20.83C476.66 20.77 476.35 20.74 475.99 20.77C475.77 20.78 475.55 20.78 475.32 20.8C474.76 20.83 474.25 20.83 473.8 20.73C473.65 20.69 473.43 20.67 473.27 20.64C473.08 20.6 472.9 20.58 472.68 20.58C471.68 20.62 470.69 20.66 469.71 20.7C469.62 20.71 469.53 20.73 469.46 20.75C469.27 20.79 469.33 20.82 469.63 20.85C469.73 20.86 469.81 20.88 469.91 20.9C470.09 20.92 470.26 20.97 470.46 20.98C470.66 20.99 470.89 20.97 471.11 20.96C471.33 20.95 471.57 20.93 471.77 20.94C471.97 20.95 472.13 20.99 472.32 21.02C472.41 21.03 472.52 21.06 472.6 21.05C473.04 21.04 473.48 21.03 473.92 21.01C474.19 21.05 474.43 21.11 474.75 21.13C474.96 21.14 475.18 21.12 475.4 21.12C475.49 21.12 475.61 21.14 475.66 21.16C475.68 21.18 475.6 21.21 475.53 21.22C475.28 21.28 474.93 21.27 474.62 21.29C474.28 21.31 473.97 21.31 473.71 21.25C473.53 21.21 473.34 21.19 473.12 21.19C472.57 21.21 472.02 21.24 471.47 21.26C471.38 21.26 471.26 21.25 471.17 21.24C470.47 21.14 470.47 21.14 469.98 21.16C469.25 21.19 469.25 21.19 468.76 21.11C468.67 21.1 468.57 21.07 468.49 21.07C467.71 21.09 466.94 21.12 466.18 21.16C465.92 21.17 465.75 21.17 465.56 21.13C465.4 21.1 465.21 21.06 465.01 21.05C464.81 21.04 464.58 21.06 464.36 21.07C464.14 21.08 463.9 21.1 463.71 21.09C463.51 21.08 463.34 21.03 463.16 21C462.98 20.97 462.79 20.97 462.54 20.98C461.78 21.02 461.77 21.02 461.02 20.92C460.93 20.91 460.82 20.9 460.72 20.9C460.17 20.92 459.62 20.95 459.07 20.97C458.85 20.97 458.65 20.95 458.5 20.91C458.44 20.89 458.46 20.86 458.42 20.8C458.37 20.79 458.42 20.81 458.44 20.84C458.54 20.83 458.66 20.83 458.73 20.82C458.92 20.79 459.01 20.75 458.96 20.72C458.94 20.71 458.81 20.68 458.73 20.68C458.58 20.68 458.46 20.72 458.42 20.8C458 20.85 457.55 20.86 457.11 20.89C456.86 20.91 456.7 20.9 456.5 20.86C456.26 20.81 456.01 20.76 455.62 20.79C455.19 20.82 454.74 20.82 454.29 20.84C453.79 20.87 453.57 20.73 453.14 20.74C452.7 20.74 452.26 20.77 451.82 20.79C451.43 20.8 451.43 20.8 450.63 20.7C450.33 20.67 449.98 20.72 449.7 20.68C449.5 20.66 449.33 20.62 449.15 20.6C449.07 20.59 448.94 20.59 448.84 20.59C448.29 20.61 447.72 20.62 447.19 20.66C446.58 20.7 446.12 20.66 445.69 20.57C445.14 20.58 444.58 20.59 444.04 20.62C443.65 20.65 443.42 20.6 443.15 20.55C443.06 20.54 442.98 20.52 442.88 20.51C442.78 20.51 442.66 20.52 442.55 20.52C442.11 20.54 441.66 20.55 441.23 20.58C440.7 20.61 440.5 20.49 440.09 20.47C439.82 20.55 439.67 20.65 439.13 20.66C438.69 20.67 438.25 20.69 437.81 20.71C437.59 20.72 437.37 20.73 437.15 20.74C436.8 20.75 436.63 20.81 436.71 20.9C436.75 20.95 436.78 21.01 436.81 21.06C436.88 21.15 436.72 21.22 436.44 21.23C435.66 21.27 434.89 21.3 434.12 21.32C433.91 21.33 433.71 21.31 433.54 21.27C433.37 21.22 433.17 21.21 432.96 21.21C432.19 21.24 431.42 21.28 430.64 21.3C430.56 21.31 430.44 21.29 430.36 21.28C430.17 21.25 429.99 21.22 429.81 21.19C429.37 21.21 428.93 21.22 428.5 21.24C427.8 21.26 427.8 21.27 427.28 21.18C427.19 21.17 427.09 21.14 427.01 21.14C426.67 21.15 426.35 21.16 426.01 21.18C425.03 21.22 425.03 21.22 424.74 21.17C424.48 21.13 424.25 21.08 423.85 21.1C423.43 21.13 422.97 21.14 422.53 21.16C422.2 21.17 421.88 21.18 421.55 21.19C421.46 21.19 421.37 21.16 421.28 21.14C421.01 21.1 420.75 21.06 420.38 21.09C420.17 21.1 419.94 21.1 419.72 21.11C419.14 21.14 419.14 21.14 418.2 21.04C418.11 21.04 417.99 21.03 417.9 21.03C417.13 21.06 416.36 21.09 415.58 21.12C415.49 21.12 415.38 21.11 415.28 21.11C414.23 21.02 414.23 21.02 413.1 21.06C412.68 21.08 412.66 21.09 412.21 21C412.01 20.97 411.85 20.95 411.61 20.96C410.73 21 409.84 21.03 408.97 21.07C408.57 21.09 408.35 21.05 408.08 21.01C407.99 20.99 407.89 20.96 407.81 20.96C406.92 20.99 406.04 21.03 405.16 21.06C405.08 21.06 404.98 21.03 404.89 21.02C404.71 20.99 404.53 20.95 404.33 20.94C404.12 20.93 403.9 20.96 403.67 20.97C403.12 20.99 403.12 20.99 402.47 20.9C402.39 20.88 402.27 20.87 402.19 20.87C401.3 20.9 400.42 20.93 399.54 20.98C399.04 21 398.7 20.96 398.34 20.89C398.27 20.88 398.14 20.87 398.05 20.88C397.06 20.91 396.07 20.96 395.07 20.99C394.86 21 394.66 20.98 394.5 20.94C394.23 20.87 393.91 20.88 393.58 20.9C392.81 20.93 392.81 20.93 392.35 20.85C392.26 20.84 392.18 20.82 392.08 20.81C391.98 20.8 391.86 20.81 391.76 20.81C391.32 20.83 390.88 20.85 390.44 20.86C390 20.88 389.55 20.89 389.12 20.92C388.58 20.95 388.33 20.85 387.95 20.81C387.41 20.83 386.85 20.84 386.31 20.87C385.89 20.9 385.7 20.83 385.42 20.8C385.33 20.79 385.23 20.76 385.14 20.76C384.15 20.8 383.15 20.84 382.16 20.88C381.92 20.89 381.76 20.88 381.56 20.84C381.11 20.76 381.09 20.76 380.35 20.79C380.02 20.81 379.7 20.82 379.42 20.76C379.17 20.7 378.87 20.69 378.52 20.71C378.09 20.73 377.64 20.75 377.2 20.76C376.76 20.78 376.32 20.8 375.88 20.81C375.52 20.82 375.31 20.75 375.03 20.71C374.94 20.7 374.82 20.7 374.72 20.7C374.28 20.72 373.82 20.73 373.4 20.76C372.88 20.79 372.59 20.7 372.22 20.66C372.14 20.65 372.01 20.65 371.91 20.66C371.13 20.69 370.36 20.72 369.59 20.75C369.31 20.71 369.03 20.67 368.76 20.63C368.32 20.64 367.88 20.66 367.44 20.68C367.1 20.69 366.76 20.69 366.45 20.72C366.04 20.75 365.84 20.68 365.57 20.64C365.47 20.63 365.37 20.61 365.28 20.61C364.73 20.63 364.18 20.65 363.63 20.67C363.11 20.7 362.9 20.56 362.47 20.56C362.03 20.57 361.58 20.59 361.15 20.62C360.66 20.65 360.31 20.6 359.95 20.53C359.88 20.52 359.75 20.51 359.66 20.52C359.1 20.54 358.56 20.56 358 20.58C357.91 20.58 357.8 20.58 357.7 20.57C356.64 20.48 356.64 20.48 356.18 20.5C355.86 20.51 355.52 20.52 355.19 20.53C355.1 20.54 354.98 20.52 354.89 20.51C354.2 20.42 354.2 20.42 353.7 20.43C353.26 20.45 352.82 20.47 352.38 20.49C352.1 20.45 351.82 20.41 351.55 20.37C351 20.39 350.44 20.4 349.9 20.43C349.64 20.45 349.48 20.44 349.28 20.4C349.04 20.36 348.8 20.3 348.4 20.33C347.97 20.36 347.52 20.36 347.08 20.39C346.56 20.41 346.35 20.28 345.93 20.28C345.49 20.28 345.03 20.3 344.6 20.33C344.11 20.36 343.76 20.31 343.41 20.25C343.33 20.23 343.21 20.23 343.11 20.23C341.9 20.28 340.69 20.32 339.47 20.37C338.73 20.4 338.73 20.41 337.3 20.32C337.2 20.32 337.1 20.31 336.99 20.31C336.55 20.33 336.1 20.34 335.67 20.37C335.15 20.4 334.86 20.32 334.5 20.27C334.42 20.26 334.29 20.26 334.18 20.27C333.85 20.28 333.52 20.29 333.19 20.31C332.75 20.32 332.31 20.34 331.86 20.36C331.59 20.32 331.31 20.28 331.03 20.24C330.49 20.26 329.93 20.27 329.39 20.31C328.97 20.33 328.78 20.27 328.5 20.23C328.41 20.22 328.31 20.19 328.22 20.19C327.23 20.23 326.23 20.27 325.24 20.31C324.84 20.33 324.65 20.26 324.37 20.23C324.28 20.22 324.17 20.2 324.09 20.2C323.43 20.22 322.76 20.25 322.1 20.28C321.73 20.29 321.73 20.29 320.91 20.2C320.82 20.19 320.71 20.18 320.62 20.18C318.52 20.26 316.43 20.35 314.34 20.43C314.12 20.43 313.93 20.41 313.76 20.37C313.59 20.33 313.39 20.31 313.18 20.32C312.3 20.35 311.41 20.38 310.53 20.42C310.17 20.44 309.89 20.42 309.64 20.37C309.45 20.33 309.28 20.31 309.04 20.32C308.6 20.34 308.16 20.36 307.72 20.37C307.28 20.39 306.84 20.41 306.4 20.43C305.96 20.45 305.51 20.46 305.08 20.48C304.54 20.52 304.28 20.42 303.91 20.37C303.25 20.4 302.59 20.42 301.94 20.45C301.05 20.48 300.17 20.52 299.29 20.55C299.21 20.55 299.11 20.53 299.02 20.51C298.74 20.48 298.54 20.42 298.13 20.44C296.16 20.52 294.17 20.6 292.19 20.68C291.77 20.7 291.59 20.63 291.31 20.6C291.22 20.59 291.11 20.57 291.02 20.57C289.92 20.61 288.82 20.65 287.72 20.7C287.27 20.71 287.27 20.71 286.52 20.62C286.43 20.61 286.32 20.6 286.22 20.6C284.79 20.65 283.36 20.71 281.92 20.77C281.71 20.78 281.52 20.76 281.34 20.71C281.18 20.67 280.97 20.65 280.77 20.66C279.45 20.71 278.12 20.76 276.8 20.82C276.45 20.83 276.15 20.82 275.9 20.76C275.72 20.72 275.54 20.71 275.31 20.72C273.33 20.8 271.34 20.87 269.36 20.95C268.98 20.97 268.71 20.94 268.47 20.89C268.28 20.85 268.11 20.84 267.87 20.85C267.62 20.86 267.46 20.88 267.32 20.92C267.14 20.98 267.03 21.06 266.6 21.06C266.16 21.07 265.71 21.09 265.28 21.12C264.87 21.14 264.67 21.07 264.41 21.03C264.22 21 264.04 21 263.79 21.01C263.56 21.03 263.42 21.05 263.29 21.1C263 21.21 262.97 21.21 262.61 21.14C262.41 21.11 262.24 21.08 262.03 21.09C261.15 21.12 260.26 21.15 259.38 21.19C258.87 21.21 258.87 21.21 258.49 21.14C258.3 21.1 258.12 21.08 257.9 21.09C255.47 21.19 253.05 21.28 250.63 21.38C250.25 21.4 250 21.37 249.73 21.32C249.64 21.31 249.56 21.28 249.46 21.28C249.36 21.27 249.24 21.28 249.14 21.28C247.37 21.35 245.6 21.42 243.85 21.49C243.45 21.51 243.23 21.46 242.96 21.42C242.86 21.41 242.78 21.39 242.68 21.38C242.58 21.38 242.46 21.39 242.36 21.39C240.59 21.46 238.82 21.53 237.07 21.61C236.65 21.62 236.47 21.56 236.19 21.53C236.1 21.51 236 21.49 235.91 21.49C235.36 21.51 234.81 21.54 234.25 21.56C232.93 21.61 231.61 21.66 230.29 21.71C229.78 21.73 229.56 21.6 229.13 21.61C228.58 21.61 228.03 21.65 227.47 21.67C227.03 21.69 226.59 21.7 226.15 21.72C225.72 21.74 225.72 21.74 224.64 21.65C224.54 21.64 224.43 21.63 224.33 21.64C222.79 21.7 221.24 21.76 219.71 21.82C219.35 21.83 219.06 21.83 218.8 21.77C218.62 21.73 218.44 21.71 218.22 21.72C215.9 21.81 213.59 21.9 211.27 21.99C211.18 22 211.07 21.98 210.98 21.97C210.8 21.94 210.62 21.91 210.43 21.88C210.3 21.92 210.13 21.95 210.04 21.99C209.92 22.04 209.76 22.06 209.51 22.07C209.25 22.08 209.09 22.08 208.89 22.04C208.65 21.99 208.4 21.95 208.01 21.97C205.59 22.07 203.16 22.16 200.74 22.26C200.34 22.27 200.15 22.21 199.87 22.17C199.78 22.16 199.67 22.15 199.58 22.15C198.59 22.19 197.6 22.23 196.6 22.26C193.85 22.37 191.09 22.48 188.34 22.59C187.84 22.61 187.49 22.58 187.14 22.51C187.07 22.5 186.94 22.49 186.85 22.49C182.99 22.64 179.13 22.8 175.27 22.95C175.07 22.96 174.87 22.93 174.7 22.89C174.52 22.85 174.33 22.83 174.12 22.84C172.35 22.91 170.59 22.98 168.83 23.05C168.39 23.07 168.38 23.07 167.93 23C167.83 22.98 167.73 22.95 167.66 22.95C167.5 22.96 167.36 23 167.25 23.05C167.15 23.11 166.98 23.13 166.73 23.14C166.48 23.15 166.31 23.14 166.12 23.11C165.87 23.06 165.64 23.02 165.24 23.03C160.17 23.24 155.1 23.44 150.03 23.64C149.63 23.66 149.44 23.59 149.16 23.56C149.07 23.55 148.97 23.53 148.87 23.53C148.77 23.53 148.65 23.53 148.54 23.54C140.28 23.87 132.01 24.19 123.74 24.52C123.25 24.54 123.26 24.54 122.72 24.68C122.65 24.7 122.56 24.72 122.47 24.72C119.94 24.83 117.4 24.93 114.87 25.03C113.76 25.07 112.66 25.12 111.56 25.16C111.17 25.17 111.17 25.17 110.23 25.34C110.15 25.35 110.05 25.37 109.96 25.38C105.55 25.55 101.14 25.73 96.73 25.9C96.38 25.91 96.1 25.94 95.94 26.01C95.83 26.06 95.68 26.1 95.46 26.11C92.38 26.23 89.29 26.35 86.2 26.47C85.84 26.48 85.62 26.53 85.44 26.59C85.38 26.61 85.32 26.64 85.24 26.65C85.16 26.67 85.04 26.67 84.94 26.68C82.29 26.78 79.65 26.89 77 26.99C76.6 27 76.44 27.06 76.25 27.12C76.18 27.14 76.14 27.17 76.05 27.18C75.96 27.2 75.84 27.2 75.73 27.2C73.53 27.29 71.32 27.37 69.12 27.46C68.69 27.45 68.6 27.54 68.39 27.6C68.32 27.62 68.27 27.64 68.18 27.65C68.09 27.67 67.97 27.66 67.85 27.67C66.09 27.74 64.33 27.81 62.56 27.88C62.15 27.89 62.07 27.97 61.85 28.02C61.78 28.04 61.7 28.07 61.62 28.07C60.51 28.12 59.41 28.16 58.31 28.2C57.94 28.22 57.94 28.22 57.3 28.37C57.22 28.39 57.14 28.4 57.04 28.41C55.4 28.48 53.74 28.54 52.08 28.61C51.87 28.61 51.72 28.65 51.62 28.7C51.51 28.76 51.36 28.79 51.14 28.8C49.82 28.85 48.5 28.91 47.18 28.95C46.81 28.97 46.57 29.01 46.41 29.08C46.29 29.13 46.14 29.15 45.91 29.16C44.59 29.22 43.27 29.27 41.94 29.32C41.55 29.33 41.35 29.38 41.19 29.45C41.06 29.5 40.92 29.52 40.67 29.53C38.25 29.62 35.82 29.71 33.4 29.82C32.99 29.84 32.78 29.78 32.52 29.74C32.13 29.69 31.78 29.63 31.78 29.51C31.78 29.49 31.66 29.47 31.58 29.46C30.99 29.34 30.99 29.34 30.89 29.22C30.84 29.15 30.78 29.07 30.73 28.99C30.64 28.87 30.43 28.83 29.81 28.86C29.59 28.87 29.37 28.88 29.15 28.88C28.82 28.9 28.58 28.85 28.52 28.75C28.48 28.7 28.44 28.65 28.41 28.6C28.74 28.59 28.73 28.59 29.32 28.4C29.57 28.32 29.57 28.32 29.09 28.24C28.91 28.22 28.74 28.18 28.54 28.16C28.45 28.14 28.34 28.14 28.25 28.14C27.69 28.16 27.15 28.18 26.6 28.2C25.72 28.24 25.72 28.24 24.82 28.08C24.75 28.07 24.63 28.05 24.65 28.04C24.72 27.98 24.9 27.95 25.13 27.95C25.46 27.94 25.79 27.92 26.11 27.91C26.33 27.9 26.55 27.89 26.77 27.88C26.98 27.83 27.19 27.77 27.39 27.71C27.69 27.61 27.69 27.61 27.27 27.55C27 27.51 26.72 27.47 26.44 27.43C26.11 27.44 25.78 27.46 25.45 27.47C25.04 27.48 24.87 27.45 24.76 27.35C24.67 27.27 24.78 27.19 25.1 27.17C25.43 27.15 25.74 27.14 25.9 27.06C26.06 26.98 26.34 26.96 26.69 26.95C26.91 26.94 27.13 26.93 27.35 26.92C27.64 26.91 27.79 26.83 27.73 26.74C27.7 26.69 27.63 26.64 27.37 26.63C26.21 26.58 26.2 26.58 25.62 26.47C25.57 26.46 25.53 26.44 25.55 26.42C25.58 26.4 25.65 26.37 25.73 26.36C26.5 26.33 27.27 26.29 28.04 26.27C28.29 26.26 28.48 26.25 28.56 26.19C28.68 26.12 28.63 26.04 28.4 25.99C28.32 25.97 28.2 25.95 28.12 25.95C27.24 25.98 26.36 26.02 25.48 26.05C25.4 26.05 25.26 26.03 25.22 26.01C25.15 25.97 25.25 25.92 25.49 25.9C25.79 25.88 26.11 25.88 26.31 25.8C26.6 25.69 26.95 25.59 27.27 25.48C27.33 25.47 27.41 25.43 27.39 25.43C27.23 25.39 27.03 25.37 26.86 25.34C26.56 25.28 26.56 25.21 26.63 25.14C26.68 25.08 26.88 25.05 27.13 25.05C27.23 25.05 27.37 25.05 27.45 25.04C27.68 25 27.75 24.96 27.64 24.93C27.57 24.91 27.45 24.89 27.37 24.89C25.94 24.94 24.51 24.99 23.09 25.06C22.67 25.08 22.47 25.02 22.22 24.98C22.02 24.95 21.84 24.93 21.6 24.96C21.37 24.98 21.15 24.97 21.01 24.92C20.9 24.88 21.1 24.84 21.64 24.8C21.74 24.79 21.85 24.79 21.93 24.77C22.7 24.6 22.7 24.6 23.23 24.58C23.75 24.56 23.75 24.56 24.03 24.47C24.15 24.43 24.29 24.39 24.41 24.34C24.46 24.33 24.54 24.29 24.51 24.29C24.37 24.24 24.16 24.23 23.93 24.24C23.41 24.27 22.8 24.25 22.52 24.39C22.42 24.45 22.25 24.46 22.01 24.47C19.59 24.57 17.18 24.67 14.75 24.76C14.36 24.77 14.18 24.83 14.02 24.89C13.89 24.94 13.75 24.96 13.49 24.97C13.24 24.98 13.04 24.98 12.89 24.93C12.8 24.9 12.88 24.86 13.08 24.81C13.36 24.75 13.31 24.68 13.21 24.6C13.15 24.56 12.94 24.52 12.72 24.53C12.39 24.53 12.08 24.55 11.8 24.49C11.64 24.46 11.44 24.43 11.26 24.4C10.91 24.34 10.56 24.27 10.08 24.32C9.74 24.3 9.51 24.25 9.24 24.2C8.79 24.13 8.75 24.12 9.07 24.05C9.43 23.96 9.15 23.85 9.35 23.77C9.56 23.68 9.85 23.6 10.11 23.52C10.18 23.5 10.24 23.48 10.31 23.45C10.15 23.42 10.01 23.39 9.83 23.36C9.6 23.34 9.48 23.3 9.49 23.21C9.44 23.19 9.46 23.23 9.52 23.24C9.58 23.25 9.72 23.24 9.8 23.23C9.98 23.2 10.08 23.16 10.03 23.13C10 23.11 9.87 23.09 9.79 23.09C9.65 23.09 9.52 23.13 9.48 23.21C8.73 23.27 7.96 23.3 7.18 23.33C7.1 23.33 7 23.3 6.91 23.29C6.6 23.24 6.6 23.24 5.7 23.22C5.61 23.22 5.48 23.2 5.43 23.18C5.24 23.09 5.24 22.98 5.15 22.88C5.32 22.82 5.49 22.76 5.67 22.69C6.03 22.56 6.5 22.45 6.78 22.31C6.72 22.24 6.64 22.16 6.93 22.1C7.76 22.02 7.76 22.02 7.98 21.95C8.63 21.74 9.27 21.52 9.94 21.32C10.12 21.26 10.12 21.23 9.8 21.21C9.7 21.21 9.59 21.2 9.48 21.21C9.15 21.22 8.82 21.25 8.49 21.24C8.16 21.24 7.92 21.17 7.65 21.13C7.38 21.09 7.1 21.04 6.83 21C6.51 21 6.2 21.05 5.89 20.98C5.65 20.93 5.34 20.89 5.07 20.84C5.28 20.73 5.66 20.64 5.96 20.53C6.23 20.44 6.24 20.44 6.97 20.37C7.32 20.33 7.44 20.16 7.15 20.11C6.79 20.05 6.42 19.99 6.05 19.93C5.74 19.94 5.42 19.98 5.12 19.91C4.88 19.86 4.62 19.83 4.23 19.85C3.58 19.88 2.91 19.9 2.25 19.93C2.02 19.94 1.77 19.93 1.67 19.88C1.6 19.84 1.8 19.79 2.02 19.78C2.35 19.77 2.65 19.75 2.82 19.67C2.98 19.59 3.27 19.57 3.62 19.56C3.71 19.55 3.82 19.54 3.86 19.52C4.1 19.43 4.37 19.35 4.88 19.35C5.1 19.32 5.21 19.28 5.14 19.25C5.1 19.23 4.96 19.2 4.88 19.2C4.33 19.22 3.77 19.24 3.23 19.26C2.98 19.28 2.79 19.28 2.63 19.23C2.51 19.2 2.57 19.16 2.78 19.12C2.97 19.08 3.02 19.03 3.01 18.98C2.97 18.86 2.77 18.83 2.13 18.83C1.67 18.84 1.56 18.82 1.46 18.72C1.43 18.69 1.36 18.66 1.41 18.64C1.7 18.54 1.88 18.41 2.42 18.36C2.63 18.34 2.86 18.34 2.99 18.3C3.13 18.26 3.25 18.21 3.39 18.17C3.56 18.13 3.68 18.08 3.6 18.05C3.47 18 3.25 18 3 18.02C2.79 18.03 2.56 18.04 2.34 18.04C1.95 18.06 1.63 18.02 1.58 17.96C1.45 17.78 1.32 17.6 1.2 17.42C1.19 17.4 1.22 17.37 1.27 17.36C1.46 17.29 1.66 17.23 1.85 17.17C2.08 17.09 2.44 17.11 2.75 17.09C3.18 17.07 3.18 17.07 3.76 16.92C3.99 16.86 4.38 16.89 4.61 16.83C4.69 16.82 4.8 16.79 4.78 16.77C4.75 16.75 4.62 16.74 4.52 16.73C4.43 16.72 4.31 16.72 4.21 16.72C3 16.77 1.79 16.82 0.57 16.86C0.37 16.87 0.14 16.84 0.06 16.79C-0.01 16.75 0.01 16.69 0 16.64C0.19 16.58 0.41 16.52 0.57 16.45C0.7 16.4 0.85 16.38 1.1 16.37C1.43 16.37 1.76 16.35 2.14 16.33C2.83 16.11 3.51 15.87 4.25 15.65C4.55 15.55 4.48 15.46 4.54 15.37C4.59 15.28 5.04 15.29 5.34 15.26C5.58 15.24 5.66 15.19 5.57 15.16C5.51 15.14 5.39 15.12 5.3 15.12C5.08 15.12 4.86 15.13 4.64 15.14C4.42 15.15 4.17 15.14 3.99 15.17C3.81 15.19 3.7 15.25 3.59 15.29C3.46 15.34 3.29 15.36 3.04 15.36C2.71 15.36 2.38 15.38 2.06 15.39C1.7 15.33 1.32 15.27 0.97 15.21C0.91 15.2 0.89 15.16 0.9 15.14C0.91 15.08 0.81 15.04 0.59 15.01C0.4 14.99 0.25 14.96 0.07 14.93C0.21 14.88 0.35 14.84 0.46 14.8C0.69 14.7 0.99 14.64 1.49 14.64C1.69 14.58 1.85 14.5 2.11 14.46C2.36 14.42 2.78 14.46 2.97 14.37C3.06 14.33 3.2 14.27 3.38 14.26C3.67 14.23 4.04 14.24 4.21 14.15C4.31 14.11 4.45 14.06 4.65 14.05C4.87 14.03 5.09 14.03 5.25 14C5.34 13.99 5.43 13.96 5.43 13.94C5.43 13.92 5.3 13.9 5.21 13.89C5.12 13.88 5.01 13.88 4.91 13.88C4.57 13.89 4.24 13.91 3.91 13.92C3.82 13.92 3.71 13.91 3.61 13.9C3.32 13.88 3.33 13.85 3.57 13.79C3.8 13.74 3.97 13.67 4.16 13.6C4.37 13.59 4.64 13.6 4.79 13.57C5.03 13.52 5.21 13.45 5.41 13.39C5.63 13.38 5.85 13.38 6.06 13.36C6.15 13.35 6.19 13.32 6.26 13.3C6.39 13.26 6.51 13.2 6.69 13.19C6.98 13.16 7.34 13.17 7.51 13.08C7.61 13.03 7.77 12.98 7.95 12.98C8.47 12.97 8.69 12.89 8.96 12.8C9.16 12.74 9.59 12.77 9.81 12.71C9.95 12.68 10.06 12.63 10.21 12.59C10.27 12.58 10.39 12.57 10.49 12.56C11.04 12.54 11.6 12.52 12.14 12.5C12.23 12.49 12.31 12.47 12.38 12.45C12.52 12.41 12.6 12.35 12.78 12.33C12.95 12.3 13.2 12.3 13.41 12.29C14.1 12.27 14.15 12.27 14.46 12.14C14.72 12.04 15.34 12.11 15.54 11.99C15.66 11.93 15.88 11.87 16.28 11.86C16.83 11.85 17.38 11.82 17.93 11.8C18.43 11.78 18.42 11.78 18.95 11.64C19.19 11.57 19.55 11.58 19.86 11.57C20.2 11.55 20.5 11.53 20.66 11.46C20.82 11.38 21.12 11.36 21.46 11.35C21.77 11.33 22.12 11.34 22.37 11.28C22.97 11.13 22.96 11.13 23.38 11.11C24.04 11.09 24.71 11.06 25.37 11.03C25.81 11.02 26.27 11.01 26.68 10.98C26.98 10.95 27.12 10.87 27.31 10.81C27.86 10.78 28.4 10.76 28.95 10.74C29.72 10.7 30.49 10.68 31.27 10.64C31.6 10.59 31.65 10.46 32.21 10.45C32.54 10.45 32.87 10.43 33.2 10.41C33.76 10.39 34.3 10.36 34.86 10.35C35.28 10.34 35.35 10.26 35.57 10.21C35.64 10.19 35.71 10.16 35.8 10.16C36.67 10.11 37.56 10.1 38.41 10.04C38.5 10.03 38.58 10 38.6 9.97C38.61 9.96 38.49 9.94 38.42 9.93C38.33 9.92 38.22 9.9 38.13 9.91C35.37 10.02 32.61 10.12 29.85 10.23C29.47 10.25 29.47 10.25 28.53 10.42C28.45 10.43 28.35 10.45 28.25 10.45C27.81 10.47 27.36 10.48 26.93 10.51C26.58 10.53 26.28 10.51 26.03 10.45C25.85 10.41 25.66 10.4 25.43 10.4C25.18 10.41 25.01 10.43 24.87 10.47C24.67 10.53 24.57 10.6 24.17 10.62C22.29 10.68 20.41 10.76 18.54 10.84C18.28 10.81 18.16 10.78 18.22 10.74C18.26 10.72 18.34 10.69 18.42 10.69C19.19 10.65 19.96 10.62 20.73 10.59C20.84 10.59 20.99 10.59 21.05 10.57C21.34 10.51 21.44 10.39 22 10.38C22.32 10.38 22.65 10.36 22.95 10.33C23.04 10.33 23.12 10.29 23.14 10.27C23.15 10.26 23.04 10.24 22.96 10.23C22.66 10.18 22.32 10.24 22.03 10.21C21.93 10.2 21.79 10.18 21.77 10.16C21.76 10.14 21.87 10.12 21.95 10.1C22.02 10.08 22.12 10.07 22.22 10.07C23.1 10.03 23.98 9.99 24.87 9.96C25.23 9.95 25.48 9.91 25.64 9.84C25.76 9.79 25.91 9.76 26.13 9.75C27.68 9.69 29.22 9.63 30.77 9.57C31.15 9.56 31.35 9.51 31.51 9.44C31.64 9.39 31.79 9.37 32.03 9.36C34.24 9.28 36.44 9.18 38.65 9.1C39.06 9.09 39.18 9.02 39.38 8.97C39.46 8.94 39.5 8.92 39.6 8.91C39.69 8.9 39.81 8.9 39.92 8.89C41.69 8.82 43.45 8.75 45.22 8.69C45.63 8.67 45.71 8.59 45.93 8.54C46 8.52 46.07 8.5 46.15 8.49C47.48 8.44 48.8 8.38 50.12 8.33C51 8.3 51.88 8.26 52.76 8.23C53.2 8.21 53.2 8.21 53.78 8.06C53.85 8.05 53.94 8.03 54.03 8.02C56.57 7.92 59.1 7.82 61.64 7.72C61.85 7.71 62 7.68 62.11 7.62C62.22 7.57 62.37 7.53 62.58 7.53C64.56 7.45 66.54 7.37 68.53 7.29C68.89 7.28 69.15 7.24 69.31 7.17C69.43 7.12 69.57 7.09 69.8 7.08C71.78 7.01 73.77 6.93 75.76 6.85C76.14 6.84 76.32 6.78 76.51 6.72C76.58 6.7 76.63 6.67 76.71 6.66C77.7 6.62 78.68 6.57 79.67 6.54C80.09 6.53 80.23 6.46 80.39 6.4C80.53 6.35 80.68 6.33 80.93 6.33C81.49 6.31 82.04 6.29 82.58 6.26C82.66 6.25 82.76 6.22 82.76 6.2C82.78 6.16 82.62 6.13 82.37 6.12C79.72 6.22 77.07 6.33 74.43 6.43C73.99 6.45 73.99 6.45 73.41 6.6C73.34 6.61 73.25 6.63 73.15 6.64C70.62 6.74 68.09 6.84 65.55 6.94C65.33 6.95 65.18 6.98 65.08 7.04C64.97 7.09 64.82 7.12 64.61 7.13C62.18 7.23 59.76 7.33 57.33 7.42C56.97 7.43 56.72 7.47 56.56 7.54C56.44 7.59 56.29 7.62 56.06 7.63C53.75 7.72 51.44 7.81 49.11 7.9C48.88 7.91 48.7 7.86 48.72 7.82C48.72 7.8 48.82 7.76 48.9 7.76C50.11 7.71 51.31 7.65 52.53 7.61C52.94 7.6 53.06 7.53 53.26 7.47C53.33 7.45 53.38 7.43 53.47 7.42C53.56 7.4 53.68 7.41 53.8 7.4C56.66 7.29 59.53 7.17 62.4 7.06C62.81 7.05 62.89 6.97 63.1 6.92C63.18 6.9 63.24 6.87 63.33 6.87C64.21 6.83 65.09 6.8 65.97 6.76C67.52 6.7 69.06 6.64 70.61 6.58C71.06 6.56 71.06 6.56 71.63 6.42C71.69 6.4 71.79 6.38 71.87 6.38C75.95 6.21 80.03 6.05 84.11 5.89C84.33 5.88 84.48 5.85 84.59 5.79C84.69 5.74 84.85 5.71 85.05 5.7C90.57 5.48 96.08 5.26 101.59 5.04C101.96 5.03 102.21 5 102.37 4.92C102.48 4.87 102.63 4.84 102.86 4.83C108.92 4.59 114.99 4.36 121.06 4.11C125.14 3.95 129.22 3.79 133.3 3.63C133.67 3.62 133.87 3.57 134.06 3.51C134.12 3.48 134.18 3.45 134.26 3.45C135.13 3.41 136.01 3.37 136.88 3.33C137.16 3.37 137.43 3.41 137.7 3.45C137.91 3.4 138.11 3.33 138.32 3.28C139.64 3.23 140.94 3.16 142.28 3.13C142.36 3.13 142.46 3.16 142.55 3.18C143.17 3.27 143.53 3.26 143.92 3.13C144.06 3.09 144.18 3.05 144.39 3.04C145.05 3.01 145.72 2.99 146.38 2.96C146.73 2.94 147.02 2.95 147.28 3.01C147.46 3.05 147.65 3.06 147.87 3.06C149.08 3.01 150.29 2.96 151.51 2.91C151.59 2.91 151.67 2.88 151.74 2.86C151.88 2.82 152 2.78 152.13 2.74C152.31 2.76 152.51 2.78 152.66 2.82C152.85 2.85 153.02 2.85 153.28 2.84C158.12 2.65 162.98 2.46 167.83 2.26C168.24 2.25 168.42 2.31 168.7 2.34C168.8 2.36 168.89 2.37 168.99 2.38C169.1 2.38 169.21 2.37 169.32 2.36C172.96 2.22 176.6 2.08 180.24 1.93C180.72 1.91 180.72 1.91 181.43 2.01C181.52 2.02 181.63 2.03 181.73 2.03C183.38 1.96 185.04 1.9 186.69 1.83C186.9 1.82 187.08 1.85 187.28 1.88C187.66 1.95 187.68 1.95 187.96 1.85C188.1 1.8 188.24 1.77 188.46 1.76C188.7 1.74 188.89 1.75 189.08 1.77C189.35 1.81 189.54 1.88 189.95 1.86C191.71 1.78 193.48 1.72 195.24 1.64C195.64 1.63 195.85 1.68 196.12 1.72C196.21 1.73 196.3 1.75 196.4 1.76C196.5 1.76 196.62 1.75 196.73 1.74C198.93 1.66 201.14 1.57 203.34 1.48C203.75 1.46 203.93 1.53 204.21 1.56C204.31 1.57 204.42 1.59 204.5 1.59C205.82 1.54 207.15 1.49 208.48 1.44C208.95 1.42 208.95 1.42 209.67 1.51C209.76 1.52 209.87 1.53 209.97 1.53C211.51 1.47 213.06 1.41 214.6 1.35C215.07 1.33 215.07 1.33 216.45 1.41C216.55 1.41 216.65 1.42 216.75 1.42C218.52 1.35 220.29 1.28 222.05 1.21C222.4 1.19 222.7 1.21 222.95 1.26C223.13 1.3 223.32 1.32 223.54 1.31C225.52 1.23 227.51 1.15 229.49 1.07C229.87 1.05 230.12 1.09 230.38 1.13C230.47 1.15 230.56 1.17 230.66 1.17C230.76 1.18 230.87 1.17 230.98 1.17C232.96 1.09 234.95 1.02 236.93 0.93C237.33 0.91 237.54 0.97 237.81 1C237.91 1.02 238.01 1.04 238.09 1.04C238.86 1.02 239.64 0.99 240.4 0.95C240.82 0.93 241 1 241.28 1.03C241.37 1.04 241.48 1.07 241.57 1.06C243.22 1 244.88 0.93 246.53 0.87C246.76 0.86 246.94 0.87 247.12 0.91C247.37 0.96 247.66 0.98 248.02 0.97C248.79 0.93 249.56 0.9 250.34 0.87C250.79 0.86 250.79 0.86 252.18 0.93C252.28 0.94 252.39 0.95 252.49 0.95C253.81 0.89 255.14 0.84 256.46 0.79C256.81 0.77 257.1 0.79 257.36 0.84C257.54 0.88 257.72 0.9 257.95 0.89C259.16 0.84 260.37 0.79 261.59 0.74C262.03 0.72 262.47 0.69 262.91 0.69C263.23 0.69 263.46 0.77 263.75 0.8C263.83 0.82 263.96 0.8 264.07 0.8C265.61 0.74 267.16 0.68 268.7 0.61C269.1 0.6 269.31 0.65 269.58 0.69C269.68 0.7 269.78 0.73 269.85 0.72C270.41 0.71 270.96 0.68 271.51 0.66C272.17 0.64 272.84 0.62 273.5 0.58C274.03 0.55 274.23 0.69 274.66 0.69C274.99 0.69 275.32 0.67 275.65 0.65C276.31 0.63 276.97 0.6 277.63 0.58C277.86 0.57 278.04 0.54 278.12 0.49C278.13 0.48 278.02 0.46 277.94 0.44C277.05 0.29 277.05 0.29 276.16 0.32C275.6 0.34 275.06 0.37 274.5 0.39C274.41 0.39 274.3 0.38 274.21 0.37C273.94 0.34 273.97 0.31 274.19 0.26C274.42 0.2 274.59 0.13 274.78 0.07C275.06 0.11 275.33 0.15 275.6 0.19C275.82 0.18 276.04 0.17 276.26 0.16C277.36 0.12 278.47 0.08 279.57 0.04C279.65 0.04 279.75 0.07 279.84 0.08C280.11 0.12 280.35 0.16 280.74 0.15C281.73 0.1 282.72 0.06 283.71 0.02C284.14 0.01 284.14 0.01 284.91 0.1C284.99 0.11 285.11 0.12 285.2 0.12C286.2 0.08 287.18 0.04 288.18 0C288.39 0 288.6 0.02 288.75 0.06C288.81 0.08 288.8 0.11 289.06 0.36C289.85 0.56 290.39 0.54 290.94 0.52C291.17 0.51 291.38 0.51 291.53 0.48C291.61 0.46 291.71 0.43 291.71 0.41C291.71 0.4 291.56 0.37 291.47 0.37C290.81 0.34 290.18 0.41 289.53 0.42C289.23 0.43 288.97 0.38 288.92 0.29C288.9 0.26 288.88 0.24 288.86 0.21C288.84 0.19 288.83 0.16 288.81 0.14C288.55 0.13 288.39 0.16 288.28 0.21C288.19 0.25 288.06 0.3 287.88 0.33C287.7 0.35 287.45 0.35 287.23 0.36C287.01 0.36 286.78 0.38 286.58 0.37C286.38 0.36 286.22 0.32 286.03 0.29C285.94 0.28 285.84 0.26 285.75 0.26C284.98 0.29 284.22 0.31 283.46 0.35C283.06 0.37 282.86 0.3 282.6 0.26C282.4 0.23 282.2 0.24 282.17 0.31C282.09 0.48 282.39 0.55 283.07 0.52C283.64 0.49 284.14 0.48 284.59 0.59C284.65 0.6 284.79 0.61 284.87 0.61C285.42 0.59 285.96 0.56 286.51 0.54C286.61 0.54 286.72 0.55 286.81 0.55C288.17 0.63 288.17 0.63 288.63 0.61C288.85 0.6 289.07 0.6 289.04 0.36C289.46 0.11 290.13 0.09 290.78 0.06C291.2 0.03 291.38 0.1 291.65 0.13C291.75 0.15 291.85 0.17 291.94 0.17C293.37 0.11 294.8 0.06 296.23 0C296.47 -0.01 296.64 0 296.83 0.04C297.07 0.09 297.34 0.12 297.72 0.1C298.48 0.06 299.26 0.04 300.03 0.01C300.42 -0.01 300.42 -0.01 301.22 0.08C301.31 0.09 301.42 0.11 301.51 0.1C302.29 0.08 303.06 0.04 303.82 0.01C304.04 0 304.23 0.03 304.4 0.07C304.57 0.11 304.77 0.13 304.98 0.12C305.75 0.09 306.52 0.06 307.29 0.03C307.38 0.03 307.49 0.04 307.58 0.05C308.4 0.14 308.4 0.14 308.77 0.13C309.32 0.1 309.88 0.09 310.42 0.06C310.95 0.03 311.22 0.12 311.58 0.17C312.57 0.13 313.57 0.1 314.55 0.05C314.95 0.03 315.16 0.08 315.43 0.12C315.52 0.14 315.62 0.17 315.71 0.16C316.04 0.16 316.37 0.14 316.69 0.13C317.02 0.11 317.35 0.1 317.68 0.09C318.06 0.13 318.31 0.24 318.84 0.2C319.16 0.18 319.5 0.17 319.83 0.16C320.15 0.15 320.49 0.13 320.82 0.12C321.04 0.11 321.26 0.11 321.48 0.09C321.87 0.07 322.07 0.15 322.35 0.18C322.44 0.19 322.55 0.21 322.63 0.2C323.29 0.18 323.96 0.16 324.61 0.13C325.11 0.1 325.45 0.14 325.81 0.21C325.88 0.22 326.01 0.23 326.1 0.22C326.88 0.2 327.64 0.16 328.41 0.13C328.62 0.13 328.82 0.15 328.99 0.19C329.16 0.23 329.36 0.25 329.57 0.24C330.34 0.21 331.11 0.18 331.88 0.15C331.97 0.15 332.09 0.16 332.17 0.17C332.92 0.27 332.92 0.27 333.36 0.25C333.47 0.25 333.58 0.24 333.69 0.24C334.24 0.22 334.81 0.21 335.34 0.17C335.95 0.13 336.4 0.18 336.84 0.26C337.39 0.25 337.95 0.23 338.48 0.2C338.88 0.18 339.1 0.24 339.36 0.27C339.46 0.29 339.56 0.32 339.64 0.31C340.41 0.28 341.19 0.26 341.95 0.22C342.36 0.2 342.54 0.27 342.82 0.3C342.92 0.31 343.02 0.34 343.1 0.33C343.55 0.32 343.99 0.3 344.43 0.28C344.94 0.26 344.94 0.26 345.62 0.36C345.95 0.4 346.27 0.36 346.58 0.35C346.91 0.34 347.23 0.33 347.49 0.39C347.66 0.43 347.86 0.46 348.07 0.45C348.51 0.43 348.96 0.42 349.39 0.4C349.74 0.38 350.04 0.39 350.29 0.45C350.48 0.48 350.66 0.5 350.88 0.5C351.87 0.46 352.87 0.42 353.85 0.38C353.94 0.38 354.06 0.39 354.14 0.4C354.33 0.43 354.51 0.46 354.69 0.49C355.13 0.48 355.57 0.47 356 0.45C356.45 0.43 356.87 0.42 357.22 0.5C357.3 0.52 357.4 0.55 357.49 0.54C357.83 0.54 358.15 0.52 358.48 0.51C358.81 0.5 359.14 0.48 359.47 0.47C359.85 0.51 360.09 0.62 360.63 0.58C360.95 0.56 361.29 0.55 361.61 0.54C361.94 0.53 362.27 0.51 362.6 0.5C362.71 0.5 362.83 0.49 362.92 0.5C363.02 0.5 363.11 0.52 363.2 0.54C363.46 0.58 363.71 0.63 364.09 0.6C364.41 0.58 364.75 0.57 365.08 0.56C365.53 0.54 365.53 0.54 366.27 0.64C366.57 0.68 366.91 0.62 367.2 0.66C367.39 0.68 367.56 0.72 367.75 0.74C367.83 0.75 367.96 0.76 368.05 0.76C368.49 0.74 368.94 0.73 369.37 0.7C369.73 0.68 370.02 0.7 370.27 0.76C370.45 0.8 370.63 0.81 370.86 0.8C371.96 0.76 373.06 0.72 374.15 0.67C374.53 0.65 374.83 0.68 375.04 0.73C375.39 0.83 375.89 0.71 376.26 0.79C376.49 0.84 376.72 0.89 377.13 0.87C377.89 0.83 378.67 0.8 379.43 0.78C379.71 0.82 379.98 0.86 380.26 0.9C380.7 0.88 381.14 0.86 381.59 0.85C381.91 0.83 382.25 0.82 382.57 0.81C382.68 0.81 382.79 0.8 382.89 0.81C382.99 0.81 383.08 0.83 383.17 0.85C383.63 0.92 383.63 0.93 384.39 0.89C384.72 0.88 385.03 0.87 385.31 0.93C385.56 0.99 385.86 1 386.21 0.98C386.86 0.95 387.53 0.92 388.19 0.9C388.4 0.89 388.59 0.92 388.77 0.96C389.03 1.02 389.35 1.01 389.68 1C390.11 0.97 390.54 0.95 390.91 1.04C390.98 1.06 391.1 1.08 391.18 1.08C391.72 1.07 392.28 1.06 392.81 1.03C393.35 1 393.61 1.09 393.98 1.14C394.52 1.12 395.08 1.09 395.62 1.07C395.73 1.07 395.86 1.05 395.95 1.06C396.35 1.09 396.57 1.21 397.12 1.17C397.43 1.15 397.77 1.14 398.1 1.14C398.18 1.14 398.3 1.16 398.36 1.18C398.39 1.19 398.36 1.22 398.32 1.24C398.2 1.28 398.05 1.32 397.95 1.37C397.93 1.37 398.06 1.4 398.13 1.41C398.31 1.44 398.52 1.44 398.76 1.42C398.97 1.41 399.18 1.43 399.33 1.48C399.39 1.5 399.37 1.53 399.25 1.63C399.25 1.7 399.39 1.67 399.43 1.62C399.5 1.55 399.36 1.53 399.1 1.57C398.91 1.59 398.82 1.63 398.87 1.67C398.89 1.68 399.02 1.71 399.25 1.63C399.83 1.54 400.27 1.52 400.71 1.5C400.83 1.5 400.96 1.48 401.04 1.49C401.33 1.53 401.6 1.57 401.88 1.61C402.2 1.6 402.5 1.58 402.81 1.64C403.25 1.72 403.27 1.71 403.7 1.7C403.92 1.69 404.14 1.68 404.36 1.67C404.58 1.66 404.76 1.68 404.95 1.72C405.35 1.79 405.38 1.79 405.64 1.69C405.79 1.63 405.9 1.61 406.09 1.64C406.74 1.73 406.74 1.74 407.29 1.71C407.74 1.69 408.17 1.68 408.51 1.77C408.73 1.83 408.81 1.81 408.99 1.75C409.47 1.58 409.69 1.58 410.59 1.7C411.01 1.76 411.45 1.69 411.87 1.69C412.23 1.68 412.49 1.72 412.52 1.81C412.54 1.87 412.6 1.92 412.84 1.93C412.93 1.94 413.04 1.95 413.14 1.95C413.69 1.93 414.24 1.91 414.79 1.89C415.07 1.87 415.23 1.8 415.17 1.71C415.11 1.6 415.22 1.57 415.62 1.54C415.86 1.52 416.05 1.52 416.25 1.55C416.46 1.58 416.4 1.61 416.21 1.66C415.77 1.8 415.82 1.88 416.4 1.98C416.6 2.01 416.76 2.04 416.81 2.08C416.83 2.11 416.81 2.14 416.87 2.16C417.2 2.26 417.65 2.33 418.16 2.38C418.65 2.33 418.98 2.4 419.36 2.46C419.65 2.5 420 2.46 420.31 2.45C420.67 2.43 420.96 2.44 421.22 2.5C421.4 2.54 421.58 2.55 421.8 2.55C422.24 2.53 422.69 2.52 423.13 2.49C423.5 2.47 423.78 2.5 424.02 2.55C424.31 2.62 424.64 2.57 424.94 2.58C425.36 2.59 425.57 2.73 426.11 2.69C426.43 2.67 426.76 2.66 427.1 2.65C427.18 2.65 427.29 2.68 427.36 2.69C427.72 2.78 428.13 2.77 428.59 2.75C428.9 2.73 429.21 2.71 429.52 2.77C430.03 2.87 430.59 2.95 431.12 3.04C431.2 3.11 431.14 3.2 431.53 3.24C431.73 3.26 431.91 3.29 432.07 3.33C432.26 3.37 432.43 3.38 432.67 3.37C433.1 3.35 433.56 3.34 433.99 3.31C434.38 3.29 434.63 3.34 434.87 3.38C435.06 3.42 435.24 3.44 435.48 3.41C435.72 3.39 435.89 3.4 436.08 3.44C436.36 3.5 436.38 3.49 437.29 3.51C437.38 3.51 437.5 3.53 437.55 3.55C437.58 3.56 437.52 3.59 437.47 3.61C437.41 3.63 437.32 3.65 437.23 3.65C436.24 3.7 435.25 3.73 434.26 3.77C434.16 3.78 434.05 3.79 433.98 3.81C433.9 3.82 433.8 3.85 433.8 3.87C433.8 3.88 433.93 3.9 434.03 3.91C434.32 3.95 434.67 3.89 434.96 3.93C435.15 3.96 435.31 3.99 435.5 4.02C435.58 4.03 435.71 4.03 435.81 4.02C436.15 4.01 436.47 4 436.81 3.99C436.9 3.99 437.01 4 437.09 4.01C437.74 4.1 437.74 4.1 438.29 4.08C438.51 4.07 438.74 4.05 438.95 4.06C439.15 4.07 439.33 4.11 439.51 4.14C439.88 4.19 440.24 4.24 440.26 4.36C440.28 4.41 440.5 4.45 440.72 4.45C440.93 4.45 441.16 4.44 441.38 4.43C441.9 4.41 441.9 4.41 442.58 4.5C442.77 4.53 442.97 4.53 443.21 4.51C443.3 4.51 443.41 4.51 443.51 4.52C443.84 4.54 443.84 4.57 443.63 4.63C443.33 4.71 443.36 4.72 444.2 4.79C444.52 4.81 444.77 4.86 445.03 4.9C445.47 4.97 445.46 4.97 445.18 5.06C445.11 5.08 445.05 5.1 444.98 5.13C444.79 5.19 444.64 5.25 444.24 5.26C443.8 5.26 443.36 5.29 442.92 5.31C442.49 5.32 442.37 5.36 442.42 5.47C442.46 5.59 442.55 5.61 443.32 5.6C443.54 5.6 443.73 5.61 443.9 5.66C443.82 5.7 443.68 5.74 443.46 5.75C442.91 5.78 442.36 5.8 441.81 5.82C441.37 5.84 440.93 5.85 440.49 5.87C440.22 5.88 440.04 5.96 440.12 6.05C440.16 6.1 440.19 6.15 440.23 6.2C440.3 6.31 440.44 6.33 440.89 6.33C441 6.32 441.11 6.31 441.22 6.31C441.65 6.32 441.86 6.45 442.38 6.42C442.81 6.4 443.27 6.4 443.7 6.37C444.09 6.34 444.31 6.4 444.59 6.44C444.68 6.45 444.78 6.48 444.86 6.48C445.41 6.46 445.97 6.44 446.51 6.41C446.76 6.4 446.92 6.41 447.12 6.45C447.6 6.54 447.61 6.53 448.33 6.5C448.85 6.48 448.86 6.48 449.52 6.58C449.71 6.6 449.91 6.6 450.15 6.59C450.47 6.57 450.79 6.55 451.12 6.57C451.22 6.58 451.35 6.59 451.38 6.61C451.4 6.63 451.31 6.66 451.23 6.67C450.64 6.75 449.95 6.74 449.31 6.77C449.11 6.78 448.91 6.75 448.74 6.71C448.57 6.67 448.38 6.66 448.16 6.66C447.72 6.68 447.27 6.69 446.83 6.72C446.46 6.74 446.2 6.71 445.94 6.66C445.85 6.64 445.75 6.61 445.66 6.62C444.68 6.65 443.68 6.68 442.7 6.73C442.3 6.74 442.08 6.7 441.81 6.65C441.72 6.64 441.62 6.61 441.53 6.61C441.2 6.62 440.87 6.64 440.54 6.65C439.32 6.7 438.12 6.75 436.9 6.79C436.82 6.8 436.72 6.76 436.63 6.75C436.45 6.72 436.26 6.7 436.07 6.67C435.74 6.68 435.41 6.7 435.08 6.71C434.84 6.72 434.62 6.74 434.59 6.8C434.57 6.83 434.79 6.87 435.02 6.87C435.25 6.86 435.48 6.84 435.67 6.86C436.6 6.96 436.6 6.96 437.18 6.94C437.68 6.92 437.63 6.91 438.08 6.99C438.27 7.03 438.45 7.05 438.67 7.04C439.21 7.02 439.77 6.99 440.32 6.97C440.41 6.97 440.52 6.99 440.61 7C441.27 7.09 441.27 7.09 441.81 7.07C442.52 7.04 442.54 7.03 443.02 7.12C443.35 7.19 443.65 7.14 443.96 7.14C444.32 7.2 444.72 7.25 445.04 7.32C445.43 7.4 445.84 7.38 446.28 7.36C446.61 7.34 446.93 7.34 447.2 7.4C447.45 7.46 447.76 7.46 448.11 7.45C448.42 7.43 448.74 7.4 449.07 7.43C449.15 7.44 449.29 7.47 449.28 7.48C449.28 7.5 449.19 7.53 449.1 7.54C448.49 7.61 447.81 7.61 447.17 7.64C447.08 7.64 446.97 7.62 446.88 7.61C446.69 7.58 446.51 7.55 446.33 7.52C446 7.53 445.67 7.54 445.35 7.56C445.1 7.57 444.91 7.57 444.73 7.53C444.57 7.5 444.38 7.46 444.18 7.45C443.98 7.44 443.75 7.46 443.53 7.47C443.31 7.48 443.06 7.48 442.88 7.5C442.71 7.53 442.6 7.58 442.49 7.62C442.36 7.67 442.19 7.69 441.94 7.69C441.7 7.7 441.51 7.69 441.34 7.65C441.27 7.63 441.17 7.62 441.07 7.6C440.97 7.59 440.87 7.58 440.78 7.58C439.78 7.62 438.8 7.66 437.8 7.7C437.31 7.71 437.31 7.71 436.28 7.63C436.19 7.62 436.08 7.61 435.98 7.61C435.43 7.63 434.88 7.65 434.33 7.68C433.77 7.7 433.77 7.69 432.82 7.6C432.64 7.58 432.39 7.61 432.18 7.6C431.75 7.6 431.53 7.47 431.02 7.49C430.59 7.52 430.14 7.52 429.7 7.55C429.31 7.58 429.08 7.52 428.81 7.48C428.72 7.47 428.62 7.44 428.54 7.44C427.54 7.48 426.55 7.52 425.23 7.52C424.9 7.52 425.05 7.55 425.27 7.57C425.57 7.58 425.67 7.55 425.51 7.49C425.38 7.45 425.21 7.42 425.07 7.43C425 7.44 424.9 7.47 425.23 7.52C425.58 7.58 425.56 7.61 425.62 7.63C425.77 7.67 425.98 7.69 426.19 7.69C426.52 7.68 426.85 7.66 427.18 7.65C427.28 7.65 427.39 7.66 427.48 7.67C428.21 7.76 428.22 7.77 429 7.73C429.25 7.72 429.43 7.72 429.62 7.75C429.89 7.79 430.09 7.85 430.49 7.83C431.03 7.8 431.59 7.78 432.14 7.77C432.23 7.76 432.32 7.79 432.42 7.8C432.7 7.84 432.9 7.91 433.31 7.88C433.62 7.85 433.96 7.85 434.29 7.84C434.38 7.84 434.52 7.87 434.56 7.89C434.64 7.92 434.54 7.96 434.31 7.99C434.22 8 434.09 8 433.98 8.01C433.54 8.02 433.1 8.04 432.66 8.06C432.43 8.07 432.21 8.09 432.18 8.15C432.16 8.18 432.4 8.22 432.63 8.21C432.96 8.21 433.3 8.2 433.62 8.18C434.18 8.14 434.68 8.15 435.14 8.25C435.47 8.31 435.45 8.29 435.8 8.49C435.89 8.54 436.15 8.54 436.37 8.54C436.92 8.53 437.18 8.55 437.13 8.6C437.07 8.66 436.88 8.68 436.63 8.69C436.19 8.7 435.75 8.72 435.31 8.74C435.2 8.74 435.08 8.75 434.98 8.75C434.88 8.75 434.79 8.73 434.7 8.71C434.51 8.68 434.35 8.64 434.15 8.63C433.95 8.62 433.72 8.64 433.5 8.65C433.28 8.66 433.04 8.68 432.84 8.67C432.64 8.66 432.47 8.62 432.29 8.59C432.21 8.58 432.1 8.55 432.01 8.56C431.57 8.57 431.13 8.59 430.69 8.61C430.15 8.63 430.15 8.63 429.49 8.53C429.31 8.51 429.11 8.51 428.86 8.52C428.33 8.55 428.32 8.54 427.35 8.45C427.25 8.45 427.14 8.43 427.05 8.44C426.05 8.48 425.06 8.52 424.08 8.56C423.23 8.59 423.23 8.59 422.76 8.74C422.42 8.86 422.41 8.86 422.75 8.91C423.02 8.95 423.27 9.01 423.57 9.04C423.85 9.06 424.2 8.99 424.51 9.06C424.66 9.09 424.86 9.13 425.06 9.14C425.36 9.14 425.69 9.1 425.99 9.17C426.13 9.2 426.35 9.23 426.54 9.24C426.87 9.24 427.2 9.21 427.53 9.2C427.63 9.2 427.74 9.2 427.84 9.21C427.94 9.22 428.02 9.23 428.11 9.25C428.38 9.3 428.67 9.32 429.01 9.3C429.58 9.25 430.09 9.27 430.53 9.37C430.59 9.39 430.74 9.39 430.83 9.38C431.07 9.36 431.28 9.36 431.46 9.39C431.53 9.4 431.64 9.43 431.63 9.44C431.61 9.46 431.53 9.49 431.44 9.5C430.81 9.55 430.14 9.56 429.49 9.59C429.41 9.59 429.3 9.57 429.21 9.56C429.02 9.53 428.86 9.49 428.66 9.48C428.46 9.47 428.23 9.49 428.01 9.49C427.79 9.5 427.55 9.53 427.35 9.52C427.15 9.51 426.97 9.47 426.8 9.44C426.62 9.4 426.44 9.39 426.19 9.41C425.87 9.43 425.54 9.43 425.21 9.44C425.03 9.42 424.85 9.38 424.66 9.36C424.57 9.34 424.47 9.33 424.37 9.33C423.93 9.34 423.49 9.36 423.05 9.38C422.61 9.39 422.61 9.39 421.86 9.3C421.77 9.29 421.66 9.28 421.57 9.28C421.01 9.3 420.46 9.32 419.91 9.34C419.7 9.35 419.5 9.33 419.33 9.29C419.16 9.25 418.96 9.23 418.75 9.23C417.87 9.27 416.99 9.3 416.11 9.34C415.75 9.36 415.45 9.34 415.21 9.29C414.93 9.23 414.62 9.24 414.29 9.25C413.55 9.29 413.54 9.28 413.07 9.21C412.97 9.19 412.88 9.16 412.79 9.16C412.02 9.19 411.25 9.21 410.49 9.25C410.09 9.27 409.87 9.22 409.61 9.18C409.51 9.16 409.41 9.14 409.33 9.14C408.78 9.16 408.22 9.17 407.68 9.2C407.14 9.24 406.93 9.09 406.52 9.1C405.97 9.1 405.42 9.13 404.88 9.16C404.43 9.17 403.99 9.19 403.55 9.21C403.11 9.23 402.67 9.24 402.23 9.26C402 9.27 401.82 9.26 401.63 9.22C401.38 9.17 401.09 9.13 400.82 9.09C400.41 9.02 400.41 9.02 399.92 9.04C399.81 9.05 399.7 9.05 399.59 9.05C398.78 9.09 398.78 9.09 397.75 8.99C397.7 8.99 397.58 9 397.54 9.02C397.4 9.06 397.27 9.1 397.15 9.14C396.97 9.12 396.74 9.1 396.62 9.07C396.28 8.97 395.75 9.11 395.4 9.01C395.27 8.97 395.05 8.94 394.85 8.93C394.64 8.92 394.41 8.94 394.2 8.95C393.64 8.98 393.64 8.98 393.17 9.11C392.93 9.18 392.58 9.17 392.27 9.19C391.94 9.2 391.63 9.21 391.35 9.15C391.11 9.09 390.81 9.08 390.45 9.1C390.02 9.12 389.57 9.14 389.13 9.15C389.04 9.16 388.92 9.15 388.83 9.14C387.8 9.05 387.8 9.05 387.31 9.07C387.09 9.08 386.86 9.08 386.65 9.1C386.29 9.12 386.02 9.09 385.75 9.04C385.67 9.03 385.57 9 385.48 9C385.04 9.01 384.6 9.02 384.17 9.04C383.84 9.05 383.5 9.06 383.18 9.08C382.65 9.11 382.39 9.01 382.02 8.97C381.47 8.99 380.92 9 380.37 9.03C380.12 9.05 379.95 9.04 379.75 9.01C379.51 8.96 379.28 8.91 378.88 8.93C378.34 8.96 377.78 8.97 377.24 8.99C376.87 8.95 376.6 8.85 376.07 8.89C375.75 8.91 375.41 8.91 375.08 8.93C374.64 8.95 374.2 8.96 373.76 8.98C373.29 9 373.29 9 372.56 8.91C372.14 8.85 371.71 8.91 371.28 8.92C370.95 8.93 370.78 9 370.86 9.09C370.94 9.18 370.76 9.25 370.46 9.27C369.69 9.3 368.92 9.33 368.15 9.36C368.05 9.36 367.94 9.35 367.85 9.34C367.03 9.24 367.03 9.25 366.66 9.26C366.12 9.28 365.55 9.3 365.01 9.33C364.64 9.35 364.37 9.32 364.12 9.26C363.94 9.22 363.76 9.22 363.52 9.23C360.88 9.33 358.23 9.43 355.6 9.54C355.2 9.56 354.97 9.52 354.71 9.47C354.61 9.46 354.53 9.43 354.43 9.43C354.21 9.43 353.99 9.45 353.77 9.46C352.78 9.49 351.8 9.54 350.8 9.57C350.38 9.58 350.27 9.65 350.09 9.71C349.95 9.76 349.79 9.78 349.54 9.78C349.3 9.79 349.13 9.78 348.94 9.74C348.7 9.69 348.42 9.66 348.05 9.68C347.62 9.71 347.17 9.72 346.73 9.74C346.5 9.74 346.33 9.77 346.25 9.83C346.24 9.84 346.38 9.86 346.46 9.87C346.73 9.92 346.98 9.97 347.28 10C347.59 10.04 347.93 10 348.25 9.99C348.36 9.98 348.47 9.98 348.57 9.98C348.67 9.98 348.79 9.99 348.87 10C349.22 10.07 349.58 10.11 350.06 10.07C350.48 10.09 350.69 10.22 351.22 10.18C351.54 10.16 351.88 10.15 352.21 10.15C352.3 10.14 352.39 10.17 352.48 10.19C352.75 10.22 352.97 10.28 353.37 10.26C353.79 10.23 354.25 10.22 354.68 10.2C354.92 10.19 355.1 10.2 355.28 10.24C355.53 10.29 355.8 10.33 356.17 10.3C356.49 10.28 356.83 10.27 357.16 10.26C357.59 10.24 357.59 10.24 358.35 10.34C358.44 10.35 358.55 10.36 358.65 10.36C359.2 10.34 359.75 10.31 360.3 10.29C360.52 10.29 360.72 10.31 360.87 10.35C360.93 10.37 360.91 10.4 360.93 10.43C359.83 10.47 358.73 10.51 357.63 10.56C357.22 10.58 357.03 10.52 356.76 10.48C356.66 10.47 356.56 10.44 356.48 10.45C355.7 10.47 354.93 10.5 354.17 10.54C353.93 10.55 353.74 10.54 353.56 10.5C353.1 10.38 352.54 10.45 352.02 10.47C351.62 10.48 351.49 10.53 351.54 10.63C351.6 10.75 351.84 10.78 352.46 10.76C352.68 10.75 352.9 10.74 353.12 10.74C353.33 10.73 353.53 10.75 353.7 10.79C353.87 10.83 354.07 10.85 354.28 10.85C354.72 10.83 355.16 10.82 355.59 10.79C355.95 10.77 356.24 10.79 356.49 10.84C356.76 10.91 357.08 10.89 357.4 10.88C358.15 10.85 358.16 10.85 358.63 10.92C358.72 10.94 358.81 10.97 358.9 10.97C359.67 10.94 360.44 10.92 361.2 10.88C361.59 10.86 361.82 10.91 362.08 10.95C362.17 10.97 362.27 11 362.35 10.99C362.91 10.98 363.46 10.96 364 10.93C364.26 10.91 364.41 10.92 364.62 10.96C365.11 11.05 365.13 11.04 365.83 11.01C366.04 11 366.28 10.99 366.48 11C366.68 11.01 366.84 11.06 367.03 11.08C367.11 11.1 367.22 11.11 367.31 11.11C367.75 11.1 368.19 11.08 368.64 11.06C369.05 11.04 369.05 11.04 369.83 11.14C370.14 11.18 370.47 11.14 370.78 11.13C371.12 11.11 371.43 11.11 371.69 11.17C371.95 11.23 372.27 11.23 372.6 11.22C372.91 11.2 373.23 11.17 373.55 11.21C374.29 11.3 374.29 11.31 374.74 11.29C375.41 11.26 376.06 11.23 376.73 11.21C376.81 11.21 376.93 11.22 377.02 11.24C377.2 11.26 377.36 11.31 377.56 11.32C377.76 11.33 378 11.31 378.21 11.3C378.9 11.27 378.95 11.26 379.41 11.36C379.8 11.45 380.28 11.32 380.64 11.42C380.85 11.47 381.13 11.51 381.51 11.49C381.83 11.47 382.17 11.46 382.5 11.45C383.03 11.43 383.03 11.43 383.7 11.52C383.79 11.53 383.9 11.55 383.99 11.54C384.43 11.53 384.88 11.52 385.3 11.49C385.8 11.46 386.12 11.51 386.5 11.57C386.79 11.61 387.14 11.58 387.45 11.56C387.8 11.54 388.1 11.55 388.36 11.61C388.63 11.67 388.94 11.66 389.27 11.65C389.59 11.64 389.91 11.6 390.23 11.64C390.92 11.74 390.92 11.74 391.42 11.72C391.86 11.7 392.3 11.68 392.74 11.67C392.83 11.67 392.93 11.68 393.02 11.7C393.21 11.73 393.37 11.77 393.57 11.78C393.77 11.79 394 11.77 394.22 11.76C394.45 11.76 394.68 11.73 394.88 11.74C395.08 11.75 395.27 11.79 395.43 11.82C395.62 11.86 395.79 11.87 396.04 11.85C396.36 11.83 396.7 11.82 397.02 11.81C397.21 11.84 397.39 11.87 397.57 11.9C397.75 11.94 397.94 11.93 398.19 11.92C399.01 11.88 399.02 11.89 399.71 11.98C400.02 12.02 400.35 11.99 400.66 11.98C400.99 11.96 401.31 11.96 401.57 12.02C401.82 12.08 402.14 12.08 402.47 12.06C402.69 12.05 402.91 12.04 403.13 12.04C403.23 12.04 403.35 12.04 403.43 12.06C403.78 12.12 404.13 12.18 404.62 12.13C405.05 12.15 405.26 12.27 405.77 12.25C406.21 12.22 406.66 12.22 407.09 12.19C407.48 12.17 407.77 12.21 407.97 12.26C408.33 12.36 408.83 12.23 409.2 12.32C409.4 12.37 409.67 12.41 410.07 12.39C410.51 12.37 410.65 12.4 410.78 12.49C410.86 12.55 410.84 12.59 410.71 12.64C410.58 12.68 410.43 12.67 410.22 12.62C409.97 12.57 409.67 12.56 409.32 12.57C408.97 12.58 408.76 12.5 408.47 12.47C408.18 12.44 407.84 12.5 407.54 12.46C406.83 12.36 406.83 12.36 406.35 12.38C406.02 12.39 405.68 12.4 405.36 12.42C404.98 12.45 404.73 12.4 404.47 12.36C404.38 12.34 404.29 12.31 404.21 12.32C403.44 12.34 402.66 12.36 401.9 12.4C401.5 12.42 401.29 12.37 401.02 12.33C400.93 12.32 400.82 12.29 400.74 12.29C400.08 12.31 399.43 12.34 398.77 12.37C398.64 12.41 398.5 12.45 398.38 12.5C398.26 12.54 398.08 12.56 397.83 12.56C397.41 12.56 396.99 12.63 396.57 12.55C396.14 12.47 396.1 12.47 395.68 12.49C395.15 12.52 394.58 12.51 394.08 12.57C393.99 12.58 393.9 12.61 393.9 12.64C393.89 12.65 394.04 12.67 394.12 12.68C394.42 12.72 394.76 12.66 395.05 12.7C395.25 12.73 395.41 12.76 395.6 12.79C395.68 12.8 395.8 12.8 395.91 12.8C396.02 12.79 396.13 12.78 396.23 12.78C396.33 12.79 396.44 12.79 396.52 12.81C396.89 12.87 397.28 12.92 397.61 12.99C397.93 13.05 398.23 13.01 398.55 13C399.83 13.11 399.83 13.11 400.69 13.08C400.91 13.07 401.13 13.06 401.35 13.06C401.44 13.06 401.53 13.09 401.62 13.1C401.89 13.15 402.15 13.19 402.52 13.16C402.84 13.14 403.18 13.14 403.51 13.12C403.95 13.1 403.95 13.1 404.7 13.2C404.88 13.22 405.09 13.22 405.33 13.21C405.53 13.2 405.75 13.22 405.89 13.26C405.95 13.28 405.93 13.31 405.96 13.34C405.29 13.36 404.63 13.38 403.99 13.42C403.57 13.44 403.38 13.38 403.11 13.34C403.02 13.33 402.92 13.31 402.83 13.31C402.17 13.33 401.52 13.36 400.87 13.39C400.79 13.4 400.69 13.43 400.68 13.45C400.67 13.49 400.83 13.53 401.07 13.53C401.39 13.53 401.71 13.5 402 13.56C402.24 13.62 402.54 13.64 402.89 13.62C403.11 13.6 403.33 13.6 403.55 13.59C404.11 13.55 404.63 13.56 405.06 13.66C405.38 13.69 405.71 13.66 406.02 13.65C406.25 13.64 406.48 13.62 406.65 13.65C407 13.71 407.35 13.78 407.84 13.73C408.37 13.78 408.77 13.87 409.21 13.94C409.42 13.97 409.58 13.99 409.82 13.97C409.92 13.96 410.04 13.96 410.14 13.95C410.37 13.95 410.6 13.92 410.8 13.93C411 13.94 411.17 13.99 411.35 14.01C411.44 14.03 411.54 14.05 411.62 14.05C411.96 14.04 412.28 14.02 412.61 14.01C412.94 14 413.27 13.99 413.59 13.98C413.87 14.02 414.15 14.06 414.42 14.1C414.86 14.08 415.3 14.06 415.74 14.05C416.23 14.03 416.23 14.03 416.93 14.12C417.24 14.16 417.58 14.14 417.88 14.12C418.38 14.08 418.71 14.14 419.07 14.2C419.14 14.21 419.27 14.22 419.36 14.21C419.71 14.19 420.01 14.21 420.26 14.26C420.44 14.3 420.62 14.32 420.84 14.31C421.61 14.28 422.38 14.25 423.15 14.22C423.24 14.22 423.35 14.23 423.44 14.25C424.12 14.34 424.13 14.34 424.63 14.32C425.07 14.3 425.49 14.29 425.84 14.37C425.92 14.39 426.03 14.41 426.11 14.41C426.66 14.4 427.21 14.38 427.75 14.35C428 14.34 428.17 14.34 428.37 14.38C428.62 14.42 428.84 14.48 429.24 14.45C430.37 14.4 430.38 14.41 431.72 14.51C431.81 14.52 431.94 14.5 432.04 14.5C432.27 14.48 432.44 14.5 432.64 14.54C433.09 14.62 433.1 14.61 433.53 14.59C433.86 14.58 434.2 14.58 434.52 14.55C435.01 14.52 435.34 14.58 435.71 14.63C436 14.68 436.34 14.64 436.66 14.63C437 14.61 437.3 14.61 437.56 14.67C437.73 14.71 437.92 14.73 438.14 14.73C438.91 14.7 439.68 14.66 440.44 14.64C440.54 14.63 440.65 14.64 440.74 14.65C441.5 14.75 441.5 14.75 442.25 14.72C442.5 14.71 442.7 14.7 442.88 14.73C443.05 14.76 443.24 14.79 443.42 14.82C443.75 14.81 444.08 14.81 444.4 14.79C444.65 14.77 444.82 14.78 445.02 14.81C445.27 14.85 445.48 14.92 445.88 14.89C446.09 14.87 446.33 14.88 446.54 14.86C446.79 14.84 446.95 14.85 447.15 14.89C447.39 14.94 447.64 14.99 448.02 14.96C448.45 14.93 448.9 14.93 449.34 14.91C449.58 14.89 449.75 14.9 449.94 14.94C450.18 14.99 450.46 15.03 450.83 15.01C451.59 14.97 451.6 14.97 452.34 15.07C452.53 15.09 452.73 15.09 452.97 15.08C453.18 15.07 453.39 15.09 453.54 15.13C453.68 15.18 453.66 15.21 453.68 15.24ZM393.98 1.49C393.76 1.49 393.54 1.5 393.22 1.37C393.2 1.35 393.21 1.32 393.16 1.3C393.05 1.26 392.89 1.23 392.69 1.23C392.33 1.22 391.89 1.27 391.9 1.31C391.91 1.35 392.02 1.38 392.24 1.4C392.33 1.41 392.41 1.43 392.5 1.44C392.75 1.48 392.95 1.55 393.32 1.51C393.29 1.57 393.39 1.61 393.63 1.63C393.69 1.63 393.79 1.63 393.85 1.62C394.05 1.59 394.09 1.54 393.93 1.42C393.91 1.44 393.93 1.47 393.99 1.48C394.05 1.49 394.19 1.48 394.27 1.47C394.45 1.44 394.55 1.41 394.5 1.37C394.47 1.36 394.34 1.34 394.26 1.34C394.12 1.34 394 1.37 393.98 1.49ZM448.22 19.21C447.73 19.24 447.17 19.23 446.68 19.29C446.59 19.3 446.51 19.33 446.5 19.35C446.49 19.36 446.63 19.38 446.71 19.39C446.89 19.42 447.09 19.41 447.32 19.4C447.68 19.39 447.88 19.46 448.16 19.5C448.25 19.51 448.36 19.51 448.45 19.51C448.99 19.49 449.53 19.47 450.07 19.45C450.16 19.44 450.26 19.43 450.34 19.42C450.61 19.37 450.58 19.34 450.32 19.31C450.03 19.28 449.81 19.21 449.51 19.19C449.09 19.14 448.66 19.2 448.22 19.21ZM410.29 20.4C409.96 20.41 409.64 20.42 409.32 20.44C409.21 20.44 409.09 20.44 408.99 20.45C408.79 20.46 408.63 20.49 408.53 20.54C408.69 20.58 408.88 20.6 409.08 20.6C409.41 20.59 409.73 20.57 410.06 20.56C410.41 20.56 410.62 20.63 410.89 20.66C410.98 20.67 411.09 20.67 411.19 20.67C411.68 20.68 411.98 20.6 411.89 20.49C411.82 20.4 411.57 20.35 411.26 20.36C410.94 20.37 410.61 20.38 410.29 20.4ZM450.47 16.93C450.55 16.91 450.64 16.89 450.68 16.87C450.8 16.79 450.75 16.73 450.53 16.67C450.26 16.59 449.93 16.65 449.63 16.65C449.56 16.65 449.48 16.69 449.44 16.71C449.41 16.72 449.41 16.75 449.45 16.76C449.78 16.82 450.13 16.88 450.47 16.93ZM392.46 12.5C392.14 12.51 391.82 12.52 391.5 12.54C391.41 12.54 391.34 12.57 391.3 12.59C391.21 12.63 391.3 12.68 391.58 12.68C391.89 12.69 392.22 12.66 392.55 12.65C392.96 12.63 393.21 12.58 393.05 12.53C392.9 12.48 392.7 12.47 392.46 12.5ZM40.76 9.82C40.98 9.82 41.2 9.81 41.41 9.8C41.61 9.79 41.77 9.75 41.87 9.7C41.7 9.66 41.51 9.64 41.3 9.65C40.98 9.66 40.66 9.67 40.34 9.69C40.14 9.7 39.94 9.73 39.9 9.78C39.85 9.82 40.3 9.84 40.76 9.82ZM364.17 9.03C364.26 9.04 364.34 9.07 364.43 9.07C364.64 9.07 364.86 9.06 365.06 9.04C365.15 9.04 365.22 9.01 365.26 8.99C365.28 8.97 365.28 8.95 365.24 8.94C365.04 8.86 364.27 8.89 364.14 8.97C364.13 8.99 364.16 9.01 364.17 9.03ZM342.99 0.65C343.01 0.67 343.02 0.7 343.04 0.72C343.1 0.77 343.24 0.8 343.46 0.83C343.62 0.79 343.71 0.74 343.7 0.7C343.7 0.67 343.68 0.65 343.65 0.62C343.6 0.58 343.45 0.54 343.23 0.52C343.07 0.56 342.99 0.6 342.99 0.65ZM465.96 20.57C465.9 20.59 465.84 20.61 465.77 20.63C465.95 20.67 466.12 20.68 466.24 20.66C466.32 20.64 466.37 20.62 466.43 20.6C466.25 20.56 466.09 20.54 465.96 20.57ZM461.8 20.78C461.89 20.8 461.97 20.82 462.06 20.82C462.22 20.84 462.36 20.81 462.46 20.76C462.38 20.74 462.3 20.73 462.2 20.72C462.05 20.7 461.91 20.73 461.8 20.78ZM464.43 20.5C464.39 20.53 464.48 20.57 464.73 20.59C464.79 20.57 464.87 20.55 464.91 20.53C464.97 20.5 464.86 20.46 464.62 20.44C464.55 20.46 464.49 20.48 464.43 20.5ZM450.31 18.87C450.26 18.9 450.36 18.93 450.6 18.96C450.66 18.94 450.74 18.92 450.78 18.9C450.85 18.86 450.74 18.83 450.5 18.81C450.43 18.83 450.37 18.85 450.31 18.87ZM430.96 8.03C430.9 8.05 430.84 8.07 430.78 8.09C430.96 8.13 431.12 8.14 431.25 8.12C431.33 8.1 431.38 8.08 431.44 8.06C431.26 8.02 431.1 8.01 430.96 8.03ZM412.49 2.29C412.65 2.3 412.78 2.28 412.89 2.22C412.81 2.21 412.73 2.19 412.63 2.18C412.48 2.17 412.34 2.2 412.23 2.25C412.32 2.27 412.41 2.28 412.49 2.29ZM402.71 1.95C402.65 1.97 402.59 1.99 402.52 2.01C402.7 2.05 402.87 2.07 403 2.04C403.08 2.03 403.12 2 403.18 1.98C403 1.94 402.84 1.93 402.71 1.95ZM336.42 0.66C336.36 0.68 336.3 0.7 336.23 0.72C336.41 0.76 336.58 0.78 336.7 0.75C336.78 0.74 336.83 0.71 336.89 0.69C336.71 0.65 336.55 0.64 336.42 0.66ZM6.55 13.73C6.47 13.72 6.38 13.71 6.3 13.69C6.11 13.73 6.05 13.77 6.15 13.8C6.22 13.82 6.32 13.83 6.41 13.84C6.61 13.8 6.65 13.76 6.55 13.73Z"
		fill="#FFE492" fill-opacity="1.000000" fill-rule="nonzero" />
</svg>