<svg width="191.000000" height="34.000000" viewBox="0 0 191 34" fill="none"
	xmlns="http://www.w3.org/2000/svg" xmlns:xlink="http://www.w3.org/1999/xlink">
	<desc>
		Created with Pixso.
	</desc>
	<defs>
		<clipPath id="clip1_3899">
			<rect id="Logo Icon" rx="0.000000" width="36.000000" height="28.000000"
				transform="translate(0.500000 3.000000)" fill="white" fill-opacity="0" />
		</clipPath>
	</defs>
	<rect id="Logo Icon" rx="0.000000" width="36.000000" height="28.000000"
		transform="translate(0.500000 3.000000)" fill="#FFFFFF" fill-opacity="0" />
	<g clip-path="url(#clip1_3899)">
		<path id="Vector"
			d="M0 4.86L0 11.61C0 13.67 2.5 14.77 4.03 13.33L11.34 6.57C12.94 5.1 11.9 2.5 9.71 2.5L2.4 2.5C1.07 2.5 0 3.56 0 4.86Z"
			fill="#FFFFFF" fill-opacity="1.000000" fill-rule="nonzero" />
		<path id="Vector"
			d="M34.59 2.5L27.28 2.5C25.13 2.5 24.05 5.1 25.65 6.57L32.96 13.33C34.49 14.73 37 13.67 37 11.61L37 4.86C37 3.56 35.92 2.5 34.59 2.5Z"
			fill="#FFFFFF" fill-opacity="1.000000" fill-rule="nonzero" />
		<path id="Vector"
			d="M20.15 18.98L32.96 30.84C34.49 32.25 37 31.19 37 29.13L37 22.31C37 21.66 36.72 21.04 36.23 20.59L20.15 5.68C19.21 4.83 17.78 4.83 16.84 5.68L0.76 20.59C0.27 21.04 0 21.66 0 22.31L0 29.13C0 31.19 2.5 32.28 4.03 30.84L16.84 18.98C17.78 18.13 19.21 18.13 20.15 18.98Z"
			fill="#FFFFFF" fill-opacity="1.000000" fill-rule="nonzero" />
	</g>
	<path id="whitepace"
		d="M94.4 7.61C94.4 8.79 93.36 9.75 92.1 9.75C90.84 9.75 89.81 8.79 89.81 7.61C89.81 6.43 90.84 5.47 92.1 5.47C93.36 5.47 94.4 6.43 94.4 7.61ZM79.67 15.05C77.94 15.05 76.73 16.19 76.73 18.16L76.73 27L72.49 27L72.49 6.63L76.6 6.63L76.6 14.42L76.79 14.42C77.48 12.62 79.03 11.53 81.35 11.53C84.53 11.53 86.64 13.69 86.63 17.27L86.63 27L82.39 27L82.39 18.03C82.4 16.15 81.39 15.05 79.67 15.05ZM102.83 11.72L105.71 11.72L105.71 14.9L102.83 14.9L102.83 22.3C102.83 23.47 103.42 23.8 104.27 23.8C104.67 23.8 105.11 23.69 105.32 23.65L105.99 26.8C105.56 26.95 104.78 27.17 103.69 27.21C100.62 27.33 98.58 25.85 98.6 22.86L98.6 14.9L96.51 14.9L96.51 11.72L98.6 11.72L98.6 8.07L102.83 8.07L102.83 11.72ZM122.19 22.62C121.59 25.46 119.04 27.3 115.26 27.3C110.56 27.3 107.69 24.27 107.69 19.43C107.69 14.72 110.6 11.53 115.1 11.53C119.13 11.53 122.28 14.09 122.28 19.28L122.28 20.44L111.87 20.44L111.87 20.45C111.87 22.73 113.22 24.13 115.34 24.13C116.75 24.13 117.84 23.52 118.27 22.36L122.19 22.62ZM129.28 32.72L125.04 32.72L125.04 11.72L129.21 11.72L129.21 14.29L129.41 14.29C129.97 13.04 131.2 11.53 133.75 11.53C137.1 11.53 139.93 14.13 139.93 19.38C139.93 24.49 137.22 27.24 133.74 27.24C131.27 27.24 129.99 25.82 129.41 24.55L129.28 24.55L129.28 32.72ZM151.56 24.88C150.82 26.3 149.36 27.28 147.1 27.28C144.19 27.28 142.03 25.75 142.03 22.73C142.03 19.32 144.75 18.31 147.77 18.03C150.42 17.77 151.47 17.64 151.47 16.65L151.47 16.6C151.47 15.34 150.64 14.62 149.2 14.62C147.68 14.62 146.77 15.36 146.49 16.38L142.57 16.06C143.16 13.28 145.56 11.53 149.22 11.53C152.62 11.53 155.71 13.06 155.71 16.69L155.71 27L151.69 27L151.69 24.88L151.56 24.88ZM172.72 21.4C172.52 24.91 169.97 27.3 165.9 27.3C161.19 27.3 158.38 24.06 158.38 19.42C158.38 14.74 161.24 11.53 165.88 11.53C169.86 11.53 172.54 13.84 172.72 17.37L168.72 17.37C168.49 15.85 167.5 14.83 165.95 14.83C163.98 14.83 162.69 16.47 162.69 19.36C162.69 22.29 163.97 23.94 165.95 23.94C167.4 23.94 168.47 23.03 168.72 21.4L172.72 21.4ZM189.32 22.62C188.73 25.46 186.18 27.3 182.4 27.3C177.7 27.3 174.82 24.27 174.82 19.43C174.82 14.72 177.74 11.53 182.23 11.53C186.27 11.53 189.41 14.09 189.41 19.28L189.41 20.44L179.01 20.44L179.01 20.45C179.01 22.73 180.35 24.13 182.47 24.13C183.88 24.13 184.98 23.52 185.41 22.36L189.32 22.62ZM56.18 27L51.7 27L47.54 11.72L51.83 11.72L54.19 21.98L54.33 21.98L56.8 11.72L61 11.72L63.51 21.92L63.64 21.92L65.96 11.72L70.24 11.72L66.09 27L61.61 27L58.99 17.39L58.8 17.39L56.18 27ZM94.21 27L89.97 27L89.97 11.72L94.21 11.72L94.21 27ZM115.17 14.68C113.29 14.68 111.97 16.08 111.87 17.81L118.29 17.81C118.28 16 117.01 14.68 115.17 14.68ZM182.3 14.68C180.42 14.68 179.1 16.08 179.01 17.81L185.43 17.81C185.41 16 184.14 14.68 182.3 14.68ZM132.4 14.9C130.34 14.9 129.19 16.63 129.19 19.36C129.19 22.08 130.36 23.87 132.4 23.87C134.48 23.87 135.61 22.03 135.61 19.36C135.61 16.71 134.5 14.9 132.4 14.9ZM146.08 22.59C146.08 23.75 147.01 24.36 148.32 24.36C150.18 24.36 151.5 23.14 151.5 21.53L151.5 19.91C150.99 20.25 149.48 20.47 148.56 20.6C147.07 20.81 146.08 21.4 146.08 22.59Z"
		fill="#FFFFFF" fill-opacity="1.000000" fill-rule="evenodd" />
</svg>