<svg width="50.769165" height="60.000000" viewBox="0 0 50.7692 60" fill="none"
	xmlns="http://www.w3.org/2000/svg" xmlns:xlink="http://www.w3.org/1999/xlink">
	<desc>
		Created with Pixso.
	</desc>
	<defs />
	<path id="Vector"
		d="M3.71 19.43C2.67 19.43 1.8 19.79 1.08 20.51C0.36 21.23 0 22.1 0 23.11L0 38.61C0 39.65 0.36 40.52 1.08 41.25C1.8 41.97 2.67 42.33 3.71 42.33C4.74 42.33 5.61 41.97 6.32 41.25C7.03 40.52 7.39 39.65 7.39 38.61L7.39 23.11C7.39 22.1 7.03 21.23 6.31 20.51C5.58 19.79 4.72 19.43 3.71 19.43Z"
		fill="#FFFFFF" fill-opacity="1.000000" fill-rule="nonzero" />
	<path id="Vector"
		d="M33.56 5.51L36.12 0.79C36.29 0.48 36.23 0.24 35.94 0.07C35.63 -0.08 35.39 0 35.22 0.28L32.63 5.04C30.34 4.03 27.93 3.53 25.38 3.53C22.83 3.53 20.42 4.03 18.13 5.04L15.54 0.28C15.37 0 15.13 -0.08 14.81 0.07C14.53 0.24 14.47 0.48 14.64 0.79L17.2 5.51C14.6 6.83 12.53 8.68 10.99 11.05C9.45 13.42 8.69 16 8.69 18.82L42.04 18.82C42.04 16 41.27 13.42 39.73 11.05C38.19 8.68 36.14 6.83 33.56 5.51ZM18.76 12.38C18.49 12.66 18.16 12.8 17.77 12.8C17.39 12.8 17.06 12.66 16.8 12.38C16.53 12.1 16.4 11.78 16.4 11.39C16.4 11 16.53 10.67 16.8 10.4C17.06 10.12 17.39 9.98 17.77 9.98C18.16 9.98 18.49 10.12 18.76 10.4C19.04 10.68 19.18 11 19.18 11.39C19.18 11.77 19.04 12.1 18.76 12.38ZM33.96 12.38C33.7 12.66 33.37 12.8 32.99 12.8C32.6 12.8 32.27 12.66 32 12.38C31.72 12.1 31.58 11.78 31.58 11.39C31.58 11 31.72 10.67 32 10.4C32.27 10.12 32.6 9.98 32.99 9.98C33.37 9.98 33.7 10.12 33.96 10.4C34.23 10.68 34.36 11 34.36 11.39C34.36 11.77 34.23 12.1 33.96 12.38Z"
		fill="#FFFFFF" fill-opacity="1.000000" fill-rule="nonzero" />
	<path id="Vector"
		d="M8.83 44.13C8.83 45.24 9.21 46.17 9.98 46.94C10.75 47.71 11.69 48.09 12.79 48.09L15.46 48.09L15.5 56.28C15.5 57.31 15.86 58.19 16.58 58.91C17.3 59.63 18.17 60 19.18 60C20.21 60 21.09 59.63 21.81 58.91C22.53 58.19 22.89 57.31 22.89 56.28L22.89 48.1L27.87 48.1L27.87 56.28C27.87 57.31 28.23 58.19 28.95 58.91C29.67 59.63 30.55 60 31.58 60C32.61 60 33.49 59.63 34.21 58.91C34.93 58.19 35.29 57.31 35.29 56.28L35.29 48.1L38 48.1C39.08 48.1 40 47.71 40.77 46.94C41.54 46.17 41.93 45.24 41.93 44.13L41.93 20.11L8.83 20.11L8.83 44.13Z"
		fill="#FFFFFF" fill-opacity="1.000000" fill-rule="nonzero" />
	<path id="Vector"
		d="M47.05 19.43C46.04 19.43 45.18 19.79 44.45 20.49C43.73 21.2 43.37 22.08 43.37 23.11L43.37 38.61C43.37 39.65 43.73 40.52 44.45 41.25C45.18 41.97 46.04 42.33 47.05 42.33C48.08 42.33 48.96 41.97 49.68 41.25C50.4 40.52 50.76 39.65 50.76 38.61L50.76 23.11C50.76 22.08 50.4 21.2 49.68 20.49C48.96 19.79 48.08 19.43 47.05 19.43Z"
		fill="#FFFFFF" fill-opacity="1.000000" fill-rule="nonzero" />
</svg>