<svg width="48.943115" height="60.000000" viewBox="0 0 48.9431 60" fill="none"
	xmlns="http://www.w3.org/2000/svg" xmlns:xlink="http://www.w3.org/1999/xlink">
	<defs />
	<path id="Vector"
		d="M40.91 33.63C39.26 25.32 47.14 20.45 47.14 20.45C47.14 20.45 44.07 16 38.91 14.86C33.75 13.72 31.16 15.15 28.59 16.22C26.01 17.3 24.72 17.3 24.72 17.3C21 17.3 18.27 13.36 11.18 15.15C6.29 16.38 1.15 22.03 0.22 28.76C-0.71 35.49 1.3 44.09 5.16 50.75C9.03 57.42 12.97 59.92 15.77 59.99C18.56 60.06 21.35 57.99 24.72 57.49C28.09 56.99 30.16 58.71 33.46 59.64C36.75 60.56 37.91 59.7 41.7 56.48C45.5 53.25 48.94 44.01 48.94 44.01C48.94 44.01 42.56 41.94 40.91 33.63Z"
		fill="#FFFFFF" fill-opacity="1.000000" fill-rule="nonzero" />
	<path id="Vector"
		d="M33.6 9.49C37.26 5.76 36.02 0 36.02 0C36.02 0 30.88 0.9 27.44 4.48C24.01 8.06 24.58 13.71 24.58 13.71C24.58 13.71 29.94 13.21 33.6 9.49Z"
		fill="#FFFFFF" fill-opacity="1.000000" fill-rule="nonzero" />
</svg>