<svg width="9.000000" height="16.684570" viewBox="0 0 9 16.6846" fill="none"
	xmlns="http://www.w3.org/2000/svg" xmlns:xlink="http://www.w3.org/1999/xlink">
	<desc>
		Created with Pixso.
	</desc>
	<defs />
	<path id="Icon_11_"
		d="M2.5 9.41C2.44 9.41 1.06 9.41 0.43 9.41C0.1 9.41 0 9.29 0 8.97C0 8.14 0 7.28 0 6.45C0 6.11 0.12 6.01 0.43 6.01L2.5 6.01C2.5 5.95 2.5 4.74 2.5 4.17C2.5 3.34 2.65 2.54 3.06 1.81C3.5 1.06 4.13 0.56 4.92 0.27C5.45 0.08 5.97 0 6.53 0L8.58 0C8.87 0 9 0.12 9 0.41L9 2.79C9 3.09 8.87 3.21 8.58 3.21C8.01 3.21 7.45 3.21 6.89 3.23C6.32 3.23 6.03 3.5 6.03 4.09C6.01 4.71 6.03 5.32 6.03 5.97L8.45 5.97C8.79 5.97 8.91 6.09 8.91 6.43L8.91 8.95C8.91 9.29 8.81 9.39 8.45 9.39C7.7 9.39 6.09 9.39 6.03 9.39L6.03 16.2C6.03 16.55 5.93 16.68 5.55 16.68C4.67 16.68 3.82 16.68 2.94 16.68C2.63 16.68 2.5 16.55 2.5 16.24C2.5 14.05 2.5 9.48 2.5 9.41Z"
		fill="#F7F7EE" fill-opacity="1.000000" fill-rule="nonzero" />
</svg>