<svg width="19.000000" height="18.998047" viewBox="0 0 19 18.998" fill="none"
	xmlns="http://www.w3.org/2000/svg" xmlns:xlink="http://www.w3.org/1999/xlink">
	<defs />
	<path id="Vector"
		d="M9.48 0C9.14 0 8.8 0.01 8.46 0.05C8.15 0.08 7.85 0.13 7.55 0.2C7.49 0.21 7.43 0.22 7.37 0.24C5.59 0.64 3.96 1.55 2.68 2.86C2.56 2.98 2.45 3.11 2.33 3.24C-1.12 7.2 -0.7 13.2 3.26 16.65C7.05 19.96 12.76 19.74 16.29 16.15C16.41 16.03 16.52 15.91 16.63 15.78C18.16 14.04 19 11.81 19 9.51C19 4.25 14.74 0 9.48 0ZM3.11 3.33C3.16 3.28 3.21 3.23 3.26 3.18C3.32 3.12 3.38 3.07 3.44 3.01C3.49 2.96 3.54 2.91 3.6 2.87C3.66 2.81 3.72 2.76 3.78 2.7C3.84 2.66 3.9 2.61 3.95 2.57C4.01 2.52 4.08 2.47 4.14 2.42C4.2 2.37 4.26 2.33 4.32 2.29C4.38 2.24 4.45 2.2 4.52 2.15C4.58 2.11 4.64 2.07 4.7 2.03C4.77 1.99 4.83 1.95 4.9 1.91C4.97 1.87 5.03 1.83 5.09 1.8C5.16 1.76 5.23 1.72 5.3 1.68C5.37 1.65 5.43 1.61 5.49 1.58C5.56 1.54 5.64 1.51 5.71 1.47C5.77 1.45 5.84 1.41 5.91 1.39C5.98 1.35 6.06 1.32 6.13 1.29C6.2 1.26 6.26 1.24 6.33 1.21C6.4 1.18 6.48 1.16 6.56 1.13C6.63 1.11 6.69 1.08 6.76 1.06C6.84 1.04 6.92 1.01 7 0.99C7.07 0.97 7.13 0.95 7.2 0.93C7.22 0.92 7.25 0.92 7.28 0.91C6.34 1.82 5.64 2.95 5.25 4.2C4.5 4 3.77 3.72 3.08 3.37C3.09 3.36 3.1 3.34 3.11 3.33ZM2.65 3.85C3.41 4.26 4.22 4.58 5.06 4.8C4.65 6.23 4.43 7.7 4.42 9.19L0.61 9.19C0.68 7.23 1.4 5.35 2.65 3.85ZM2.65 15.17C1.4 13.66 0.68 11.78 0.61 9.82L4.42 9.82C4.43 11.31 4.65 12.78 5.06 14.21C4.22 14.43 3.41 14.75 2.65 15.17ZM7.2 18.08C7.13 18.07 7.07 18.04 7 18.03C6.92 18 6.84 17.98 6.76 17.95C6.69 17.93 6.63 17.91 6.56 17.88C6.48 17.86 6.41 17.83 6.33 17.8C6.26 17.78 6.2 17.75 6.13 17.72C6.06 17.69 5.98 17.66 5.91 17.63C5.84 17.6 5.78 17.57 5.71 17.54C5.64 17.5 5.57 17.47 5.49 17.43C5.43 17.4 5.36 17.37 5.3 17.33C5.23 17.3 5.16 17.26 5.09 17.22C5.02 17.18 4.96 17.15 4.9 17.11C4.83 17.07 4.76 17.02 4.7 16.98C4.64 16.94 4.57 16.9 4.52 16.86C4.45 16.82 4.38 16.77 4.31 16.72C4.26 16.68 4.2 16.64 4.14 16.59C4.08 16.54 4.01 16.49 3.95 16.44C3.89 16.4 3.84 16.35 3.78 16.31C3.72 16.25 3.66 16.2 3.59 16.15C3.54 16.1 3.49 16.05 3.43 16C3.37 15.95 3.31 15.89 3.26 15.83C3.2 15.78 3.15 15.73 3.1 15.68C3.09 15.67 3.08 15.66 3.08 15.65C3.77 15.29 4.5 15.01 5.25 14.81C5.64 16.06 6.34 17.19 7.27 18.1C7.25 18.09 7.22 18.09 7.2 18.08ZM9.17 18.36C7.81 18.16 6.62 16.75 5.87 14.66C6.95 14.42 8.06 14.29 9.17 14.27L9.17 18.36ZM9.17 13.64C7.99 13.65 6.82 13.79 5.67 14.05C5.28 12.68 5.07 11.25 5.05 9.82L9.17 9.82L9.17 13.64ZM9.17 9.19L5.05 9.19C5.07 7.76 5.28 6.33 5.67 4.96C6.82 5.22 7.99 5.36 9.17 5.37L9.17 9.19ZM9.17 4.74C8.06 4.73 6.95 4.6 5.87 4.35C6.62 2.26 7.81 0.85 9.17 0.65L9.17 4.74ZM16.32 3.85C17.57 5.35 18.28 7.23 18.35 9.19L14.55 9.19C14.54 7.7 14.32 6.23 13.91 4.8C14.75 4.58 15.56 4.26 16.32 3.85ZM11.77 0.93C11.84 0.95 11.9 0.97 11.97 0.99C12.05 1.01 12.13 1.03 12.21 1.06C12.27 1.08 12.34 1.1 12.41 1.13C12.48 1.15 12.56 1.18 12.64 1.21C12.71 1.24 12.77 1.26 12.84 1.29C12.91 1.32 12.99 1.35 13.06 1.38C13.13 1.41 13.19 1.44 13.26 1.47C13.33 1.51 13.4 1.54 13.48 1.58C13.54 1.61 13.6 1.64 13.67 1.68C13.74 1.72 13.81 1.75 13.88 1.8C13.94 1.83 14 1.87 14.07 1.9C14.14 1.95 14.2 1.99 14.27 2.03C14.33 2.07 14.39 2.11 14.45 2.15C14.52 2.2 14.59 2.24 14.65 2.29C14.71 2.33 14.77 2.37 14.83 2.42C14.89 2.47 14.96 2.52 15.02 2.57C15.08 2.61 15.13 2.66 15.19 2.7C15.25 2.76 15.31 2.81 15.37 2.87C15.43 2.91 15.48 2.96 15.53 3.01C15.59 3.07 15.65 3.12 15.71 3.18C15.76 3.23 15.82 3.28 15.87 3.33C15.87 3.34 15.88 3.35 15.89 3.36C15.2 3.72 14.47 4 13.72 4.2C13.33 2.95 12.63 1.82 11.69 0.91C11.72 0.92 11.74 0.92 11.77 0.93ZM9.8 0.65C11.16 0.85 12.35 2.26 13.1 4.35C12.01 4.6 10.91 4.73 9.8 4.74L9.8 0.65ZM9.8 5.37C10.98 5.36 12.15 5.22 13.29 4.96C13.69 6.33 13.9 7.76 13.92 9.19L9.8 9.19L9.8 5.37ZM9.8 9.82L13.92 9.82C13.9 11.25 13.69 12.68 13.29 14.05C12.15 13.79 10.98 13.65 9.8 13.64L9.8 9.82ZM9.8 18.36L9.8 14.27C10.91 14.29 12.01 14.42 13.1 14.66C12.35 16.75 11.16 18.16 9.8 18.36ZM15.86 15.68C15.81 15.73 15.76 15.78 15.71 15.83C15.65 15.89 15.59 15.95 15.53 16C15.48 16.05 15.42 16.1 15.37 16.15C15.31 16.2 15.25 16.25 15.18 16.31C15.13 16.35 15.07 16.4 15.02 16.44C14.95 16.5 14.89 16.55 14.82 16.59C14.77 16.64 14.71 16.68 14.65 16.72C14.58 16.77 14.52 16.82 14.45 16.86C14.39 16.9 14.33 16.94 14.27 16.98C14.2 17.02 14.13 17.06 14.06 17.11C14 17.14 13.94 17.18 13.88 17.21C13.81 17.25 13.74 17.29 13.67 17.33C13.6 17.37 13.54 17.4 13.48 17.43C13.4 17.47 13.33 17.5 13.26 17.54C13.19 17.57 13.13 17.6 13.06 17.63C12.99 17.66 12.91 17.69 12.84 17.72C12.77 17.75 12.71 17.77 12.64 17.8C12.56 17.83 12.49 17.86 12.41 17.88C12.34 17.91 12.28 17.93 12.21 17.95C12.13 17.98 12.05 18 11.97 18.02C11.9 18.04 11.84 18.06 11.77 18.08C11.74 18.09 11.72 18.09 11.69 18.1C12.63 17.19 13.33 16.06 13.72 14.81C14.47 15.01 15.2 15.29 15.89 15.65C15.88 15.66 15.87 15.67 15.86 15.68ZM16.32 15.17C15.56 14.75 14.75 14.43 13.91 14.21C14.32 12.78 14.54 11.31 14.55 9.82L18.35 9.82C18.28 11.78 17.57 13.66 16.32 15.17Z"
		fill="#FFFFFF" fill-opacity="1.000000" fill-rule="nonzero" />
</svg>