<svg width="15.000000" height="15.000000" viewBox="0 0 15 15" fill="none"
	xmlns="http://www.w3.org/2000/svg" xmlns:xlink="http://www.w3.org/1999/xlink">
	<desc>
		Created with Pixso.
	</desc>
	<defs />
	<path id="Vector"
		d="M14.99 15L14.99 14.99L15 14.99L15 9.48C15 6.78 14.42 4.7 11.3 4.7C9.79 4.7 8.79 5.53 8.37 6.32L8.33 6.32L8.33 4.95L5.37 4.95L5.37 14.99L8.45 14.99L8.45 10.02C8.45 8.71 8.7 7.44 10.3 7.44C11.89 7.44 11.91 8.94 11.91 10.1L11.91 15L14.99 15Z"
		fill="#F7F7EE" fill-opacity="1.000000" fill-rule="nonzero" />
	<path id="Vector" d="M0.22 4.92L3.35 4.92L3.35 14.77L0.22 14.77L0.22 4.92Z" fill="#F7F7EE"
		fill-opacity="1.000000" fill-rule="nonzero" />
	<path id="Vector"
		d="M1.79 0C0.8 0 0 0.79 0 1.78C0 2.76 0.8 3.58 1.79 3.58C2.77 3.58 3.58 2.76 3.58 1.78C3.58 0.79 2.77 0 1.79 0L1.79 0Z"
		fill="#F7F7EE" fill-opacity="1.000000" fill-rule="nonzero" />
</svg>