<svg width="17.000000" height="13.812500" viewBox="0 0 17 13.8125" fill="none"
	xmlns="http://www.w3.org/2000/svg" xmlns:xlink="http://www.w3.org/1999/xlink">
	<desc>
		Created with Pixso.
	</desc>
	<defs />
	<path id="Vector"
		d="M17 1.63C16.36 1.91 15.69 2.09 14.99 2.18C15.71 1.75 16.26 1.07 16.52 0.25C15.85 0.66 15.1 0.94 14.31 1.1C13.67 0.42 12.76 0 11.76 0C9.83 0 8.28 1.56 8.28 3.48C8.28 3.76 8.3 4.02 8.36 4.28C5.46 4.13 2.9 2.75 1.18 0.63C0.88 1.15 0.7 1.75 0.7 2.39C0.7 3.6 1.32 4.67 2.25 5.29C1.69 5.28 1.14 5.12 0.68 4.86C0.68 4.87 0.68 4.88 0.68 4.9C0.68 6.59 1.88 8 3.47 8.32C3.18 8.4 2.87 8.44 2.55 8.44C2.33 8.44 2.11 8.42 1.89 8.38C2.35 9.76 3.63 10.77 5.15 10.8C3.96 11.73 2.46 12.29 0.83 12.29C0.54 12.29 0.27 12.28 0 12.24C1.54 13.24 3.37 13.81 5.34 13.81C11.75 13.81 15.26 8.5 15.26 3.89C15.26 3.74 15.26 3.59 15.25 3.44C15.94 2.95 16.52 2.34 17 1.63Z"
		fill="#F7F7EE" fill-opacity="1.000000" fill-rule="nonzero" />
</svg>