<svg width="20.010315" height="20.006836" viewBox="0 0 20.0103 20.0068" fill="none"
	xmlns="http://www.w3.org/2000/svg" xmlns:xlink="http://www.w3.org/1999/xlink">
	<defs />
	<path id="Vector"
		d="M19 9.18L19 10C19 11.95 18.37 13.83 17.21 15.39C16.05 16.94 14.41 18.08 12.55 18.63C10.69 19.18 8.7 19.12 6.88 18.44C5.06 17.77 3.5 16.53 2.45 14.9C1.39 13.27 0.89 11.34 1.01 9.41C1.14 7.47 1.89 5.62 3.15 4.15C4.42 2.67 6.12 1.64 8.01 1.22C9.91 0.79 11.89 0.98 13.66 1.77"
		stroke="#212529" stroke-opacity="1.000000" stroke-width="2.000000" stroke-linejoin="round"
		stroke-linecap="round" />
	<path id="Vector" d="M19 2.8L10 11.81L7.3 9.11" stroke="#212529" stroke-opacity="1.000000"
		stroke-width="2.000000" stroke-linejoin="round" stroke-linecap="round" />
</svg>